<?xml version="1.0" encoding="utf-8" standalone="no"?>
<!DOCTYPE svg PUBLIC "-//W3C//DTD SVG 1.1//EN"
  "http://www.w3.org/Graphics/SVG/1.1/DTD/svg11.dtd">
<svg xmlns:xlink="http://www.w3.org/1999/xlink" width="714.612146pt" height="568.075625pt" viewBox="0 0 714.612146 568.075625" xmlns="http://www.w3.org/2000/svg" version="1.1">
 <metadata>
  <rdf:RDF xmlns:dc="http://purl.org/dc/elements/1.1/" xmlns:cc="http://creativecommons.org/ns#" xmlns:rdf="http://www.w3.org/1999/02/22-rdf-syntax-ns#">
   <cc:Work>
    <dc:type rdf:resource="http://purl.org/dc/dcmitype/StillImage"/>
    <dc:date>2026-06-10T21:25:57.317215</dc:date>
    <dc:format>image/svg+xml</dc:format>
    <dc:creator>
     <cc:Agent>
      <dc:title>Matplotlib v3.8.3, https://matplotlib.org/</dc:title>
     </cc:Agent>
    </dc:creator>
   </cc:Work>
  </rdf:RDF>
 </metadata>
 <defs>
  <style type="text/css">*{stroke-linejoin: round; stroke-linecap: butt}</style>
 </defs>
 <g id="figure_1">
  <g id="patch_1">
   <path d="M 0 568.075625 
L 714.612146 568.075625 
L 714.612146 0 
L 0 0 
L 0 568.075625 
z
" style="fill: none"/>
  </g>
  <g id="axes_1">
   <g id="patch_2">
    <path d="M 161.655 522.1975 
L 687.647857 522.1975 
L 687.647857 39.3575 
L 161.655 39.3575 
L 161.655 522.1975 
z
" style="fill: none"/>
   </g>
   <g id="patch_3">
    <path d="M 161.655 500.250227 
L 189.892744 500.250227 
L 189.892744 477.546152 
L 161.655 477.546152 
z
" clip-path="url(#pdacf2b85d2)" style="fill: #00f0ff; opacity: 0.8; stroke: #00f0ff; stroke-width: 1.5; stroke-linejoin: miter"/>
   </g>
   <g id="patch_4">
    <path d="M 161.655 462.410102 
L 196.346335 462.410102 
L 196.346335 439.706027 
L 161.655 439.706027 
z
" clip-path="url(#pdacf2b85d2)" style="fill: #00f0ff; opacity: 0.8; stroke: #00f0ff; stroke-width: 1.5; stroke-linejoin: miter"/>
   </g>
   <g id="patch_5">
    <path d="M 161.655 424.569976 
L 199.606092 424.569976 
L 199.606092 401.865901 
L 161.655 401.865901 
z
" clip-path="url(#pdacf2b85d2)" style="fill: #00f0ff; opacity: 0.8; stroke: #00f0ff; stroke-width: 1.5; stroke-linejoin: miter"/>
   </g>
   <g id="patch_6">
    <path d="M 161.655 386.729851 
L 200.589337 386.729851 
L 200.589337 364.025776 
L 161.655 364.025776 
z
" clip-path="url(#pdacf2b85d2)" style="fill: #00f0ff; opacity: 0.8; stroke: #00f0ff; stroke-width: 1.5; stroke-linejoin: miter"/>
   </g>
   <g id="patch_7">
    <path d="M 161.655 348.889726 
L 215.424792 348.889726 
L 215.424792 326.18565 
L 161.655 326.18565 
z
" clip-path="url(#pdacf2b85d2)" style="fill: #00f0ff; opacity: 0.8; stroke: #00f0ff; stroke-width: 1.5; stroke-linejoin: miter"/>
   </g>
   <g id="patch_8">
    <path d="M 161.655 311.0496 
L 215.51852 311.0496 
L 215.51852 288.345525 
L 161.655 288.345525 
z
" clip-path="url(#pdacf2b85d2)" style="fill: #00f0ff; opacity: 0.8; stroke: #00f0ff; stroke-width: 1.5; stroke-linejoin: miter"/>
   </g>
   <g id="patch_9">
    <path d="M 161.655 273.209475 
L 265.601947 273.209475 
L 265.601947 250.5054 
L 161.655 250.5054 
z
" clip-path="url(#pdacf2b85d2)" style="fill: #00f0ff; opacity: 0.8; stroke: #00f0ff; stroke-width: 1.5; stroke-linejoin: miter"/>
   </g>
   <g id="patch_10">
    <path d="M 161.655 235.36935 
L 313.691062 235.36935 
L 313.691062 212.665274 
L 161.655 212.665274 
z
" clip-path="url(#pdacf2b85d2)" style="fill: #00f0ff; opacity: 0.8; stroke: #00f0ff; stroke-width: 1.5; stroke-linejoin: miter"/>
   </g>
   <g id="patch_11">
    <path d="M 161.655 197.529224 
L 321.229065 197.529224 
L 321.229065 174.825149 
L 161.655 174.825149 
z
" clip-path="url(#pdacf2b85d2)" style="fill: #00f0ff; opacity: 0.8; stroke: #00f0ff; stroke-width: 1.5; stroke-linejoin: miter"/>
   </g>
   <g id="patch_12">
    <path d="M 161.655 159.689099 
L 364.203087 159.689099 
L 364.203087 136.985024 
L 161.655 136.985024 
z
" clip-path="url(#pdacf2b85d2)" style="fill: #00f0ff; opacity: 0.8; stroke: #00f0ff; stroke-width: 1.5; stroke-linejoin: miter"/>
   </g>
   <g id="patch_13">
    <path d="M 161.655 121.848973 
L 451.12957 121.848973 
L 451.12957 99.144898 
L 161.655 99.144898 
z
" clip-path="url(#pdacf2b85d2)" style="fill: #00f0ff; opacity: 0.8; stroke: #00f0ff; stroke-width: 1.5; stroke-linejoin: miter"/>
   </g>
   <g id="patch_14">
    <path d="M 161.655 84.008848 
L 662.600578 84.008848 
L 662.600578 61.304773 
L 161.655 61.304773 
z
" clip-path="url(#pdacf2b85d2)" style="fill: #00f0ff; opacity: 0.8; stroke: #00f0ff; stroke-width: 1.5; stroke-linejoin: miter"/>
   </g>
   <g id="matplotlib.axis_1">
    <g id="xtick_1">
     <g id="line2d_1">
      <path d="M 161.655 522.1975 
L 161.655 39.3575 
" clip-path="url(#pdacf2b85d2)" style="fill: none; stroke-dasharray: 2.96,1.28; stroke-dashoffset: 0; stroke: #334155; stroke-opacity: 0.4; stroke-width: 0.8"/>
     </g>
     <g id="line2d_2">
      <defs>
       <path id="m5961994317" d="M 0 0 
L 0 3.5 
" style="stroke: #94a3b8; stroke-width: 0.8"/>
      </defs>
      <g>
       <use xlink:href="#m5961994317" x="161.655" y="522.1975" style="fill: #94a3b8; stroke: #94a3b8; stroke-width: 0.8"/>
      </g>
     </g>
     <g id="text_1">
      <!-- 0.0 -->
      <g style="fill: #94a3b8" transform="translate(153.703438 536.795937) scale(0.1 -0.1)">
       <defs>
        <path id="DejaVuSans-30" d="M 2034 4250 
Q 1547 4250 1301 3770 
Q 1056 3291 1056 2328 
Q 1056 1369 1301 889 
Q 1547 409 2034 409 
Q 2525 409 2770 889 
Q 3016 1369 3016 2328 
Q 3016 3291 2770 3770 
Q 2525 4250 2034 4250 
z
M 2034 4750 
Q 2819 4750 3233 4129 
Q 3647 3509 3647 2328 
Q 3647 1150 3233 529 
Q 2819 -91 2034 -91 
Q 1250 -91 836 529 
Q 422 1150 422 2328 
Q 422 3509 836 4129 
Q 1250 4750 2034 4750 
z
" transform="scale(0.015625)"/>
        <path id="DejaVuSans-2e" d="M 684 794 
L 1344 794 
L 1344 0 
L 684 0 
L 684 794 
z
" transform="scale(0.015625)"/>
       </defs>
       <use xlink:href="#DejaVuSans-30"/>
       <use xlink:href="#DejaVuSans-2e" x="63.623047"/>
       <use xlink:href="#DejaVuSans-30" x="95.410156"/>
      </g>
     </g>
    </g>
    <g id="xtick_2">
     <g id="line2d_3">
      <path d="M 234.210443 522.1975 
L 234.210443 39.3575 
" clip-path="url(#pdacf2b85d2)" style="fill: none; stroke-dasharray: 2.96,1.28; stroke-dashoffset: 0; stroke: #334155; stroke-opacity: 0.4; stroke-width: 0.8"/>
     </g>
     <g id="line2d_4">
      <g>
       <use xlink:href="#m5961994317" x="234.210443" y="522.1975" style="fill: #94a3b8; stroke: #94a3b8; stroke-width: 0.8"/>
      </g>
     </g>
     <g id="text_2">
      <!-- 0.2 -->
      <g style="fill: #94a3b8" transform="translate(226.25888 536.795937) scale(0.1 -0.1)">
       <defs>
        <path id="DejaVuSans-32" d="M 1228 531 
L 3431 531 
L 3431 0 
L 469 0 
L 469 531 
Q 828 903 1448 1529 
Q 2069 2156 2228 2338 
Q 2531 2678 2651 2914 
Q 2772 3150 2772 3378 
Q 2772 3750 2511 3984 
Q 2250 4219 1831 4219 
Q 1534 4219 1204 4116 
Q 875 4013 500 3803 
L 500 4441 
Q 881 4594 1212 4672 
Q 1544 4750 1819 4750 
Q 2544 4750 2975 4387 
Q 3406 4025 3406 3419 
Q 3406 3131 3298 2873 
Q 3191 2616 2906 2266 
Q 2828 2175 2409 1742 
Q 1991 1309 1228 531 
z
" transform="scale(0.015625)"/>
       </defs>
       <use xlink:href="#DejaVuSans-30"/>
       <use xlink:href="#DejaVuSans-2e" x="63.623047"/>
       <use xlink:href="#DejaVuSans-32" x="95.410156"/>
      </g>
     </g>
    </g>
    <g id="xtick_3">
     <g id="line2d_5">
      <path d="M 306.765886 522.1975 
L 306.765886 39.3575 
" clip-path="url(#pdacf2b85d2)" style="fill: none; stroke-dasharray: 2.96,1.28; stroke-dashoffset: 0; stroke: #334155; stroke-opacity: 0.4; stroke-width: 0.8"/>
     </g>
     <g id="line2d_6">
      <g>
       <use xlink:href="#m5961994317" x="306.765886" y="522.1975" style="fill: #94a3b8; stroke: #94a3b8; stroke-width: 0.8"/>
      </g>
     </g>
     <g id="text_3">
      <!-- 0.4 -->
      <g style="fill: #94a3b8" transform="translate(298.814323 536.795937) scale(0.1 -0.1)">
       <defs>
        <path id="DejaVuSans-34" d="M 2419 4116 
L 825 1625 
L 2419 1625 
L 2419 4116 
z
M 2253 4666 
L 3047 4666 
L 3047 1625 
L 3713 1625 
L 3713 1100 
L 3047 1100 
L 3047 0 
L 2419 0 
L 2419 1100 
L 313 1100 
L 313 1709 
L 2253 4666 
z
" transform="scale(0.015625)"/>
       </defs>
       <use xlink:href="#DejaVuSans-30"/>
       <use xlink:href="#DejaVuSans-2e" x="63.623047"/>
       <use xlink:href="#DejaVuSans-34" x="95.410156"/>
      </g>
     </g>
    </g>
    <g id="xtick_4">
     <g id="line2d_7">
      <path d="M 379.321329 522.1975 
L 379.321329 39.3575 
" clip-path="url(#pdacf2b85d2)" style="fill: none; stroke-dasharray: 2.96,1.28; stroke-dashoffset: 0; stroke: #334155; stroke-opacity: 0.4; stroke-width: 0.8"/>
     </g>
     <g id="line2d_8">
      <g>
       <use xlink:href="#m5961994317" x="379.321329" y="522.1975" style="fill: #94a3b8; stroke: #94a3b8; stroke-width: 0.8"/>
      </g>
     </g>
     <g id="text_4">
      <!-- 0.6 -->
      <g style="fill: #94a3b8" transform="translate(371.369766 536.795937) scale(0.1 -0.1)">
       <defs>
        <path id="DejaVuSans-36" d="M 2113 2584 
Q 1688 2584 1439 2293 
Q 1191 2003 1191 1497 
Q 1191 994 1439 701 
Q 1688 409 2113 409 
Q 2538 409 2786 701 
Q 3034 994 3034 1497 
Q 3034 2003 2786 2293 
Q 2538 2584 2113 2584 
z
M 3366 4563 
L 3366 3988 
Q 3128 4100 2886 4159 
Q 2644 4219 2406 4219 
Q 1781 4219 1451 3797 
Q 1122 3375 1075 2522 
Q 1259 2794 1537 2939 
Q 1816 3084 2150 3084 
Q 2853 3084 3261 2657 
Q 3669 2231 3669 1497 
Q 3669 778 3244 343 
Q 2819 -91 2113 -91 
Q 1303 -91 875 529 
Q 447 1150 447 2328 
Q 447 3434 972 4092 
Q 1497 4750 2381 4750 
Q 2619 4750 2861 4703 
Q 3103 4656 3366 4563 
z
" transform="scale(0.015625)"/>
       </defs>
       <use xlink:href="#DejaVuSans-30"/>
       <use xlink:href="#DejaVuSans-2e" x="63.623047"/>
       <use xlink:href="#DejaVuSans-36" x="95.410156"/>
      </g>
     </g>
    </g>
    <g id="xtick_5">
     <g id="line2d_9">
      <path d="M 451.876772 522.1975 
L 451.876772 39.3575 
" clip-path="url(#pdacf2b85d2)" style="fill: none; stroke-dasharray: 2.96,1.28; stroke-dashoffset: 0; stroke: #334155; stroke-opacity: 0.4; stroke-width: 0.8"/>
     </g>
     <g id="line2d_10">
      <g>
       <use xlink:href="#m5961994317" x="451.876772" y="522.1975" style="fill: #94a3b8; stroke: #94a3b8; stroke-width: 0.8"/>
      </g>
     </g>
     <g id="text_5">
      <!-- 0.8 -->
      <g style="fill: #94a3b8" transform="translate(443.925209 536.795937) scale(0.1 -0.1)">
       <defs>
        <path id="DejaVuSans-38" d="M 2034 2216 
Q 1584 2216 1326 1975 
Q 1069 1734 1069 1313 
Q 1069 891 1326 650 
Q 1584 409 2034 409 
Q 2484 409 2743 651 
Q 3003 894 3003 1313 
Q 3003 1734 2745 1975 
Q 2488 2216 2034 2216 
z
M 1403 2484 
Q 997 2584 770 2862 
Q 544 3141 544 3541 
Q 544 4100 942 4425 
Q 1341 4750 2034 4750 
Q 2731 4750 3128 4425 
Q 3525 4100 3525 3541 
Q 3525 3141 3298 2862 
Q 3072 2584 2669 2484 
Q 3125 2378 3379 2068 
Q 3634 1759 3634 1313 
Q 3634 634 3220 271 
Q 2806 -91 2034 -91 
Q 1263 -91 848 271 
Q 434 634 434 1313 
Q 434 1759 690 2068 
Q 947 2378 1403 2484 
z
M 1172 3481 
Q 1172 3119 1398 2916 
Q 1625 2713 2034 2713 
Q 2441 2713 2670 2916 
Q 2900 3119 2900 3481 
Q 2900 3844 2670 4047 
Q 2441 4250 2034 4250 
Q 1625 4250 1398 4047 
Q 1172 3844 1172 3481 
z
" transform="scale(0.015625)"/>
       </defs>
       <use xlink:href="#DejaVuSans-30"/>
       <use xlink:href="#DejaVuSans-2e" x="63.623047"/>
       <use xlink:href="#DejaVuSans-38" x="95.410156"/>
      </g>
     </g>
    </g>
    <g id="xtick_6">
     <g id="line2d_11">
      <path d="M 524.432215 522.1975 
L 524.432215 39.3575 
" clip-path="url(#pdacf2b85d2)" style="fill: none; stroke-dasharray: 2.96,1.28; stroke-dashoffset: 0; stroke: #334155; stroke-opacity: 0.4; stroke-width: 0.8"/>
     </g>
     <g id="line2d_12">
      <g>
       <use xlink:href="#m5961994317" x="524.432215" y="522.1975" style="fill: #94a3b8; stroke: #94a3b8; stroke-width: 0.8"/>
      </g>
     </g>
     <g id="text_6">
      <!-- 1.0 -->
      <g style="fill: #94a3b8" transform="translate(516.480652 536.795937) scale(0.1 -0.1)">
       <defs>
        <path id="DejaVuSans-31" d="M 794 531 
L 1825 531 
L 1825 4091 
L 703 3866 
L 703 4441 
L 1819 4666 
L 2450 4666 
L 2450 531 
L 3481 531 
L 3481 0 
L 794 0 
L 794 531 
z
" transform="scale(0.015625)"/>
       </defs>
       <use xlink:href="#DejaVuSans-31"/>
       <use xlink:href="#DejaVuSans-2e" x="63.623047"/>
       <use xlink:href="#DejaVuSans-30" x="95.410156"/>
      </g>
     </g>
    </g>
    <g id="xtick_7">
     <g id="line2d_13">
      <path d="M 596.987658 522.1975 
L 596.987658 39.3575 
" clip-path="url(#pdacf2b85d2)" style="fill: none; stroke-dasharray: 2.96,1.28; stroke-dashoffset: 0; stroke: #334155; stroke-opacity: 0.4; stroke-width: 0.8"/>
     </g>
     <g id="line2d_14">
      <g>
       <use xlink:href="#m5961994317" x="596.987658" y="522.1975" style="fill: #94a3b8; stroke: #94a3b8; stroke-width: 0.8"/>
      </g>
     </g>
     <g id="text_7">
      <!-- 1.2 -->
      <g style="fill: #94a3b8" transform="translate(589.036095 536.795937) scale(0.1 -0.1)">
       <use xlink:href="#DejaVuSans-31"/>
       <use xlink:href="#DejaVuSans-2e" x="63.623047"/>
       <use xlink:href="#DejaVuSans-32" x="95.410156"/>
      </g>
     </g>
    </g>
    <g id="xtick_8">
     <g id="line2d_15">
      <path d="M 669.543101 522.1975 
L 669.543101 39.3575 
" clip-path="url(#pdacf2b85d2)" style="fill: none; stroke-dasharray: 2.96,1.28; stroke-dashoffset: 0; stroke: #334155; stroke-opacity: 0.4; stroke-width: 0.8"/>
     </g>
     <g id="line2d_16">
      <g>
       <use xlink:href="#m5961994317" x="669.543101" y="522.1975" style="fill: #94a3b8; stroke: #94a3b8; stroke-width: 0.8"/>
      </g>
     </g>
     <g id="text_8">
      <!-- 1.4 -->
      <g style="fill: #94a3b8" transform="translate(661.591538 536.795937) scale(0.1 -0.1)">
       <use xlink:href="#DejaVuSans-31"/>
       <use xlink:href="#DejaVuSans-2e" x="63.623047"/>
       <use xlink:href="#DejaVuSans-34" x="95.410156"/>
      </g>
     </g>
    </g>
    <g id="text_9">
     <!-- Mean |SHAP Value| (Impact on Model Output) -->
     <g style="fill: #cbd5e1" transform="translate(270.911741 558.04625) scale(0.12 -0.12)">
      <defs>
       <path id="DejaVuSans-Bold-4d" d="M 588 4666 
L 2119 4666 
L 3181 2169 
L 4250 4666 
L 5778 4666 
L 5778 0 
L 4641 0 
L 4641 3413 
L 3566 897 
L 2803 897 
L 1728 3413 
L 1728 0 
L 588 0 
L 588 4666 
z
" transform="scale(0.015625)"/>
       <path id="DejaVuSans-Bold-65" d="M 4031 1759 
L 4031 1441 
L 1416 1441 
Q 1456 1047 1700 850 
Q 1944 653 2381 653 
Q 2734 653 3104 758 
Q 3475 863 3866 1075 
L 3866 213 
Q 3469 63 3072 -14 
Q 2675 -91 2278 -91 
Q 1328 -91 801 392 
Q 275 875 275 1747 
Q 275 2603 792 3093 
Q 1309 3584 2216 3584 
Q 3041 3584 3536 3087 
Q 4031 2591 4031 1759 
z
M 2881 2131 
Q 2881 2450 2695 2645 
Q 2509 2841 2209 2841 
Q 1884 2841 1681 2658 
Q 1478 2475 1428 2131 
L 2881 2131 
z
" transform="scale(0.015625)"/>
       <path id="DejaVuSans-Bold-61" d="M 2106 1575 
Q 1756 1575 1579 1456 
Q 1403 1338 1403 1106 
Q 1403 894 1545 773 
Q 1688 653 1941 653 
Q 2256 653 2472 879 
Q 2688 1106 2688 1447 
L 2688 1575 
L 2106 1575 
z
M 3816 1997 
L 3816 0 
L 2688 0 
L 2688 519 
Q 2463 200 2181 54 
Q 1900 -91 1497 -91 
Q 953 -91 614 226 
Q 275 544 275 1050 
Q 275 1666 698 1953 
Q 1122 2241 2028 2241 
L 2688 2241 
L 2688 2328 
Q 2688 2594 2478 2717 
Q 2269 2841 1825 2841 
Q 1466 2841 1156 2769 
Q 847 2697 581 2553 
L 581 3406 
Q 941 3494 1303 3539 
Q 1666 3584 2028 3584 
Q 2975 3584 3395 3211 
Q 3816 2838 3816 1997 
z
" transform="scale(0.015625)"/>
       <path id="DejaVuSans-Bold-6e" d="M 4056 2131 
L 4056 0 
L 2931 0 
L 2931 347 
L 2931 1631 
Q 2931 2084 2911 2256 
Q 2891 2428 2841 2509 
Q 2775 2619 2662 2680 
Q 2550 2741 2406 2741 
Q 2056 2741 1856 2470 
Q 1656 2200 1656 1722 
L 1656 0 
L 538 0 
L 538 3500 
L 1656 3500 
L 1656 2988 
Q 1909 3294 2193 3439 
Q 2478 3584 2822 3584 
Q 3428 3584 3742 3212 
Q 4056 2841 4056 2131 
z
" transform="scale(0.015625)"/>
       <path id="DejaVuSans-Bold-20" transform="scale(0.015625)"/>
       <path id="DejaVuSans-Bold-7c" d="M 1522 4891 
L 1522 -1509 
L 813 -1509 
L 813 4891 
L 1522 4891 
z
" transform="scale(0.015625)"/>
       <path id="DejaVuSans-Bold-53" d="M 3834 4519 
L 3834 3531 
Q 3450 3703 3084 3790 
Q 2719 3878 2394 3878 
Q 1963 3878 1756 3759 
Q 1550 3641 1550 3391 
Q 1550 3203 1689 3098 
Q 1828 2994 2194 2919 
L 2706 2816 
Q 3484 2659 3812 2340 
Q 4141 2022 4141 1434 
Q 4141 663 3683 286 
Q 3225 -91 2284 -91 
Q 1841 -91 1394 -6 
Q 947 78 500 244 
L 500 1259 
Q 947 1022 1364 901 
Q 1781 781 2169 781 
Q 2563 781 2772 912 
Q 2981 1044 2981 1288 
Q 2981 1506 2839 1625 
Q 2697 1744 2272 1838 
L 1806 1941 
Q 1106 2091 782 2419 
Q 459 2747 459 3303 
Q 459 4000 909 4375 
Q 1359 4750 2203 4750 
Q 2588 4750 2994 4692 
Q 3400 4634 3834 4519 
z
" transform="scale(0.015625)"/>
       <path id="DejaVuSans-Bold-48" d="M 588 4666 
L 1791 4666 
L 1791 2888 
L 3566 2888 
L 3566 4666 
L 4769 4666 
L 4769 0 
L 3566 0 
L 3566 1978 
L 1791 1978 
L 1791 0 
L 588 0 
L 588 4666 
z
" transform="scale(0.015625)"/>
       <path id="DejaVuSans-Bold-41" d="M 3419 850 
L 1538 850 
L 1241 0 
L 31 0 
L 1759 4666 
L 3194 4666 
L 4922 0 
L 3713 0 
L 3419 850 
z
M 1838 1716 
L 3116 1716 
L 2478 3572 
L 1838 1716 
z
" transform="scale(0.015625)"/>
       <path id="DejaVuSans-Bold-50" d="M 588 4666 
L 2584 4666 
Q 3475 4666 3951 4270 
Q 4428 3875 4428 3144 
Q 4428 2409 3951 2014 
Q 3475 1619 2584 1619 
L 1791 1619 
L 1791 0 
L 588 0 
L 588 4666 
z
M 1791 3794 
L 1791 2491 
L 2456 2491 
Q 2806 2491 2997 2661 
Q 3188 2831 3188 3144 
Q 3188 3456 2997 3625 
Q 2806 3794 2456 3794 
L 1791 3794 
z
" transform="scale(0.015625)"/>
       <path id="DejaVuSans-Bold-56" d="M 31 4666 
L 1241 4666 
L 2478 1222 
L 3713 4666 
L 4922 4666 
L 3194 0 
L 1759 0 
L 31 4666 
z
" transform="scale(0.015625)"/>
       <path id="DejaVuSans-Bold-6c" d="M 538 4863 
L 1656 4863 
L 1656 0 
L 538 0 
L 538 4863 
z
" transform="scale(0.015625)"/>
       <path id="DejaVuSans-Bold-75" d="M 500 1363 
L 500 3500 
L 1625 3500 
L 1625 3150 
Q 1625 2866 1622 2436 
Q 1619 2006 1619 1863 
Q 1619 1441 1641 1255 
Q 1663 1069 1716 984 
Q 1784 875 1895 815 
Q 2006 756 2150 756 
Q 2500 756 2700 1025 
Q 2900 1294 2900 1772 
L 2900 3500 
L 4019 3500 
L 4019 0 
L 2900 0 
L 2900 506 
Q 2647 200 2364 54 
Q 2081 -91 1741 -91 
Q 1134 -91 817 281 
Q 500 653 500 1363 
z
" transform="scale(0.015625)"/>
       <path id="DejaVuSans-Bold-28" d="M 2413 -844 
L 1484 -844 
Q 1006 -72 778 623 
Q 550 1319 550 2003 
Q 550 2688 779 3389 
Q 1009 4091 1484 4856 
L 2413 4856 
Q 2013 4116 1813 3408 
Q 1613 2700 1613 2009 
Q 1613 1319 1811 609 
Q 2009 -100 2413 -844 
z
" transform="scale(0.015625)"/>
       <path id="DejaVuSans-Bold-49" d="M 588 4666 
L 1791 4666 
L 1791 0 
L 588 0 
L 588 4666 
z
" transform="scale(0.015625)"/>
       <path id="DejaVuSans-Bold-6d" d="M 3781 2919 
Q 3994 3244 4286 3414 
Q 4578 3584 4928 3584 
Q 5531 3584 5847 3212 
Q 6163 2841 6163 2131 
L 6163 0 
L 5038 0 
L 5038 1825 
Q 5041 1866 5042 1909 
Q 5044 1953 5044 2034 
Q 5044 2406 4934 2573 
Q 4825 2741 4581 2741 
Q 4263 2741 4089 2478 
Q 3916 2216 3909 1719 
L 3909 0 
L 2784 0 
L 2784 1825 
Q 2784 2406 2684 2573 
Q 2584 2741 2328 2741 
Q 2006 2741 1831 2477 
Q 1656 2213 1656 1722 
L 1656 0 
L 531 0 
L 531 3500 
L 1656 3500 
L 1656 2988 
Q 1863 3284 2130 3434 
Q 2397 3584 2719 3584 
Q 3081 3584 3359 3409 
Q 3638 3234 3781 2919 
z
" transform="scale(0.015625)"/>
       <path id="DejaVuSans-Bold-70" d="M 1656 506 
L 1656 -1331 
L 538 -1331 
L 538 3500 
L 1656 3500 
L 1656 2988 
Q 1888 3294 2169 3439 
Q 2450 3584 2816 3584 
Q 3463 3584 3878 3070 
Q 4294 2556 4294 1747 
Q 4294 938 3878 423 
Q 3463 -91 2816 -91 
Q 2450 -91 2169 54 
Q 1888 200 1656 506 
z
M 2400 2772 
Q 2041 2772 1848 2508 
Q 1656 2244 1656 1747 
Q 1656 1250 1848 986 
Q 2041 722 2400 722 
Q 2759 722 2948 984 
Q 3138 1247 3138 1747 
Q 3138 2247 2948 2509 
Q 2759 2772 2400 2772 
z
" transform="scale(0.015625)"/>
       <path id="DejaVuSans-Bold-63" d="M 3366 3391 
L 3366 2478 
Q 3138 2634 2908 2709 
Q 2678 2784 2431 2784 
Q 1963 2784 1702 2511 
Q 1441 2238 1441 1747 
Q 1441 1256 1702 982 
Q 1963 709 2431 709 
Q 2694 709 2930 787 
Q 3166 866 3366 1019 
L 3366 103 
Q 3103 6 2833 -42 
Q 2563 -91 2291 -91 
Q 1344 -91 809 395 
Q 275 881 275 1747 
Q 275 2613 809 3098 
Q 1344 3584 2291 3584 
Q 2566 3584 2833 3536 
Q 3100 3488 3366 3391 
z
" transform="scale(0.015625)"/>
       <path id="DejaVuSans-Bold-74" d="M 1759 4494 
L 1759 3500 
L 2913 3500 
L 2913 2700 
L 1759 2700 
L 1759 1216 
Q 1759 972 1856 886 
Q 1953 800 2241 800 
L 2816 800 
L 2816 0 
L 1856 0 
Q 1194 0 917 276 
Q 641 553 641 1216 
L 641 2700 
L 84 2700 
L 84 3500 
L 641 3500 
L 641 4494 
L 1759 4494 
z
" transform="scale(0.015625)"/>
       <path id="DejaVuSans-Bold-6f" d="M 2203 2784 
Q 1831 2784 1636 2517 
Q 1441 2250 1441 1747 
Q 1441 1244 1636 976 
Q 1831 709 2203 709 
Q 2569 709 2762 976 
Q 2956 1244 2956 1747 
Q 2956 2250 2762 2517 
Q 2569 2784 2203 2784 
z
M 2203 3584 
Q 3106 3584 3614 3096 
Q 4122 2609 4122 1747 
Q 4122 884 3614 396 
Q 3106 -91 2203 -91 
Q 1297 -91 786 396 
Q 275 884 275 1747 
Q 275 2609 786 3096 
Q 1297 3584 2203 3584 
z
" transform="scale(0.015625)"/>
       <path id="DejaVuSans-Bold-64" d="M 2919 2988 
L 2919 4863 
L 4044 4863 
L 4044 0 
L 2919 0 
L 2919 506 
Q 2688 197 2409 53 
Q 2131 -91 1766 -91 
Q 1119 -91 703 423 
Q 288 938 288 1747 
Q 288 2556 703 3070 
Q 1119 3584 1766 3584 
Q 2128 3584 2408 3439 
Q 2688 3294 2919 2988 
z
M 2181 722 
Q 2541 722 2730 984 
Q 2919 1247 2919 1747 
Q 2919 2247 2730 2509 
Q 2541 2772 2181 2772 
Q 1825 2772 1636 2509 
Q 1447 2247 1447 1747 
Q 1447 1247 1636 984 
Q 1825 722 2181 722 
z
" transform="scale(0.015625)"/>
       <path id="DejaVuSans-Bold-4f" d="M 2719 3878 
Q 2169 3878 1866 3472 
Q 1563 3066 1563 2328 
Q 1563 1594 1866 1187 
Q 2169 781 2719 781 
Q 3272 781 3575 1187 
Q 3878 1594 3878 2328 
Q 3878 3066 3575 3472 
Q 3272 3878 2719 3878 
z
M 2719 4750 
Q 3844 4750 4481 4106 
Q 5119 3463 5119 2328 
Q 5119 1197 4481 553 
Q 3844 -91 2719 -91 
Q 1597 -91 958 553 
Q 319 1197 319 2328 
Q 319 3463 958 4106 
Q 1597 4750 2719 4750 
z
" transform="scale(0.015625)"/>
       <path id="DejaVuSans-Bold-29" d="M 513 -844 
Q 913 -100 1113 609 
Q 1313 1319 1313 2009 
Q 1313 2700 1113 3408 
Q 913 4116 513 4856 
L 1441 4856 
Q 1916 4091 2145 3389 
Q 2375 2688 2375 2003 
Q 2375 1319 2147 623 
Q 1919 -72 1441 -844 
L 513 -844 
z
" transform="scale(0.015625)"/>
      </defs>
      <use xlink:href="#DejaVuSans-Bold-4d"/>
      <use xlink:href="#DejaVuSans-Bold-65" x="99.511719"/>
      <use xlink:href="#DejaVuSans-Bold-61" x="167.333984"/>
      <use xlink:href="#DejaVuSans-Bold-6e" x="234.814453"/>
      <use xlink:href="#DejaVuSans-Bold-20" x="306.005859"/>
      <use xlink:href="#DejaVuSans-Bold-7c" x="340.820312"/>
      <use xlink:href="#DejaVuSans-Bold-53" x="377.34375"/>
      <use xlink:href="#DejaVuSans-Bold-48" x="449.365234"/>
      <use xlink:href="#DejaVuSans-Bold-41" x="533.056641"/>
      <use xlink:href="#DejaVuSans-Bold-50" x="610.449219"/>
      <use xlink:href="#DejaVuSans-Bold-20" x="683.740234"/>
      <use xlink:href="#DejaVuSans-Bold-56" x="718.554688"/>
      <use xlink:href="#DejaVuSans-Bold-61" x="790.447266"/>
      <use xlink:href="#DejaVuSans-Bold-6c" x="857.927734"/>
      <use xlink:href="#DejaVuSans-Bold-75" x="892.205078"/>
      <use xlink:href="#DejaVuSans-Bold-65" x="963.396484"/>
      <use xlink:href="#DejaVuSans-Bold-7c" x="1031.21875"/>
      <use xlink:href="#DejaVuSans-Bold-20" x="1067.742188"/>
      <use xlink:href="#DejaVuSans-Bold-28" x="1102.556641"/>
      <use xlink:href="#DejaVuSans-Bold-49" x="1148.259766"/>
      <use xlink:href="#DejaVuSans-Bold-6d" x="1185.466797"/>
      <use xlink:href="#DejaVuSans-Bold-70" x="1289.666016"/>
      <use xlink:href="#DejaVuSans-Bold-61" x="1361.248047"/>
      <use xlink:href="#DejaVuSans-Bold-63" x="1428.728516"/>
      <use xlink:href="#DejaVuSans-Bold-74" x="1488.005859"/>
      <use xlink:href="#DejaVuSans-Bold-20" x="1535.808594"/>
      <use xlink:href="#DejaVuSans-Bold-6f" x="1570.623047"/>
      <use xlink:href="#DejaVuSans-Bold-6e" x="1639.324219"/>
      <use xlink:href="#DejaVuSans-Bold-20" x="1710.515625"/>
      <use xlink:href="#DejaVuSans-Bold-4d" x="1745.330078"/>
      <use xlink:href="#DejaVuSans-Bold-6f" x="1844.841797"/>
      <use xlink:href="#DejaVuSans-Bold-64" x="1913.542969"/>
      <use xlink:href="#DejaVuSans-Bold-65" x="1985.125"/>
      <use xlink:href="#DejaVuSans-Bold-6c" x="2052.947266"/>
      <use xlink:href="#DejaVuSans-Bold-20" x="2087.224609"/>
      <use xlink:href="#DejaVuSans-Bold-4f" x="2122.039062"/>
      <use xlink:href="#DejaVuSans-Bold-75" x="2207.048828"/>
      <use xlink:href="#DejaVuSans-Bold-74" x="2278.240234"/>
      <use xlink:href="#DejaVuSans-Bold-70" x="2326.042969"/>
      <use xlink:href="#DejaVuSans-Bold-75" x="2397.625"/>
      <use xlink:href="#DejaVuSans-Bold-74" x="2468.816406"/>
      <use xlink:href="#DejaVuSans-Bold-29" x="2516.619141"/>
     </g>
    </g>
   </g>
   <g id="matplotlib.axis_2">
    <g id="ytick_1">
     <g id="line2d_17">
      <defs>
       <path id="m8158a9462c" d="M 0 0 
L -3.5 0 
" style="stroke: #94a3b8; stroke-width: 0.8"/>
      </defs>
      <g>
       <use xlink:href="#m8158a9462c" x="161.655" y="488.89819" style="fill: #94a3b8; stroke: #94a3b8; stroke-width: 0.8"/>
      </g>
     </g>
     <g id="text_10">
      <!-- Sector 3 Time Era Norm -->
      <g style="fill: #cbd5e1" transform="translate(7.330625 493.07733) scale(0.11 -0.11)">
       <defs>
        <path id="DejaVuSans-Bold-72" d="M 3138 2547 
Q 2991 2616 2845 2648 
Q 2700 2681 2553 2681 
Q 2122 2681 1889 2404 
Q 1656 2128 1656 1613 
L 1656 0 
L 538 0 
L 538 3500 
L 1656 3500 
L 1656 2925 
Q 1872 3269 2151 3426 
Q 2431 3584 2822 3584 
Q 2878 3584 2943 3579 
Q 3009 3575 3134 3559 
L 3138 2547 
z
" transform="scale(0.015625)"/>
        <path id="DejaVuSans-Bold-33" d="M 2981 2516 
Q 3453 2394 3698 2092 
Q 3944 1791 3944 1325 
Q 3944 631 3412 270 
Q 2881 -91 1863 -91 
Q 1503 -91 1142 -33 
Q 781 25 428 141 
L 428 1069 
Q 766 900 1098 814 
Q 1431 728 1753 728 
Q 2231 728 2486 893 
Q 2741 1059 2741 1369 
Q 2741 1688 2480 1852 
Q 2219 2016 1709 2016 
L 1228 2016 
L 1228 2791 
L 1734 2791 
Q 2188 2791 2409 2933 
Q 2631 3075 2631 3366 
Q 2631 3634 2415 3781 
Q 2200 3928 1806 3928 
Q 1516 3928 1219 3862 
Q 922 3797 628 3669 
L 628 4550 
Q 984 4650 1334 4700 
Q 1684 4750 2022 4750 
Q 2931 4750 3382 4451 
Q 3834 4153 3834 3553 
Q 3834 3144 3618 2883 
Q 3403 2622 2981 2516 
z
" transform="scale(0.015625)"/>
        <path id="DejaVuSans-Bold-54" d="M 31 4666 
L 4331 4666 
L 4331 3756 
L 2784 3756 
L 2784 0 
L 1581 0 
L 1581 3756 
L 31 3756 
L 31 4666 
z
" transform="scale(0.015625)"/>
        <path id="DejaVuSans-Bold-69" d="M 538 3500 
L 1656 3500 
L 1656 0 
L 538 0 
L 538 3500 
z
M 538 4863 
L 1656 4863 
L 1656 3950 
L 538 3950 
L 538 4863 
z
" transform="scale(0.015625)"/>
        <path id="DejaVuSans-Bold-45" d="M 588 4666 
L 3834 4666 
L 3834 3756 
L 1791 3756 
L 1791 2888 
L 3713 2888 
L 3713 1978 
L 1791 1978 
L 1791 909 
L 3903 909 
L 3903 0 
L 588 0 
L 588 4666 
z
" transform="scale(0.015625)"/>
        <path id="DejaVuSans-Bold-4e" d="M 588 4666 
L 1931 4666 
L 3628 1466 
L 3628 4666 
L 4769 4666 
L 4769 0 
L 3425 0 
L 1728 3200 
L 1728 0 
L 588 0 
L 588 4666 
z
" transform="scale(0.015625)"/>
       </defs>
       <use xlink:href="#DejaVuSans-Bold-53"/>
       <use xlink:href="#DejaVuSans-Bold-65" x="72.021484"/>
       <use xlink:href="#DejaVuSans-Bold-63" x="139.84375"/>
       <use xlink:href="#DejaVuSans-Bold-74" x="199.121094"/>
       <use xlink:href="#DejaVuSans-Bold-6f" x="246.923828"/>
       <use xlink:href="#DejaVuSans-Bold-72" x="315.625"/>
       <use xlink:href="#DejaVuSans-Bold-20" x="364.941406"/>
       <use xlink:href="#DejaVuSans-Bold-33" x="399.755859"/>
       <use xlink:href="#DejaVuSans-Bold-20" x="469.335938"/>
       <use xlink:href="#DejaVuSans-Bold-54" x="504.150391"/>
       <use xlink:href="#DejaVuSans-Bold-69" x="572.363281"/>
       <use xlink:href="#DejaVuSans-Bold-6d" x="606.640625"/>
       <use xlink:href="#DejaVuSans-Bold-65" x="710.839844"/>
       <use xlink:href="#DejaVuSans-Bold-20" x="778.662109"/>
       <use xlink:href="#DejaVuSans-Bold-45" x="813.476562"/>
       <use xlink:href="#DejaVuSans-Bold-72" x="881.787109"/>
       <use xlink:href="#DejaVuSans-Bold-61" x="931.103516"/>
       <use xlink:href="#DejaVuSans-Bold-20" x="998.583984"/>
       <use xlink:href="#DejaVuSans-Bold-4e" x="1033.398438"/>
       <use xlink:href="#DejaVuSans-Bold-6f" x="1117.089844"/>
       <use xlink:href="#DejaVuSans-Bold-72" x="1185.791016"/>
       <use xlink:href="#DejaVuSans-Bold-6d" x="1235.107422"/>
      </g>
     </g>
    </g>
    <g id="ytick_2">
     <g id="line2d_18">
      <g>
       <use xlink:href="#m8158a9462c" x="161.655" y="451.058064" style="fill: #94a3b8; stroke: #94a3b8; stroke-width: 0.8"/>
      </g>
     </g>
     <g id="text_11">
      <!-- Sector 2 Time Era Norm -->
      <g style="fill: #cbd5e1" transform="translate(7.330625 455.237205) scale(0.11 -0.11)">
       <defs>
        <path id="DejaVuSans-Bold-32" d="M 1844 884 
L 3897 884 
L 3897 0 
L 506 0 
L 506 884 
L 2209 2388 
Q 2438 2594 2547 2791 
Q 2656 2988 2656 3200 
Q 2656 3528 2436 3728 
Q 2216 3928 1850 3928 
Q 1569 3928 1234 3808 
Q 900 3688 519 3450 
L 519 4475 
Q 925 4609 1322 4679 
Q 1719 4750 2100 4750 
Q 2938 4750 3402 4381 
Q 3866 4013 3866 3353 
Q 3866 2972 3669 2642 
Q 3472 2313 2841 1759 
L 1844 884 
z
" transform="scale(0.015625)"/>
       </defs>
       <use xlink:href="#DejaVuSans-Bold-53"/>
       <use xlink:href="#DejaVuSans-Bold-65" x="72.021484"/>
       <use xlink:href="#DejaVuSans-Bold-63" x="139.84375"/>
       <use xlink:href="#DejaVuSans-Bold-74" x="199.121094"/>
       <use xlink:href="#DejaVuSans-Bold-6f" x="246.923828"/>
       <use xlink:href="#DejaVuSans-Bold-72" x="315.625"/>
       <use xlink:href="#DejaVuSans-Bold-20" x="364.941406"/>
       <use xlink:href="#DejaVuSans-Bold-32" x="399.755859"/>
       <use xlink:href="#DejaVuSans-Bold-20" x="469.335938"/>
       <use xlink:href="#DejaVuSans-Bold-54" x="504.150391"/>
       <use xlink:href="#DejaVuSans-Bold-69" x="572.363281"/>
       <use xlink:href="#DejaVuSans-Bold-6d" x="606.640625"/>
       <use xlink:href="#DejaVuSans-Bold-65" x="710.839844"/>
       <use xlink:href="#DejaVuSans-Bold-20" x="778.662109"/>
       <use xlink:href="#DejaVuSans-Bold-45" x="813.476562"/>
       <use xlink:href="#DejaVuSans-Bold-72" x="881.787109"/>
       <use xlink:href="#DejaVuSans-Bold-61" x="931.103516"/>
       <use xlink:href="#DejaVuSans-Bold-20" x="998.583984"/>
       <use xlink:href="#DejaVuSans-Bold-4e" x="1033.398438"/>
       <use xlink:href="#DejaVuSans-Bold-6f" x="1117.089844"/>
       <use xlink:href="#DejaVuSans-Bold-72" x="1185.791016"/>
       <use xlink:href="#DejaVuSans-Bold-6d" x="1235.107422"/>
      </g>
     </g>
    </g>
    <g id="ytick_3">
     <g id="line2d_19">
      <g>
       <use xlink:href="#m8158a9462c" x="161.655" y="413.217939" style="fill: #94a3b8; stroke: #94a3b8; stroke-width: 0.8"/>
      </g>
     </g>
     <g id="text_12">
      <!-- Sector 2 Time -->
      <g style="fill: #cbd5e1" transform="translate(69.001094 417.397079) scale(0.11 -0.11)">
       <use xlink:href="#DejaVuSans-Bold-53"/>
       <use xlink:href="#DejaVuSans-Bold-65" x="72.021484"/>
       <use xlink:href="#DejaVuSans-Bold-63" x="139.84375"/>
       <use xlink:href="#DejaVuSans-Bold-74" x="199.121094"/>
       <use xlink:href="#DejaVuSans-Bold-6f" x="246.923828"/>
       <use xlink:href="#DejaVuSans-Bold-72" x="315.625"/>
       <use xlink:href="#DejaVuSans-Bold-20" x="364.941406"/>
       <use xlink:href="#DejaVuSans-Bold-32" x="399.755859"/>
       <use xlink:href="#DejaVuSans-Bold-20" x="469.335938"/>
       <use xlink:href="#DejaVuSans-Bold-54" x="504.150391"/>
       <use xlink:href="#DejaVuSans-Bold-69" x="572.363281"/>
       <use xlink:href="#DejaVuSans-Bold-6d" x="606.640625"/>
       <use xlink:href="#DejaVuSans-Bold-65" x="710.839844"/>
      </g>
     </g>
    </g>
    <g id="ytick_4">
     <g id="line2d_20">
      <g>
       <use xlink:href="#m8158a9462c" x="161.655" y="375.377813" style="fill: #94a3b8; stroke: #94a3b8; stroke-width: 0.8"/>
      </g>
     </g>
     <g id="text_13">
      <!-- Sector 1 Time -->
      <g style="fill: #cbd5e1" transform="translate(69.001094 379.556954) scale(0.11 -0.11)">
       <defs>
        <path id="DejaVuSans-Bold-31" d="M 750 831 
L 1813 831 
L 1813 3847 
L 722 3622 
L 722 4441 
L 1806 4666 
L 2950 4666 
L 2950 831 
L 4013 831 
L 4013 0 
L 750 0 
L 750 831 
z
" transform="scale(0.015625)"/>
       </defs>
       <use xlink:href="#DejaVuSans-Bold-53"/>
       <use xlink:href="#DejaVuSans-Bold-65" x="72.021484"/>
       <use xlink:href="#DejaVuSans-Bold-63" x="139.84375"/>
       <use xlink:href="#DejaVuSans-Bold-74" x="199.121094"/>
       <use xlink:href="#DejaVuSans-Bold-6f" x="246.923828"/>
       <use xlink:href="#DejaVuSans-Bold-72" x="315.625"/>
       <use xlink:href="#DejaVuSans-Bold-20" x="364.941406"/>
       <use xlink:href="#DejaVuSans-Bold-31" x="399.755859"/>
       <use xlink:href="#DejaVuSans-Bold-20" x="469.335938"/>
       <use xlink:href="#DejaVuSans-Bold-54" x="504.150391"/>
       <use xlink:href="#DejaVuSans-Bold-69" x="572.363281"/>
       <use xlink:href="#DejaVuSans-Bold-6d" x="606.640625"/>
       <use xlink:href="#DejaVuSans-Bold-65" x="710.839844"/>
      </g>
     </g>
    </g>
    <g id="ytick_5">
     <g id="line2d_21">
      <g>
       <use xlink:href="#m8158a9462c" x="161.655" y="337.537688" style="fill: #94a3b8; stroke: #94a3b8; stroke-width: 0.8"/>
      </g>
     </g>
     <g id="text_14">
      <!-- Sector 1 Time Era Norm -->
      <g style="fill: #cbd5e1" transform="translate(7.330625 341.716829) scale(0.11 -0.11)">
       <use xlink:href="#DejaVuSans-Bold-53"/>
       <use xlink:href="#DejaVuSans-Bold-65" x="72.021484"/>
       <use xlink:href="#DejaVuSans-Bold-63" x="139.84375"/>
       <use xlink:href="#DejaVuSans-Bold-74" x="199.121094"/>
       <use xlink:href="#DejaVuSans-Bold-6f" x="246.923828"/>
       <use xlink:href="#DejaVuSans-Bold-72" x="315.625"/>
       <use xlink:href="#DejaVuSans-Bold-20" x="364.941406"/>
       <use xlink:href="#DejaVuSans-Bold-31" x="399.755859"/>
       <use xlink:href="#DejaVuSans-Bold-20" x="469.335938"/>
       <use xlink:href="#DejaVuSans-Bold-54" x="504.150391"/>
       <use xlink:href="#DejaVuSans-Bold-69" x="572.363281"/>
       <use xlink:href="#DejaVuSans-Bold-6d" x="606.640625"/>
       <use xlink:href="#DejaVuSans-Bold-65" x="710.839844"/>
       <use xlink:href="#DejaVuSans-Bold-20" x="778.662109"/>
       <use xlink:href="#DejaVuSans-Bold-45" x="813.476562"/>
       <use xlink:href="#DejaVuSans-Bold-72" x="881.787109"/>
       <use xlink:href="#DejaVuSans-Bold-61" x="931.103516"/>
       <use xlink:href="#DejaVuSans-Bold-20" x="998.583984"/>
       <use xlink:href="#DejaVuSans-Bold-4e" x="1033.398438"/>
       <use xlink:href="#DejaVuSans-Bold-6f" x="1117.089844"/>
       <use xlink:href="#DejaVuSans-Bold-72" x="1185.791016"/>
       <use xlink:href="#DejaVuSans-Bold-6d" x="1235.107422"/>
      </g>
     </g>
    </g>
    <g id="ytick_6">
     <g id="line2d_22">
      <g>
       <use xlink:href="#m8158a9462c" x="161.655" y="299.697563" style="fill: #94a3b8; stroke: #94a3b8; stroke-width: 0.8"/>
      </g>
     </g>
     <g id="text_15">
      <!-- Avg Lap Time Practice -->
      <g style="fill: #cbd5e1" transform="translate(17.062187 303.876703) scale(0.11 -0.11)">
       <defs>
        <path id="DejaVuSans-Bold-76" d="M 97 3500 
L 1216 3500 
L 2088 1081 
L 2956 3500 
L 4078 3500 
L 2700 0 
L 1472 0 
L 97 3500 
z
" transform="scale(0.015625)"/>
        <path id="DejaVuSans-Bold-67" d="M 2919 594 
Q 2688 288 2409 144 
Q 2131 0 1766 0 
Q 1125 0 706 504 
Q 288 1009 288 1791 
Q 288 2575 706 3076 
Q 1125 3578 1766 3578 
Q 2131 3578 2409 3434 
Q 2688 3291 2919 2981 
L 2919 3500 
L 4044 3500 
L 4044 353 
Q 4044 -491 3511 -936 
Q 2978 -1381 1966 -1381 
Q 1638 -1381 1331 -1331 
Q 1025 -1281 716 -1178 
L 716 -306 
Q 1009 -475 1290 -558 
Q 1572 -641 1856 -641 
Q 2406 -641 2662 -400 
Q 2919 -159 2919 353 
L 2919 594 
z
M 2181 2772 
Q 1834 2772 1640 2515 
Q 1447 2259 1447 1791 
Q 1447 1309 1634 1061 
Q 1822 813 2181 813 
Q 2531 813 2725 1069 
Q 2919 1325 2919 1791 
Q 2919 2259 2725 2515 
Q 2531 2772 2181 2772 
z
" transform="scale(0.015625)"/>
        <path id="DejaVuSans-Bold-4c" d="M 588 4666 
L 1791 4666 
L 1791 909 
L 3903 909 
L 3903 0 
L 588 0 
L 588 4666 
z
" transform="scale(0.015625)"/>
       </defs>
       <use xlink:href="#DejaVuSans-Bold-41"/>
       <use xlink:href="#DejaVuSans-Bold-76" x="73.767578"/>
       <use xlink:href="#DejaVuSans-Bold-67" x="138.953125"/>
       <use xlink:href="#DejaVuSans-Bold-20" x="210.535156"/>
       <use xlink:href="#DejaVuSans-Bold-4c" x="245.349609"/>
       <use xlink:href="#DejaVuSans-Bold-61" x="309.070312"/>
       <use xlink:href="#DejaVuSans-Bold-70" x="376.550781"/>
       <use xlink:href="#DejaVuSans-Bold-20" x="448.132812"/>
       <use xlink:href="#DejaVuSans-Bold-54" x="482.947266"/>
       <use xlink:href="#DejaVuSans-Bold-69" x="551.160156"/>
       <use xlink:href="#DejaVuSans-Bold-6d" x="585.4375"/>
       <use xlink:href="#DejaVuSans-Bold-65" x="689.636719"/>
       <use xlink:href="#DejaVuSans-Bold-20" x="757.458984"/>
       <use xlink:href="#DejaVuSans-Bold-50" x="792.273438"/>
       <use xlink:href="#DejaVuSans-Bold-72" x="865.564453"/>
       <use xlink:href="#DejaVuSans-Bold-61" x="914.880859"/>
       <use xlink:href="#DejaVuSans-Bold-63" x="982.361328"/>
       <use xlink:href="#DejaVuSans-Bold-74" x="1041.638672"/>
       <use xlink:href="#DejaVuSans-Bold-69" x="1089.441406"/>
       <use xlink:href="#DejaVuSans-Bold-63" x="1123.71875"/>
       <use xlink:href="#DejaVuSans-Bold-65" x="1182.996094"/>
      </g>
     </g>
    </g>
    <g id="ytick_7">
     <g id="line2d_23">
      <g>
       <use xlink:href="#m8158a9462c" x="161.655" y="261.857437" style="fill: #94a3b8; stroke: #94a3b8; stroke-width: 0.8"/>
      </g>
     </g>
     <g id="text_16">
      <!-- Championship Standing -->
      <g style="fill: #cbd5e1" transform="translate(7.2 266.036578) scale(0.11 -0.11)">
       <defs>
        <path id="DejaVuSans-Bold-43" d="M 4288 256 
Q 3956 84 3597 -3 
Q 3238 -91 2847 -91 
Q 1681 -91 1000 561 
Q 319 1213 319 2328 
Q 319 3447 1000 4098 
Q 1681 4750 2847 4750 
Q 3238 4750 3597 4662 
Q 3956 4575 4288 4403 
L 4288 3438 
Q 3953 3666 3628 3772 
Q 3303 3878 2944 3878 
Q 2300 3878 1931 3465 
Q 1563 3053 1563 2328 
Q 1563 1606 1931 1193 
Q 2300 781 2944 781 
Q 3303 781 3628 887 
Q 3953 994 4288 1222 
L 4288 256 
z
" transform="scale(0.015625)"/>
        <path id="DejaVuSans-Bold-68" d="M 4056 2131 
L 4056 0 
L 2931 0 
L 2931 347 
L 2931 1625 
Q 2931 2084 2911 2256 
Q 2891 2428 2841 2509 
Q 2775 2619 2662 2680 
Q 2550 2741 2406 2741 
Q 2056 2741 1856 2470 
Q 1656 2200 1656 1722 
L 1656 0 
L 538 0 
L 538 4863 
L 1656 4863 
L 1656 2988 
Q 1909 3294 2193 3439 
Q 2478 3584 2822 3584 
Q 3428 3584 3742 3212 
Q 4056 2841 4056 2131 
z
" transform="scale(0.015625)"/>
        <path id="DejaVuSans-Bold-73" d="M 3272 3391 
L 3272 2541 
Q 2913 2691 2578 2766 
Q 2244 2841 1947 2841 
Q 1628 2841 1473 2761 
Q 1319 2681 1319 2516 
Q 1319 2381 1436 2309 
Q 1553 2238 1856 2203 
L 2053 2175 
Q 2913 2066 3209 1816 
Q 3506 1566 3506 1031 
Q 3506 472 3093 190 
Q 2681 -91 1863 -91 
Q 1516 -91 1145 -36 
Q 775 19 384 128 
L 384 978 
Q 719 816 1070 734 
Q 1422 653 1784 653 
Q 2113 653 2278 743 
Q 2444 834 2444 1013 
Q 2444 1163 2330 1236 
Q 2216 1309 1875 1350 
L 1678 1375 
Q 931 1469 631 1722 
Q 331 1975 331 2491 
Q 331 3047 712 3315 
Q 1094 3584 1881 3584 
Q 2191 3584 2531 3537 
Q 2872 3491 3272 3391 
z
" transform="scale(0.015625)"/>
       </defs>
       <use xlink:href="#DejaVuSans-Bold-43"/>
       <use xlink:href="#DejaVuSans-Bold-68" x="73.388672"/>
       <use xlink:href="#DejaVuSans-Bold-61" x="144.580078"/>
       <use xlink:href="#DejaVuSans-Bold-6d" x="212.060547"/>
       <use xlink:href="#DejaVuSans-Bold-70" x="316.259766"/>
       <use xlink:href="#DejaVuSans-Bold-69" x="387.841797"/>
       <use xlink:href="#DejaVuSans-Bold-6f" x="422.119141"/>
       <use xlink:href="#DejaVuSans-Bold-6e" x="490.820312"/>
       <use xlink:href="#DejaVuSans-Bold-73" x="562.011719"/>
       <use xlink:href="#DejaVuSans-Bold-68" x="621.533203"/>
       <use xlink:href="#DejaVuSans-Bold-69" x="692.724609"/>
       <use xlink:href="#DejaVuSans-Bold-70" x="727.001953"/>
       <use xlink:href="#DejaVuSans-Bold-20" x="798.583984"/>
       <use xlink:href="#DejaVuSans-Bold-53" x="833.398438"/>
       <use xlink:href="#DejaVuSans-Bold-74" x="905.419922"/>
       <use xlink:href="#DejaVuSans-Bold-61" x="953.222656"/>
       <use xlink:href="#DejaVuSans-Bold-6e" x="1020.703125"/>
       <use xlink:href="#DejaVuSans-Bold-64" x="1091.894531"/>
       <use xlink:href="#DejaVuSans-Bold-69" x="1163.476562"/>
       <use xlink:href="#DejaVuSans-Bold-6e" x="1197.753906"/>
       <use xlink:href="#DejaVuSans-Bold-67" x="1268.945312"/>
      </g>
     </g>
    </g>
    <g id="ytick_8">
     <g id="line2d_24">
      <g>
       <use xlink:href="#m8158a9462c" x="161.655" y="224.017312" style="fill: #94a3b8; stroke: #94a3b8; stroke-width: 0.8"/>
      </g>
     </g>
     <g id="text_17">
      <!-- Team -->
      <g style="fill: #cbd5e1" transform="translate(122.261719 228.196453) scale(0.11 -0.11)">
       <use xlink:href="#DejaVuSans-Bold-54"/>
       <use xlink:href="#DejaVuSans-Bold-65" x="54.962891"/>
       <use xlink:href="#DejaVuSans-Bold-61" x="122.785156"/>
       <use xlink:href="#DejaVuSans-Bold-6d" x="190.265625"/>
      </g>
     </g>
    </g>
    <g id="ytick_9">
     <g id="line2d_25">
      <g>
       <use xlink:href="#m8158a9462c" x="161.655" y="186.177187" style="fill: #94a3b8; stroke: #94a3b8; stroke-width: 0.8"/>
      </g>
     </g>
     <g id="text_18">
      <!-- Pole Conversion Rate -->
      <g style="fill: #cbd5e1" transform="translate(22.309531 190.356327) scale(0.11 -0.11)">
       <defs>
        <path id="DejaVuSans-Bold-52" d="M 2297 2597 
Q 2675 2597 2839 2737 
Q 3003 2878 3003 3200 
Q 3003 3519 2839 3656 
Q 2675 3794 2297 3794 
L 1791 3794 
L 1791 2597 
L 2297 2597 
z
M 1791 1766 
L 1791 0 
L 588 0 
L 588 4666 
L 2425 4666 
Q 3347 4666 3776 4356 
Q 4206 4047 4206 3378 
Q 4206 2916 3982 2619 
Q 3759 2322 3309 2181 
Q 3556 2125 3751 1926 
Q 3947 1728 4147 1325 
L 4800 0 
L 3519 0 
L 2950 1159 
Q 2778 1509 2601 1637 
Q 2425 1766 2131 1766 
L 1791 1766 
z
" transform="scale(0.015625)"/>
       </defs>
       <use xlink:href="#DejaVuSans-Bold-50"/>
       <use xlink:href="#DejaVuSans-Bold-6f" x="73.291016"/>
       <use xlink:href="#DejaVuSans-Bold-6c" x="141.992188"/>
       <use xlink:href="#DejaVuSans-Bold-65" x="176.269531"/>
       <use xlink:href="#DejaVuSans-Bold-20" x="244.091797"/>
       <use xlink:href="#DejaVuSans-Bold-43" x="278.90625"/>
       <use xlink:href="#DejaVuSans-Bold-6f" x="352.294922"/>
       <use xlink:href="#DejaVuSans-Bold-6e" x="420.996094"/>
       <use xlink:href="#DejaVuSans-Bold-76" x="492.1875"/>
       <use xlink:href="#DejaVuSans-Bold-65" x="557.373047"/>
       <use xlink:href="#DejaVuSans-Bold-72" x="625.195312"/>
       <use xlink:href="#DejaVuSans-Bold-73" x="674.511719"/>
       <use xlink:href="#DejaVuSans-Bold-69" x="734.033203"/>
       <use xlink:href="#DejaVuSans-Bold-6f" x="768.310547"/>
       <use xlink:href="#DejaVuSans-Bold-6e" x="837.011719"/>
       <use xlink:href="#DejaVuSans-Bold-20" x="908.203125"/>
       <use xlink:href="#DejaVuSans-Bold-52" x="943.017578"/>
       <use xlink:href="#DejaVuSans-Bold-61" x="1020.019531"/>
       <use xlink:href="#DejaVuSans-Bold-74" x="1087.5"/>
       <use xlink:href="#DejaVuSans-Bold-65" x="1135.302734"/>
      </g>
     </g>
    </g>
    <g id="ytick_10">
     <g id="line2d_26">
      <g>
       <use xlink:href="#m8158a9462c" x="161.655" y="148.337061" style="fill: #94a3b8; stroke: #94a3b8; stroke-width: 0.8"/>
      </g>
     </g>
     <g id="text_19">
      <!-- Driver Form Last3 -->
      <g style="fill: #cbd5e1" transform="translate(43.204375 152.516202) scale(0.11 -0.11)">
       <defs>
        <path id="DejaVuSans-Bold-44" d="M 1791 3756 
L 1791 909 
L 2222 909 
Q 2959 909 3348 1275 
Q 3738 1641 3738 2338 
Q 3738 3031 3350 3393 
Q 2963 3756 2222 3756 
L 1791 3756 
z
M 588 4666 
L 1856 4666 
Q 2919 4666 3439 4514 
Q 3959 4363 4331 4000 
Q 4659 3684 4818 3271 
Q 4978 2859 4978 2338 
Q 4978 1809 4818 1395 
Q 4659 981 4331 666 
Q 3956 303 3431 151 
Q 2906 0 1856 0 
L 588 0 
L 588 4666 
z
" transform="scale(0.015625)"/>
        <path id="DejaVuSans-Bold-46" d="M 588 4666 
L 3834 4666 
L 3834 3756 
L 1791 3756 
L 1791 2888 
L 3713 2888 
L 3713 1978 
L 1791 1978 
L 1791 0 
L 588 0 
L 588 4666 
z
" transform="scale(0.015625)"/>
       </defs>
       <use xlink:href="#DejaVuSans-Bold-44"/>
       <use xlink:href="#DejaVuSans-Bold-72" x="83.007812"/>
       <use xlink:href="#DejaVuSans-Bold-69" x="132.324219"/>
       <use xlink:href="#DejaVuSans-Bold-76" x="166.601562"/>
       <use xlink:href="#DejaVuSans-Bold-65" x="231.787109"/>
       <use xlink:href="#DejaVuSans-Bold-72" x="299.609375"/>
       <use xlink:href="#DejaVuSans-Bold-20" x="348.925781"/>
       <use xlink:href="#DejaVuSans-Bold-46" x="383.740234"/>
       <use xlink:href="#DejaVuSans-Bold-6f" x="448.050781"/>
       <use xlink:href="#DejaVuSans-Bold-72" x="516.751953"/>
       <use xlink:href="#DejaVuSans-Bold-6d" x="566.068359"/>
       <use xlink:href="#DejaVuSans-Bold-20" x="670.267578"/>
       <use xlink:href="#DejaVuSans-Bold-4c" x="705.082031"/>
       <use xlink:href="#DejaVuSans-Bold-61" x="768.802734"/>
       <use xlink:href="#DejaVuSans-Bold-73" x="836.283203"/>
       <use xlink:href="#DejaVuSans-Bold-74" x="895.804688"/>
       <use xlink:href="#DejaVuSans-Bold-33" x="943.607422"/>
      </g>
     </g>
    </g>
    <g id="ytick_11">
     <g id="line2d_27">
      <g>
       <use xlink:href="#m8158a9462c" x="161.655" y="110.496936" style="fill: #94a3b8; stroke: #94a3b8; stroke-width: 0.8"/>
      </g>
     </g>
     <g id="text_20">
      <!-- Career Race Starts -->
      <g style="fill: #cbd5e1" transform="translate(38.022344 114.676076) scale(0.11 -0.11)">
       <use xlink:href="#DejaVuSans-Bold-43"/>
       <use xlink:href="#DejaVuSans-Bold-61" x="73.388672"/>
       <use xlink:href="#DejaVuSans-Bold-72" x="140.869141"/>
       <use xlink:href="#DejaVuSans-Bold-65" x="190.185547"/>
       <use xlink:href="#DejaVuSans-Bold-65" x="258.007812"/>
       <use xlink:href="#DejaVuSans-Bold-72" x="325.830078"/>
       <use xlink:href="#DejaVuSans-Bold-20" x="375.146484"/>
       <use xlink:href="#DejaVuSans-Bold-52" x="409.960938"/>
       <use xlink:href="#DejaVuSans-Bold-61" x="486.962891"/>
       <use xlink:href="#DejaVuSans-Bold-63" x="554.443359"/>
       <use xlink:href="#DejaVuSans-Bold-65" x="613.720703"/>
       <use xlink:href="#DejaVuSans-Bold-20" x="681.542969"/>
       <use xlink:href="#DejaVuSans-Bold-53" x="716.357422"/>
       <use xlink:href="#DejaVuSans-Bold-74" x="788.378906"/>
       <use xlink:href="#DejaVuSans-Bold-61" x="836.181641"/>
       <use xlink:href="#DejaVuSans-Bold-72" x="903.662109"/>
       <use xlink:href="#DejaVuSans-Bold-74" x="952.978516"/>
       <use xlink:href="#DejaVuSans-Bold-73" x="1000.78125"/>
      </g>
     </g>
    </g>
    <g id="ytick_12">
     <g id="line2d_28">
      <g>
       <use xlink:href="#m8158a9462c" x="161.655" y="72.65681" style="fill: #94a3b8; stroke: #94a3b8; stroke-width: 0.8"/>
      </g>
     </g>
     <g id="text_21">
      <!-- Grid Position -->
      <g style="fill: #cbd5e1" transform="translate(74.373906 76.835951) scale(0.11 -0.11)">
       <defs>
        <path id="DejaVuSans-Bold-47" d="M 4781 347 
Q 4331 128 3847 18 
Q 3363 -91 2847 -91 
Q 1681 -91 1000 561 
Q 319 1213 319 2328 
Q 319 3456 1012 4103 
Q 1706 4750 2913 4750 
Q 3378 4750 3804 4662 
Q 4231 4575 4609 4403 
L 4609 3438 
Q 4219 3659 3833 3768 
Q 3447 3878 3059 3878 
Q 2341 3878 1952 3476 
Q 1563 3075 1563 2328 
Q 1563 1588 1938 1184 
Q 2313 781 3003 781 
Q 3191 781 3352 804 
Q 3513 828 3641 878 
L 3641 1784 
L 2906 1784 
L 2906 2591 
L 4781 2591 
L 4781 347 
z
" transform="scale(0.015625)"/>
       </defs>
       <use xlink:href="#DejaVuSans-Bold-47"/>
       <use xlink:href="#DejaVuSans-Bold-72" x="82.080078"/>
       <use xlink:href="#DejaVuSans-Bold-69" x="131.396484"/>
       <use xlink:href="#DejaVuSans-Bold-64" x="165.673828"/>
       <use xlink:href="#DejaVuSans-Bold-20" x="237.255859"/>
       <use xlink:href="#DejaVuSans-Bold-50" x="272.070312"/>
       <use xlink:href="#DejaVuSans-Bold-6f" x="345.361328"/>
       <use xlink:href="#DejaVuSans-Bold-73" x="414.0625"/>
       <use xlink:href="#DejaVuSans-Bold-69" x="473.583984"/>
       <use xlink:href="#DejaVuSans-Bold-74" x="507.861328"/>
       <use xlink:href="#DejaVuSans-Bold-69" x="555.664062"/>
       <use xlink:href="#DejaVuSans-Bold-6f" x="589.941406"/>
       <use xlink:href="#DejaVuSans-Bold-6e" x="658.642578"/>
      </g>
     </g>
    </g>
   </g>
   <g id="patch_15">
    <path d="M 161.655 522.1975 
L 161.655 39.3575 
" style="fill: none; stroke: #334155; stroke-width: 0.8; stroke-linejoin: miter; stroke-linecap: square"/>
   </g>
   <g id="patch_16">
    <path d="M 161.655 522.1975 
L 687.647857 522.1975 
" style="fill: none; stroke: #334155; stroke-width: 0.8; stroke-linejoin: miter; stroke-linecap: square"/>
   </g>
   <g id="text_22">
    <!-- 0.078 -->
    <g style="fill: #00f0ff" transform="translate(199.911656 491.933502) scale(0.11 -0.11)">
     <defs>
      <path id="DejaVuSans-Bold-30" d="M 2944 2338 
Q 2944 3213 2780 3570 
Q 2616 3928 2228 3928 
Q 1841 3928 1675 3570 
Q 1509 3213 1509 2338 
Q 1509 1453 1675 1090 
Q 1841 728 2228 728 
Q 2613 728 2778 1090 
Q 2944 1453 2944 2338 
z
M 4147 2328 
Q 4147 1169 3647 539 
Q 3147 -91 2228 -91 
Q 1306 -91 806 539 
Q 306 1169 306 2328 
Q 306 3491 806 4120 
Q 1306 4750 2228 4750 
Q 3147 4750 3647 4120 
Q 4147 3491 4147 2328 
z
" transform="scale(0.015625)"/>
      <path id="DejaVuSans-Bold-2e" d="M 653 1209 
L 1778 1209 
L 1778 0 
L 653 0 
L 653 1209 
z
" transform="scale(0.015625)"/>
      <path id="DejaVuSans-Bold-37" d="M 428 4666 
L 3944 4666 
L 3944 3988 
L 2125 0 
L 953 0 
L 2675 3781 
L 428 3781 
L 428 4666 
z
" transform="scale(0.015625)"/>
      <path id="DejaVuSans-Bold-38" d="M 2228 2088 
Q 1891 2088 1709 1903 
Q 1528 1719 1528 1375 
Q 1528 1031 1709 848 
Q 1891 666 2228 666 
Q 2563 666 2741 848 
Q 2919 1031 2919 1375 
Q 2919 1722 2741 1905 
Q 2563 2088 2228 2088 
z
M 1350 2484 
Q 925 2613 709 2878 
Q 494 3144 494 3541 
Q 494 4131 934 4440 
Q 1375 4750 2228 4750 
Q 3075 4750 3515 4442 
Q 3956 4134 3956 3541 
Q 3956 3144 3739 2878 
Q 3522 2613 3097 2484 
Q 3572 2353 3814 2058 
Q 4056 1763 4056 1313 
Q 4056 619 3595 264 
Q 3134 -91 2228 -91 
Q 1319 -91 855 264 
Q 391 619 391 1313 
Q 391 1763 633 2058 
Q 875 2353 1350 2484 
z
M 1631 3419 
Q 1631 3141 1786 2991 
Q 1941 2841 2228 2841 
Q 2509 2841 2662 2991 
Q 2816 3141 2816 3419 
Q 2816 3697 2662 3845 
Q 2509 3994 2228 3994 
Q 1941 3994 1786 3844 
Q 1631 3694 1631 3419 
z
" transform="scale(0.015625)"/>
     </defs>
     <use xlink:href="#DejaVuSans-Bold-30"/>
     <use xlink:href="#DejaVuSans-Bold-2e" x="69.580078"/>
     <use xlink:href="#DejaVuSans-Bold-30" x="107.568359"/>
     <use xlink:href="#DejaVuSans-Bold-37" x="177.148438"/>
     <use xlink:href="#DejaVuSans-Bold-38" x="246.728516"/>
    </g>
   </g>
   <g id="text_23">
    <!-- 0.096 -->
    <g style="fill: #00f0ff" transform="translate(206.365247 454.093377) scale(0.11 -0.11)">
     <defs>
      <path id="DejaVuSans-Bold-39" d="M 641 103 
L 641 966 
Q 928 831 1190 764 
Q 1453 697 1709 697 
Q 2247 697 2547 995 
Q 2847 1294 2900 1881 
Q 2688 1725 2447 1647 
Q 2206 1569 1925 1569 
Q 1209 1569 770 1986 
Q 331 2403 331 3084 
Q 331 3838 820 4291 
Q 1309 4744 2131 4744 
Q 3044 4744 3544 4128 
Q 4044 3513 4044 2388 
Q 4044 1231 3459 570 
Q 2875 -91 1856 -91 
Q 1528 -91 1228 -42 
Q 928 6 641 103 
z
M 2125 2350 
Q 2441 2350 2600 2554 
Q 2759 2759 2759 3169 
Q 2759 3575 2600 3781 
Q 2441 3988 2125 3988 
Q 1809 3988 1650 3781 
Q 1491 3575 1491 3169 
Q 1491 2759 1650 2554 
Q 1809 2350 2125 2350 
z
" transform="scale(0.015625)"/>
      <path id="DejaVuSans-Bold-36" d="M 2316 2303 
Q 2000 2303 1842 2098 
Q 1684 1894 1684 1484 
Q 1684 1075 1842 870 
Q 2000 666 2316 666 
Q 2634 666 2792 870 
Q 2950 1075 2950 1484 
Q 2950 1894 2792 2098 
Q 2634 2303 2316 2303 
z
M 3803 4544 
L 3803 3681 
Q 3506 3822 3243 3889 
Q 2981 3956 2731 3956 
Q 2194 3956 1894 3657 
Q 1594 3359 1544 2772 
Q 1750 2925 1990 3001 
Q 2231 3078 2516 3078 
Q 3231 3078 3670 2659 
Q 4109 2241 4109 1563 
Q 4109 813 3618 361 
Q 3128 -91 2303 -91 
Q 1394 -91 895 523 
Q 397 1138 397 2266 
Q 397 3422 980 4083 
Q 1563 4744 2578 4744 
Q 2900 4744 3203 4694 
Q 3506 4644 3803 4544 
z
" transform="scale(0.015625)"/>
     </defs>
     <use xlink:href="#DejaVuSans-Bold-30"/>
     <use xlink:href="#DejaVuSans-Bold-2e" x="69.580078"/>
     <use xlink:href="#DejaVuSans-Bold-30" x="107.568359"/>
     <use xlink:href="#DejaVuSans-Bold-39" x="177.148438"/>
     <use xlink:href="#DejaVuSans-Bold-36" x="246.728516"/>
    </g>
   </g>
   <g id="text_24">
    <!-- 0.105 -->
    <g style="fill: #00f0ff" transform="translate(209.625004 416.253251) scale(0.11 -0.11)">
     <defs>
      <path id="DejaVuSans-Bold-35" d="M 678 4666 
L 3669 4666 
L 3669 3781 
L 1638 3781 
L 1638 3059 
Q 1775 3097 1914 3117 
Q 2053 3138 2203 3138 
Q 3056 3138 3531 2711 
Q 4006 2284 4006 1522 
Q 4006 766 3489 337 
Q 2972 -91 2053 -91 
Q 1656 -91 1267 -14 
Q 878 63 494 219 
L 494 1166 
Q 875 947 1217 837 
Q 1559 728 1863 728 
Q 2300 728 2551 942 
Q 2803 1156 2803 1522 
Q 2803 1891 2551 2103 
Q 2300 2316 1863 2316 
Q 1603 2316 1309 2248 
Q 1016 2181 678 2041 
L 678 4666 
z
" transform="scale(0.015625)"/>
     </defs>
     <use xlink:href="#DejaVuSans-Bold-30"/>
     <use xlink:href="#DejaVuSans-Bold-2e" x="69.580078"/>
     <use xlink:href="#DejaVuSans-Bold-31" x="107.568359"/>
     <use xlink:href="#DejaVuSans-Bold-30" x="177.148438"/>
     <use xlink:href="#DejaVuSans-Bold-35" x="246.728516"/>
    </g>
   </g>
   <g id="text_25">
    <!-- 0.107 -->
    <g style="fill: #00f0ff" transform="translate(210.608249 378.413126) scale(0.11 -0.11)">
     <use xlink:href="#DejaVuSans-Bold-30"/>
     <use xlink:href="#DejaVuSans-Bold-2e" x="69.580078"/>
     <use xlink:href="#DejaVuSans-Bold-31" x="107.568359"/>
     <use xlink:href="#DejaVuSans-Bold-30" x="177.148438"/>
     <use xlink:href="#DejaVuSans-Bold-37" x="246.728516"/>
    </g>
   </g>
   <g id="text_26">
    <!-- 0.148 -->
    <g style="fill: #00f0ff" transform="translate(225.443703 340.573001) scale(0.11 -0.11)">
     <defs>
      <path id="DejaVuSans-Bold-34" d="M 2356 3675 
L 1038 1722 
L 2356 1722 
L 2356 3675 
z
M 2156 4666 
L 3494 4666 
L 3494 1722 
L 4159 1722 
L 4159 850 
L 3494 850 
L 3494 0 
L 2356 0 
L 2356 850 
L 288 850 
L 288 1881 
L 2156 4666 
z
" transform="scale(0.015625)"/>
     </defs>
     <use xlink:href="#DejaVuSans-Bold-30"/>
     <use xlink:href="#DejaVuSans-Bold-2e" x="69.580078"/>
     <use xlink:href="#DejaVuSans-Bold-31" x="107.568359"/>
     <use xlink:href="#DejaVuSans-Bold-34" x="177.148438"/>
     <use xlink:href="#DejaVuSans-Bold-38" x="246.728516"/>
    </g>
   </g>
   <g id="text_27">
    <!-- 0.148 -->
    <g style="fill: #00f0ff" transform="translate(225.537432 302.732875) scale(0.11 -0.11)">
     <use xlink:href="#DejaVuSans-Bold-30"/>
     <use xlink:href="#DejaVuSans-Bold-2e" x="69.580078"/>
     <use xlink:href="#DejaVuSans-Bold-31" x="107.568359"/>
     <use xlink:href="#DejaVuSans-Bold-34" x="177.148438"/>
     <use xlink:href="#DejaVuSans-Bold-38" x="246.728516"/>
    </g>
   </g>
   <g id="text_28">
    <!-- 0.287 -->
    <g style="fill: #00f0ff" transform="translate(275.620859 264.89275) scale(0.11 -0.11)">
     <use xlink:href="#DejaVuSans-Bold-30"/>
     <use xlink:href="#DejaVuSans-Bold-2e" x="69.580078"/>
     <use xlink:href="#DejaVuSans-Bold-32" x="107.568359"/>
     <use xlink:href="#DejaVuSans-Bold-38" x="177.148438"/>
     <use xlink:href="#DejaVuSans-Bold-37" x="246.728516"/>
    </g>
   </g>
   <g id="text_29">
    <!-- 0.419 -->
    <g style="fill: #00f0ff" transform="translate(323.709974 227.052624) scale(0.11 -0.11)">
     <use xlink:href="#DejaVuSans-Bold-30"/>
     <use xlink:href="#DejaVuSans-Bold-2e" x="69.580078"/>
     <use xlink:href="#DejaVuSans-Bold-34" x="107.568359"/>
     <use xlink:href="#DejaVuSans-Bold-31" x="177.148438"/>
     <use xlink:href="#DejaVuSans-Bold-39" x="246.728516"/>
    </g>
   </g>
   <g id="text_30">
    <!-- 0.440 -->
    <g style="fill: #00f0ff" transform="translate(331.247976 189.212499) scale(0.11 -0.11)">
     <use xlink:href="#DejaVuSans-Bold-30"/>
     <use xlink:href="#DejaVuSans-Bold-2e" x="69.580078"/>
     <use xlink:href="#DejaVuSans-Bold-34" x="107.568359"/>
     <use xlink:href="#DejaVuSans-Bold-34" x="177.148438"/>
     <use xlink:href="#DejaVuSans-Bold-30" x="246.728516"/>
    </g>
   </g>
   <g id="text_31">
    <!-- 0.558 -->
    <g style="fill: #00f0ff" transform="translate(374.221998 151.372374) scale(0.11 -0.11)">
     <use xlink:href="#DejaVuSans-Bold-30"/>
     <use xlink:href="#DejaVuSans-Bold-2e" x="69.580078"/>
     <use xlink:href="#DejaVuSans-Bold-35" x="107.568359"/>
     <use xlink:href="#DejaVuSans-Bold-35" x="177.148438"/>
     <use xlink:href="#DejaVuSans-Bold-38" x="246.728516"/>
    </g>
   </g>
   <g id="text_32">
    <!-- 0.798 -->
    <g style="fill: #00f0ff" transform="translate(461.148482 113.532248) scale(0.11 -0.11)">
     <use xlink:href="#DejaVuSans-Bold-30"/>
     <use xlink:href="#DejaVuSans-Bold-2e" x="69.580078"/>
     <use xlink:href="#DejaVuSans-Bold-37" x="107.568359"/>
     <use xlink:href="#DejaVuSans-Bold-39" x="177.148438"/>
     <use xlink:href="#DejaVuSans-Bold-38" x="246.728516"/>
    </g>
   </g>
   <g id="text_33">
    <!-- 1.381 -->
    <g style="fill: #00f0ff" transform="translate(672.61949 75.692123) scale(0.11 -0.11)">
     <use xlink:href="#DejaVuSans-Bold-31"/>
     <use xlink:href="#DejaVuSans-Bold-2e" x="69.580078"/>
     <use xlink:href="#DejaVuSans-Bold-33" x="107.568359"/>
     <use xlink:href="#DejaVuSans-Bold-38" x="177.148438"/>
     <use xlink:href="#DejaVuSans-Bold-31" x="246.728516"/>
    </g>
   </g>
   <g id="text_34">
    <!-- Global Feature Importance -->
    <g style="fill: #f8fafc" transform="translate(303.982679 19.3575) scale(0.16 -0.16)">
     <defs>
      <path id="DejaVuSans-Bold-62" d="M 2400 722 
Q 2759 722 2948 984 
Q 3138 1247 3138 1747 
Q 3138 2247 2948 2509 
Q 2759 2772 2400 2772 
Q 2041 2772 1848 2508 
Q 1656 2244 1656 1747 
Q 1656 1250 1848 986 
Q 2041 722 2400 722 
z
M 1656 2988 
Q 1888 3294 2169 3439 
Q 2450 3584 2816 3584 
Q 3463 3584 3878 3070 
Q 4294 2556 4294 1747 
Q 4294 938 3878 423 
Q 3463 -91 2816 -91 
Q 2450 -91 2169 54 
Q 1888 200 1656 506 
L 1656 0 
L 538 0 
L 538 4863 
L 1656 4863 
L 1656 2988 
z
" transform="scale(0.015625)"/>
     </defs>
     <use xlink:href="#DejaVuSans-Bold-47"/>
     <use xlink:href="#DejaVuSans-Bold-6c" x="82.080078"/>
     <use xlink:href="#DejaVuSans-Bold-6f" x="116.357422"/>
     <use xlink:href="#DejaVuSans-Bold-62" x="185.058594"/>
     <use xlink:href="#DejaVuSans-Bold-61" x="256.640625"/>
     <use xlink:href="#DejaVuSans-Bold-6c" x="324.121094"/>
     <use xlink:href="#DejaVuSans-Bold-20" x="358.398438"/>
     <use xlink:href="#DejaVuSans-Bold-46" x="393.212891"/>
     <use xlink:href="#DejaVuSans-Bold-65" x="457.523438"/>
     <use xlink:href="#DejaVuSans-Bold-61" x="525.345703"/>
     <use xlink:href="#DejaVuSans-Bold-74" x="592.826172"/>
     <use xlink:href="#DejaVuSans-Bold-75" x="640.628906"/>
     <use xlink:href="#DejaVuSans-Bold-72" x="711.820312"/>
     <use xlink:href="#DejaVuSans-Bold-65" x="761.136719"/>
     <use xlink:href="#DejaVuSans-Bold-20" x="828.958984"/>
     <use xlink:href="#DejaVuSans-Bold-49" x="863.773438"/>
     <use xlink:href="#DejaVuSans-Bold-6d" x="900.980469"/>
     <use xlink:href="#DejaVuSans-Bold-70" x="1005.179688"/>
     <use xlink:href="#DejaVuSans-Bold-6f" x="1076.761719"/>
     <use xlink:href="#DejaVuSans-Bold-72" x="1145.462891"/>
     <use xlink:href="#DejaVuSans-Bold-74" x="1194.779297"/>
     <use xlink:href="#DejaVuSans-Bold-61" x="1242.582031"/>
     <use xlink:href="#DejaVuSans-Bold-6e" x="1310.0625"/>
     <use xlink:href="#DejaVuSans-Bold-63" x="1381.253906"/>
     <use xlink:href="#DejaVuSans-Bold-65" x="1440.53125"/>
    </g>
   </g>
  </g>
 </g>
 <defs>
  <clipPath id="pdacf2b85d2">
   <rect x="161.655" y="39.3575" width="525.992857" height="482.84"/>
  </clipPath>
 </defs>
</svg>
