<?xml version="1.0" encoding="utf-8" standalone="no"?>
<!DOCTYPE svg PUBLIC "-//W3C//DTD SVG 1.1//EN"
  "http://www.w3.org/Graphics/SVG/1.1/DTD/svg11.dtd">
<svg xmlns:xlink="http://www.w3.org/1999/xlink" width="567.516875pt" height="423.689375pt" viewBox="0 0 567.516875 423.689375" xmlns="http://www.w3.org/2000/svg" version="1.1">
 <metadata>
  <rdf:RDF xmlns:dc="http://purl.org/dc/elements/1.1/" xmlns:cc="http://creativecommons.org/ns#" xmlns:rdf="http://www.w3.org/1999/02/22-rdf-syntax-ns#">
   <cc:Work>
    <dc:type rdf:resource="http://purl.org/dc/dcmitype/StillImage"/>
    <dc:date>2026-06-10T21:25:57.001152</dc:date>
    <dc:format>image/svg+xml</dc:format>
    <dc:creator>
     <cc:Agent>
      <dc:title>Matplotlib v3.8.3, https://matplotlib.org/</dc:title>
     </cc:Agent>
    </dc:creator>
   </cc:Work>
  </rdf:RDF>
 </metadata>
 <defs>
  <style type="text/css">*{stroke-linejoin: round; stroke-linecap: butt}</style>
 </defs>
 <g id="figure_1">
  <g id="patch_1">
   <path d="M 0 423.689375 
L 567.516875 423.689375 
L 567.516875 0 
L 0 0 
L 0 423.689375 
z
" style="fill: none"/>
  </g>
  <g id="axes_1">
   <g id="patch_2">
    <path d="M 51.716875 378.1975 
L 560.316875 378.1975 
L 560.316875 39.3575 
L 51.716875 39.3575 
L 51.716875 378.1975 
z
" style="fill: none"/>
   </g>
   <g id="PolyCollection_1">
    <defs>
     <path id="m5f84160aad" d="M 537.198693 -60.893693 
L 537.198693 -76.295511 
L 537.198693 -76.330595 
L 537.198693 -76.365839 
L 537.198693 -76.401245 
L 537.198693 -76.436812 
L 516.182164 -75.764414 
L 516.182164 -75.798679 
L 516.182164 -75.833101 
L 516.182164 -75.867683 
L 516.182164 -75.902426 
L 516.182164 -75.93733 
L 516.182164 -75.972396 
L 495.165635 -75.287916 
L 495.165635 -75.321626 
L 495.165635 -75.355494 
L 495.165635 -75.389522 
L 495.165635 -75.42371 
L 495.165635 -75.45806 
L 495.165635 -75.492573 
L 495.165635 -75.52725 
L 495.165635 -75.562091 
L 495.165635 -75.5971 
L 495.165635 -75.632275 
L 495.165635 -75.667619 
L 495.165635 -75.703134 
L 495.165635 -75.738819 
L 495.165635 -75.774677 
L 495.165635 -75.810708 
L 495.165635 -75.846915 
L 474.149106 -75.133817 
L 474.149106 -75.168549 
L 474.149106 -75.203451 
L 474.149106 -75.238524 
L 474.149106 -75.273769 
L 474.149106 -75.309188 
L 474.149106 -75.344782 
L 474.149106 -75.380552 
L 474.149106 -75.416499 
L 474.149106 -75.452626 
L 474.149106 -75.488932 
L 474.149106 -75.52542 
L 453.132577 -74.79007 
L 453.132577 -74.824986 
L 432.116049 -74.084167 
L 432.116049 -74.117476 
L 411.09952 -73.371116 
L 390.082991 -72.620966 
L 390.082991 -72.650806 
L 369.066462 -71.894992 
L 369.066462 -71.923128 
L 369.066462 -71.951409 
L 369.066462 -71.979835 
L 348.049933 -71.214499 
L 348.049933 -71.241168 
L 348.049933 -71.267975 
L 348.049933 -71.294921 
L 348.049933 -71.322008 
L 348.049933 -71.349236 
L 348.049933 -71.376606 
L 348.049933 -71.40412 
L 348.049933 -71.431779 
L 348.049933 -71.459584 
L 348.049933 -71.487536 
L 348.049933 -71.515637 
L 348.049933 -71.543887 
L 348.049933 -71.572287 
L 348.049933 -71.60084 
L 348.049933 -71.629545 
L 348.049933 -71.658405 
L 348.049933 -71.68742 
L 348.049933 -71.716592 
L 348.049933 -71.745923 
L 348.049933 -71.775413 
L 348.049933 -71.805063 
L 348.049933 -71.834875 
L 348.049933 -71.864851 
L 348.049933 -71.894992 
L 327.033404 -71.076713 
L 327.033404 -71.104843 
L 327.033404 -71.133129 
L 327.033404 -71.161572 
L 327.033404 -71.190173 
L 327.033404 -71.218934 
L 327.033404 -71.247857 
L 327.033404 -71.30619 
L 327.033404 -71.335604 
L 327.033404 -71.365184 
L 327.033404 -71.394933 
L 327.033404 -71.424851 
L 327.033404 -71.45494 
L 327.033404 -71.485201 
L 327.033404 -71.515637 
L 327.033404 -71.546248 
L 327.033404 -71.608001 
L 327.033404 -71.639148 
L 327.033404 -71.670476 
L 327.033404 -71.701987 
L 327.033404 -71.733683 
L 327.033404 -71.765565 
L 327.033404 -71.797635 
L 327.033404 -71.829895 
L 327.033404 -71.862347 
L 327.033404 -71.894992 
L 327.033404 -71.927832 
L 327.033404 -71.960868 
L 327.033404 -71.994103 
L 327.033404 -72.027538 
L 327.033404 -72.061175 
L 327.033404 -72.095015 
L 327.033404 -72.129062 
L 327.033404 -72.163316 
L 327.033404 -72.19778 
L 327.033404 -72.232455 
L 327.033404 -72.267344 
L 327.033404 -72.302447 
L 327.033404 -72.337769 
L 327.033404 -72.373309 
L 327.033404 -72.409071 
L 327.033404 -72.445057 
L 327.033404 -72.481268 
L 306.016875 -71.549039 
L 306.016875 -71.582652 
L 306.016875 -71.616478 
L 306.016875 -71.650519 
L 306.016875 -71.684776 
L 285.000346 -70.735111 
L 285.000346 -70.766654 
L 285.000346 -70.798399 
L 285.000346 -70.894874 
L 285.000346 -70.927451 
L 285.000346 -70.960241 
L 285.000346 -70.993246 
L 285.000346 -71.026468 
L 285.000346 -71.05991 
L 285.000346 -71.093573 
L 285.000346 -71.127459 
L 285.000346 -71.161572 
L 285.000346 -71.195913 
L 285.000346 -71.230484 
L 285.000346 -71.265288 
L 285.000346 -71.300327 
L 285.000346 -71.335604 
L 285.000346 -71.371121 
L 285.000346 -71.40688 
L 285.000346 -71.442884 
L 285.000346 -71.479135 
L 285.000346 -71.515637 
L 285.000346 -71.552391 
L 285.000346 -71.5894 
L 285.000346 -71.626668 
L 263.983817 -70.587145 
L 263.983817 -70.621157 
L 263.983817 -70.655409 
L 263.983817 -70.689903 
L 263.983817 -70.724641 
L 263.983817 -70.759627 
L 263.983817 -70.794862 
L 263.983817 -70.83035 
L 263.983817 -70.866093 
L 263.983817 -70.938357 
L 263.983817 -70.974883 
L 263.983817 -71.011676 
L 263.983817 -71.048738 
L 263.983817 -71.086073 
L 263.983817 -71.123683 
L 263.983817 -71.161572 
L 263.983817 -71.199743 
L 263.983817 -71.238198 
L 263.983817 -71.276941 
L 263.983817 -71.315976 
L 263.983817 -71.355306 
L 263.983817 -71.394933 
L 263.983817 -71.434862 
L 263.983817 -71.475095 
L 263.983817 -71.515637 
L 263.983817 -71.55649 
L 263.983817 -71.597659 
L 242.967288 -70.445208 
L 242.967288 -70.482374 
L 242.967288 -70.51983 
L 242.967288 -70.557579 
L 221.950759 -69.382884 
L 200.93423 -68.198903 
L 200.93423 -68.227892 
L 200.93423 -68.257112 
L 200.93423 -68.286566 
L 200.93423 -68.316256 
L 200.93423 -68.346186 
L 200.93423 -68.376358 
L 200.93423 -68.406775 
L 200.93423 -68.437441 
L 200.93423 -68.468358 
L 179.917701 -67.23189 
L 179.917701 -67.258081 
L 179.917701 -67.284489 
L 179.917701 -67.311117 
L 158.901173 -66.049113 
L 158.901173 -66.070775 
L 137.884644 -64.792888 
L 137.884644 -64.80941 
L 116.868115 -63.515279 
L 116.868115 -63.526483 
L 116.868115 -63.537782 
L 116.868115 -63.549179 
L 116.868115 -63.560675 
L 116.868115 -63.57227 
L 116.868115 -63.583967 
L 116.868115 -63.595767 
L 116.868115 -63.60767 
L 116.868115 -63.619679 
L 95.851586 -62.262744 
L 95.851586 -62.268856 
L 95.851586 -62.275022 
L 95.851586 -62.281244 
L 95.851586 -62.287523 
L 95.851586 -62.293858 
L 95.851586 -62.300252 
L 95.851586 -62.306704 
L 95.851586 -62.313216 
L 95.851586 -62.319787 
L 95.851586 -62.32642 
L 95.851586 -62.333115 
L 95.851586 -62.339873 
L 95.851586 -62.353581 
L 95.851586 -62.360533 
L 95.851586 -62.367551 
L 95.851586 -62.374637 
L 95.851586 -62.381792 
L 95.851586 -62.389015 
L 95.851586 -62.39631 
L 95.851586 -62.403675 
L 95.851586 -62.411114 
L 95.851586 -62.418626 
L 95.851586 -62.426212 
L 95.851586 -62.433875 
L 95.851586 -62.441615 
L 95.851586 -62.449432 
L 95.851586 -62.45733 
L 95.851586 -62.465307 
L 95.851586 -62.473367 
L 95.851586 -62.481509 
L 95.851586 -62.489737 
L 95.851586 -62.498049 
L 95.851586 -62.506449 
L 95.851586 -62.514937 
L 95.851586 -62.523515 
L 95.851586 -62.532184 
L 95.851586 -62.540946 
L 95.851586 -62.549803 
L 95.851586 -62.558755 
L 95.851586 -62.567804 
L 95.851586 -62.576952 
L 95.851586 -62.586201 
L 95.851586 -62.595552 
L 95.851586 -62.605006 
L 95.851586 -62.614567 
L 95.851586 -62.624235 
L 95.851586 -62.634012 
L 95.851586 -62.6439 
L 95.851586 -62.653901 
L 95.851586 -62.664017 
L 95.851586 -62.67425 
L 95.851586 -62.684602 
L 95.851586 -62.695075 
L 95.851586 -62.705672 
L 95.851586 -62.716394 
L 95.851586 -62.727243 
L 95.851586 -62.738222 
L 95.851586 -62.749334 
L 95.851586 -62.76058 
L 74.835057 -60.893693 
L 74.835057 -60.893693 
L 74.835057 -60.893693 
L 74.835057 -60.893693 
L 74.835057 -60.893693 
L 74.835057 -60.893693 
L 74.835057 -60.893693 
L 74.835057 -60.893693 
L 74.835057 -60.893693 
L 74.835057 -60.893693 
L 74.835057 -60.893693 
L 74.835057 -60.893693 
L 74.835057 -60.893693 
L 74.835057 -60.893693 
L 74.835057 -60.893693 
L 74.835057 -60.893693 
L 74.835057 -60.893693 
L 74.835057 -60.893693 
L 74.835057 -60.893693 
L 74.835057 -60.893693 
L 74.835057 -60.893693 
L 74.835057 -60.893693 
L 74.835057 -60.893693 
L 74.835057 -60.893693 
L 74.835057 -60.893693 
L 74.835057 -60.893693 
L 74.835057 -60.893693 
L 74.835057 -60.893693 
L 74.835057 -60.893693 
L 74.835057 -60.893693 
L 74.835057 -60.893693 
L 74.835057 -60.893693 
L 74.835057 -60.893693 
L 74.835057 -60.893693 
L 74.835057 -60.893693 
L 74.835057 -60.893693 
L 74.835057 -60.893693 
L 74.835057 -60.893693 
L 74.835057 -60.893693 
L 74.835057 -60.893693 
L 74.835057 -60.893693 
L 74.835057 -60.893693 
L 74.835057 -60.893693 
L 74.835057 -60.893693 
L 74.835057 -60.893693 
L 74.835057 -60.893693 
L 74.835057 -60.893693 
L 74.835057 -60.893693 
L 74.835057 -60.893693 
L 74.835057 -60.893693 
L 74.835057 -60.893693 
L 74.835057 -60.893693 
L 74.835057 -60.893693 
L 74.835057 -60.893693 
L 74.835057 -60.893693 
L 74.835057 -60.893693 
L 74.835057 -60.893693 
L 74.835057 -60.893693 
L 74.835057 -60.893693 
L 74.835057 -60.893693 
L 74.835057 -60.893693 
L 74.835057 -60.893693 
L 74.835057 -60.893693 
L 74.835057 -60.893693 
L 74.835057 -60.893693 
L 74.835057 -60.893693 
L 74.835057 -60.893693 
L 74.835057 -60.893693 
L 74.835057 -60.893693 
L 74.835057 -60.893693 
L 74.835057 -60.893693 
L 74.835057 -60.893693 
L 74.835057 -60.893693 
L 74.835057 -60.893693 
L 74.835057 -60.893693 
L 74.835057 -60.893693 
L 74.835057 -60.893693 
L 74.835057 -60.893693 
L 74.835057 -60.893693 
L 74.835057 -60.893693 
L 74.835057 -60.893693 
L 74.835057 -60.893693 
L 74.835057 -60.893693 
L 74.835057 -60.893693 
L 74.835057 -60.893693 
L 74.835057 -60.893693 
L 74.835057 -60.893693 
L 74.835057 -60.893693 
L 74.835057 -60.893693 
L 74.835057 -60.893693 
L 74.835057 -60.893693 
L 74.835057 -60.893693 
L 74.835057 -60.893693 
L 74.835057 -60.893693 
L 74.835057 -60.893693 
L 74.835057 -60.893693 
L 74.835057 -60.893693 
L 74.835057 -60.893693 
L 74.835057 -60.893693 
L 74.835057 -60.893693 
L 74.835057 -60.893693 
L 74.835057 -60.893693 
L 74.835057 -60.893693 
L 74.835057 -60.893693 
L 74.835057 -60.893693 
L 74.835057 -60.893693 
L 74.835057 -60.893693 
L 74.835057 -60.893693 
L 74.835057 -60.893693 
L 74.835057 -60.893693 
L 74.835057 -60.893693 
L 74.835057 -60.893693 
L 74.835057 -60.893693 
L 74.835057 -60.893693 
L 74.835057 -60.893693 
L 74.835057 -60.893693 
L 74.835057 -60.893693 
L 74.835057 -60.893693 
L 74.835057 -60.893693 
L 74.835057 -60.893693 
L 74.835057 -60.893693 
L 74.835057 -60.893693 
L 74.835057 -60.893693 
L 74.835057 -60.893693 
L 74.835057 -60.893693 
L 74.835057 -60.893693 
L 74.835057 -60.893693 
L 74.835057 -60.893693 
L 74.835057 -60.893693 
L 74.835057 -60.893693 
L 74.835057 -60.893693 
L 74.835057 -60.893693 
L 74.835057 -60.893693 
L 74.835057 -60.893693 
L 74.835057 -60.893693 
L 74.835057 -60.893693 
L 74.835057 -60.893693 
L 74.835057 -60.893693 
L 74.835057 -60.893693 
L 74.835057 -60.893693 
L 74.835057 -60.893693 
L 74.835057 -60.893693 
L 74.835057 -60.893693 
L 74.835057 -60.893693 
L 74.835057 -60.893693 
L 74.835057 -60.893693 
L 74.835057 -60.893693 
L 74.835057 -60.893693 
L 74.835057 -60.893693 
L 74.835057 -60.893693 
L 74.835057 -60.893693 
L 74.835057 -60.893693 
L 74.835057 -60.893693 
L 74.835057 -60.893693 
L 74.835057 -60.893693 
L 74.835057 -60.893693 
L 74.835057 -60.893693 
L 74.835057 -60.893693 
L 74.835057 -60.893693 
L 74.835057 -60.893693 
L 74.835057 -60.893693 
L 74.835057 -60.893693 
L 74.835057 -60.893693 
L 74.835057 -60.893693 
L 74.835057 -368.930057 
L 74.835057 -60.893693 
L 74.835057 -60.893693 
L 74.835057 -60.893693 
L 74.835057 -60.893693 
L 74.835057 -60.893693 
L 74.835057 -60.893693 
L 74.835057 -60.893693 
L 74.835057 -60.893693 
L 74.835057 -60.893693 
L 74.835057 -60.893693 
L 74.835057 -60.893693 
L 74.835057 -60.893693 
L 74.835057 -60.893693 
L 74.835057 -60.893693 
L 74.835057 -60.893693 
L 74.835057 -60.893693 
L 74.835057 -60.893693 
L 74.835057 -60.893693 
L 74.835057 -60.893693 
L 74.835057 -60.893693 
L 74.835057 -60.893693 
L 74.835057 -60.893693 
L 74.835057 -60.893693 
L 74.835057 -60.893693 
L 74.835057 -60.893693 
L 74.835057 -60.893693 
L 74.835057 -60.893693 
L 74.835057 -60.893693 
L 74.835057 -60.893693 
L 74.835057 -60.893693 
L 74.835057 -60.893693 
L 74.835057 -60.893693 
L 74.835057 -60.893693 
L 74.835057 -60.893693 
L 74.835057 -60.893693 
L 74.835057 -60.893693 
L 74.835057 -60.893693 
L 74.835057 -60.893693 
L 74.835057 -60.893693 
L 74.835057 -60.893693 
L 74.835057 -60.893693 
L 74.835057 -60.893693 
L 74.835057 -60.893693 
L 74.835057 -60.893693 
L 74.835057 -60.893693 
L 74.835057 -60.893693 
L 74.835057 -60.893693 
L 74.835057 -60.893693 
L 74.835057 -60.893693 
L 74.835057 -60.893693 
L 74.835057 -60.893693 
L 74.835057 -60.893693 
L 74.835057 -60.893693 
L 74.835057 -60.893693 
L 74.835057 -60.893693 
L 74.835057 -60.893693 
L 74.835057 -60.893693 
L 74.835057 -60.893693 
L 74.835057 -60.893693 
L 74.835057 -60.893693 
L 74.835057 -60.893693 
L 74.835057 -60.893693 
L 74.835057 -60.893693 
L 74.835057 -60.893693 
L 74.835057 -60.893693 
L 74.835057 -60.893693 
L 74.835057 -60.893693 
L 74.835057 -60.893693 
L 74.835057 -60.893693 
L 74.835057 -60.893693 
L 74.835057 -60.893693 
L 74.835057 -60.893693 
L 74.835057 -60.893693 
L 74.835057 -60.893693 
L 74.835057 -60.893693 
L 74.835057 -60.893693 
L 74.835057 -60.893693 
L 74.835057 -60.893693 
L 74.835057 -60.893693 
L 74.835057 -60.893693 
L 74.835057 -60.893693 
L 74.835057 -60.893693 
L 74.835057 -60.893693 
L 74.835057 -60.893693 
L 74.835057 -60.893693 
L 74.835057 -60.893693 
L 74.835057 -60.893693 
L 74.835057 -60.893693 
L 74.835057 -60.893693 
L 74.835057 -60.893693 
L 74.835057 -60.893693 
L 74.835057 -60.893693 
L 74.835057 -60.893693 
L 74.835057 -60.893693 
L 74.835057 -60.893693 
L 74.835057 -60.893693 
L 74.835057 -60.893693 
L 74.835057 -60.893693 
L 74.835057 -60.893693 
L 74.835057 -60.893693 
L 74.835057 -60.893693 
L 74.835057 -60.893693 
L 74.835057 -60.893693 
L 74.835057 -60.893693 
L 74.835057 -60.893693 
L 74.835057 -60.893693 
L 74.835057 -60.893693 
L 74.835057 -60.893693 
L 74.835057 -60.893693 
L 74.835057 -60.893693 
L 74.835057 -60.893693 
L 74.835057 -60.893693 
L 74.835057 -60.893693 
L 74.835057 -60.893693 
L 74.835057 -60.893693 
L 74.835057 -60.893693 
L 74.835057 -60.893693 
L 74.835057 -60.893693 
L 74.835057 -60.893693 
L 74.835057 -60.893693 
L 74.835057 -60.893693 
L 74.835057 -60.893693 
L 74.835057 -60.893693 
L 74.835057 -60.893693 
L 74.835057 -60.893693 
L 74.835057 -60.893693 
L 74.835057 -60.893693 
L 74.835057 -60.893693 
L 74.835057 -60.893693 
L 74.835057 -60.893693 
L 74.835057 -60.893693 
L 74.835057 -60.893693 
L 74.835057 -60.893693 
L 74.835057 -60.893693 
L 74.835057 -60.893693 
L 74.835057 -60.893693 
L 74.835057 -60.893693 
L 74.835057 -60.893693 
L 74.835057 -60.893693 
L 74.835057 -60.893693 
L 74.835057 -60.893693 
L 74.835057 -60.893693 
L 74.835057 -60.893693 
L 74.835057 -60.893693 
L 74.835057 -60.893693 
L 74.835057 -60.893693 
L 74.835057 -60.893693 
L 74.835057 -60.893693 
L 74.835057 -60.893693 
L 74.835057 -60.893693 
L 74.835057 -60.893693 
L 74.835057 -60.893693 
L 74.835057 -60.893693 
L 74.835057 -60.893693 
L 74.835057 -60.893693 
L 74.835057 -60.893693 
L 74.835057 -60.893693 
L 74.835057 -60.893693 
L 74.835057 -60.893693 
L 74.835057 -60.893693 
L 74.835057 -60.893693 
L 74.835057 -60.893693 
L 74.835057 -60.893693 
L 74.835057 -60.893693 
L 74.835057 -60.893693 
L 74.835057 -60.893693 
L 95.851586 -60.893693 
L 95.851586 -60.893693 
L 95.851586 -60.893693 
L 95.851586 -60.893693 
L 95.851586 -60.893693 
L 95.851586 -60.893693 
L 95.851586 -60.893693 
L 95.851586 -60.893693 
L 95.851586 -60.893693 
L 95.851586 -60.893693 
L 95.851586 -60.893693 
L 95.851586 -60.893693 
L 95.851586 -60.893693 
L 95.851586 -60.893693 
L 95.851586 -60.893693 
L 95.851586 -60.893693 
L 95.851586 -60.893693 
L 95.851586 -60.893693 
L 95.851586 -60.893693 
L 95.851586 -60.893693 
L 95.851586 -60.893693 
L 95.851586 -60.893693 
L 95.851586 -60.893693 
L 95.851586 -60.893693 
L 95.851586 -60.893693 
L 95.851586 -60.893693 
L 95.851586 -60.893693 
L 95.851586 -60.893693 
L 95.851586 -60.893693 
L 95.851586 -60.893693 
L 95.851586 -60.893693 
L 95.851586 -60.893693 
L 95.851586 -60.893693 
L 95.851586 -60.893693 
L 95.851586 -60.893693 
L 95.851586 -60.893693 
L 95.851586 -60.893693 
L 95.851586 -60.893693 
L 95.851586 -60.893693 
L 95.851586 -60.893693 
L 95.851586 -60.893693 
L 95.851586 -60.893693 
L 95.851586 -60.893693 
L 95.851586 -60.893693 
L 95.851586 -60.893693 
L 95.851586 -60.893693 
L 95.851586 -60.893693 
L 95.851586 -60.893693 
L 95.851586 -60.893693 
L 95.851586 -60.893693 
L 95.851586 -60.893693 
L 95.851586 -60.893693 
L 95.851586 -60.893693 
L 95.851586 -60.893693 
L 95.851586 -60.893693 
L 95.851586 -60.893693 
L 95.851586 -60.893693 
L 95.851586 -60.893693 
L 95.851586 -60.893693 
L 95.851586 -60.893693 
L 116.868115 -60.893693 
L 116.868115 -60.893693 
L 116.868115 -60.893693 
L 116.868115 -60.893693 
L 116.868115 -60.893693 
L 116.868115 -60.893693 
L 116.868115 -60.893693 
L 116.868115 -60.893693 
L 116.868115 -60.893693 
L 116.868115 -60.893693 
L 137.884644 -60.893693 
L 137.884644 -60.893693 
L 158.901173 -60.893693 
L 158.901173 -60.893693 
L 179.917701 -60.893693 
L 179.917701 -60.893693 
L 179.917701 -60.893693 
L 179.917701 -60.893693 
L 200.93423 -60.893693 
L 200.93423 -60.893693 
L 200.93423 -60.893693 
L 200.93423 -60.893693 
L 200.93423 -60.893693 
L 200.93423 -60.893693 
L 200.93423 -60.893693 
L 200.93423 -60.893693 
L 200.93423 -60.893693 
L 200.93423 -60.893693 
L 221.950759 -60.893693 
L 242.967288 -60.893693 
L 242.967288 -60.893693 
L 242.967288 -60.893693 
L 242.967288 -60.893693 
L 263.983817 -60.893693 
L 263.983817 -60.893693 
L 263.983817 -60.893693 
L 263.983817 -60.893693 
L 263.983817 -60.893693 
L 263.983817 -60.893693 
L 263.983817 -60.893693 
L 263.983817 -60.893693 
L 263.983817 -60.893693 
L 263.983817 -60.893693 
L 263.983817 -60.893693 
L 263.983817 -60.893693 
L 263.983817 -60.893693 
L 263.983817 -60.893693 
L 263.983817 -60.893693 
L 263.983817 -60.893693 
L 263.983817 -60.893693 
L 263.983817 -60.893693 
L 263.983817 -60.893693 
L 263.983817 -60.893693 
L 263.983817 -60.893693 
L 263.983817 -60.893693 
L 263.983817 -60.893693 
L 263.983817 -60.893693 
L 263.983817 -60.893693 
L 263.983817 -60.893693 
L 263.983817 -60.893693 
L 285.000346 -60.893693 
L 285.000346 -60.893693 
L 285.000346 -60.893693 
L 285.000346 -60.893693 
L 285.000346 -60.893693 
L 285.000346 -60.893693 
L 285.000346 -60.893693 
L 285.000346 -60.893693 
L 285.000346 -60.893693 
L 285.000346 -60.893693 
L 285.000346 -60.893693 
L 285.000346 -60.893693 
L 285.000346 -60.893693 
L 285.000346 -60.893693 
L 285.000346 -60.893693 
L 285.000346 -60.893693 
L 285.000346 -60.893693 
L 285.000346 -60.893693 
L 285.000346 -60.893693 
L 285.000346 -60.893693 
L 285.000346 -60.893693 
L 285.000346 -60.893693 
L 285.000346 -60.893693 
L 285.000346 -60.893693 
L 285.000346 -60.893693 
L 306.016875 -60.893693 
L 306.016875 -60.893693 
L 306.016875 -60.893693 
L 306.016875 -60.893693 
L 306.016875 -60.893693 
L 327.033404 -60.893693 
L 327.033404 -60.893693 
L 327.033404 -60.893693 
L 327.033404 -60.893693 
L 327.033404 -60.893693 
L 327.033404 -60.893693 
L 327.033404 -60.893693 
L 327.033404 -60.893693 
L 327.033404 -60.893693 
L 327.033404 -60.893693 
L 327.033404 -60.893693 
L 327.033404 -60.893693 
L 327.033404 -60.893693 
L 327.033404 -60.893693 
L 327.033404 -60.893693 
L 327.033404 -60.893693 
L 327.033404 -60.893693 
L 327.033404 -60.893693 
L 327.033404 -60.893693 
L 327.033404 -60.893693 
L 327.033404 -60.893693 
L 327.033404 -60.893693 
L 327.033404 -60.893693 
L 327.033404 -60.893693 
L 327.033404 -60.893693 
L 327.033404 -60.893693 
L 327.033404 -60.893693 
L 327.033404 -60.893693 
L 327.033404 -60.893693 
L 327.033404 -60.893693 
L 327.033404 -60.893693 
L 327.033404 -60.893693 
L 327.033404 -60.893693 
L 327.033404 -60.893693 
L 327.033404 -60.893693 
L 327.033404 -60.893693 
L 327.033404 -60.893693 
L 327.033404 -60.893693 
L 327.033404 -60.893693 
L 327.033404 -60.893693 
L 327.033404 -60.893693 
L 327.033404 -60.893693 
L 327.033404 -60.893693 
L 348.049933 -60.893693 
L 348.049933 -60.893693 
L 348.049933 -60.893693 
L 348.049933 -60.893693 
L 348.049933 -60.893693 
L 348.049933 -60.893693 
L 348.049933 -60.893693 
L 348.049933 -60.893693 
L 348.049933 -60.893693 
L 348.049933 -60.893693 
L 348.049933 -60.893693 
L 348.049933 -60.893693 
L 348.049933 -60.893693 
L 348.049933 -60.893693 
L 348.049933 -60.893693 
L 348.049933 -60.893693 
L 348.049933 -60.893693 
L 348.049933 -60.893693 
L 348.049933 -60.893693 
L 348.049933 -60.893693 
L 348.049933 -60.893693 
L 348.049933 -60.893693 
L 348.049933 -60.893693 
L 348.049933 -60.893693 
L 348.049933 -60.893693 
L 369.066462 -60.893693 
L 369.066462 -60.893693 
L 369.066462 -60.893693 
L 369.066462 -60.893693 
L 390.082991 -60.893693 
L 390.082991 -60.893693 
L 411.09952 -60.893693 
L 432.116049 -60.893693 
L 432.116049 -60.893693 
L 453.132577 -60.893693 
L 453.132577 -60.893693 
L 474.149106 -60.893693 
L 474.149106 -60.893693 
L 474.149106 -60.893693 
L 474.149106 -60.893693 
L 474.149106 -60.893693 
L 474.149106 -60.893693 
L 474.149106 -60.893693 
L 474.149106 -60.893693 
L 474.149106 -60.893693 
L 474.149106 -60.893693 
L 474.149106 -60.893693 
L 474.149106 -60.893693 
L 495.165635 -60.893693 
L 495.165635 -60.893693 
L 495.165635 -60.893693 
L 495.165635 -60.893693 
L 495.165635 -60.893693 
L 495.165635 -60.893693 
L 495.165635 -60.893693 
L 495.165635 -60.893693 
L 495.165635 -60.893693 
L 495.165635 -60.893693 
L 495.165635 -60.893693 
L 495.165635 -60.893693 
L 495.165635 -60.893693 
L 495.165635 -60.893693 
L 495.165635 -60.893693 
L 495.165635 -60.893693 
L 495.165635 -60.893693 
L 516.182164 -60.893693 
L 516.182164 -60.893693 
L 516.182164 -60.893693 
L 516.182164 -60.893693 
L 516.182164 -60.893693 
L 516.182164 -60.893693 
L 516.182164 -60.893693 
L 537.198693 -60.893693 
L 537.198693 -60.893693 
L 537.198693 -60.893693 
L 537.198693 -60.893693 
L 537.198693 -60.893693 
z
" style="stroke: #00f0ff; stroke-opacity: 0.1"/>
    </defs>
    <g clip-path="url(#pba8c9c2a69)">
     <use xlink:href="#m5f84160aad" x="0" y="423.689375" style="fill: #00f0ff; fill-opacity: 0.1; stroke: #00f0ff; stroke-opacity: 0.1"/>
    </g>
   </g>
   <g id="matplotlib.axis_1">
    <g id="xtick_1">
     <g id="line2d_1">
      <path d="M 74.835057 378.1975 
L 74.835057 39.3575 
" clip-path="url(#pba8c9c2a69)" style="fill: none; stroke-dasharray: 2.96,1.28; stroke-dashoffset: 0; stroke: #334155; stroke-opacity: 0.4; stroke-width: 0.8"/>
     </g>
     <g id="line2d_2">
      <defs>
       <path id="ma8fe6101c0" d="M 0 0 
L 0 3.5 
" style="stroke: #94a3b8; stroke-width: 0.8"/>
      </defs>
      <g>
       <use xlink:href="#ma8fe6101c0" x="74.835057" y="378.1975" style="fill: #94a3b8; stroke: #94a3b8; stroke-width: 0.8"/>
      </g>
     </g>
     <g id="text_1">
      <!-- 0.0 -->
      <g style="fill: #94a3b8" transform="translate(66.883494 392.795937) scale(0.1 -0.1)">
       <defs>
        <path id="DejaVuSans-30" d="M 2034 4250 
Q 1547 4250 1301 3770 
Q 1056 3291 1056 2328 
Q 1056 1369 1301 889 
Q 1547 409 2034 409 
Q 2525 409 2770 889 
Q 3016 1369 3016 2328 
Q 3016 3291 2770 3770 
Q 2525 4250 2034 4250 
z
M 2034 4750 
Q 2819 4750 3233 4129 
Q 3647 3509 3647 2328 
Q 3647 1150 3233 529 
Q 2819 -91 2034 -91 
Q 1250 -91 836 529 
Q 422 1150 422 2328 
Q 422 3509 836 4129 
Q 1250 4750 2034 4750 
z
" transform="scale(0.015625)"/>
        <path id="DejaVuSans-2e" d="M 684 794 
L 1344 794 
L 1344 0 
L 684 0 
L 684 794 
z
" transform="scale(0.015625)"/>
       </defs>
       <use xlink:href="#DejaVuSans-30"/>
       <use xlink:href="#DejaVuSans-2e" x="63.623047"/>
       <use xlink:href="#DejaVuSans-30" x="95.410156"/>
      </g>
     </g>
    </g>
    <g id="xtick_2">
     <g id="line2d_3">
      <path d="M 167.307784 378.1975 
L 167.307784 39.3575 
" clip-path="url(#pba8c9c2a69)" style="fill: none; stroke-dasharray: 2.96,1.28; stroke-dashoffset: 0; stroke: #334155; stroke-opacity: 0.4; stroke-width: 0.8"/>
     </g>
     <g id="line2d_4">
      <g>
       <use xlink:href="#ma8fe6101c0" x="167.307784" y="378.1975" style="fill: #94a3b8; stroke: #94a3b8; stroke-width: 0.8"/>
      </g>
     </g>
     <g id="text_2">
      <!-- 0.2 -->
      <g style="fill: #94a3b8" transform="translate(159.356222 392.795937) scale(0.1 -0.1)">
       <defs>
        <path id="DejaVuSans-32" d="M 1228 531 
L 3431 531 
L 3431 0 
L 469 0 
L 469 531 
Q 828 903 1448 1529 
Q 2069 2156 2228 2338 
Q 2531 2678 2651 2914 
Q 2772 3150 2772 3378 
Q 2772 3750 2511 3984 
Q 2250 4219 1831 4219 
Q 1534 4219 1204 4116 
Q 875 4013 500 3803 
L 500 4441 
Q 881 4594 1212 4672 
Q 1544 4750 1819 4750 
Q 2544 4750 2975 4387 
Q 3406 4025 3406 3419 
Q 3406 3131 3298 2873 
Q 3191 2616 2906 2266 
Q 2828 2175 2409 1742 
Q 1991 1309 1228 531 
z
" transform="scale(0.015625)"/>
       </defs>
       <use xlink:href="#DejaVuSans-30"/>
       <use xlink:href="#DejaVuSans-2e" x="63.623047"/>
       <use xlink:href="#DejaVuSans-32" x="95.410156"/>
      </g>
     </g>
    </g>
    <g id="xtick_3">
     <g id="line2d_5">
      <path d="M 259.780511 378.1975 
L 259.780511 39.3575 
" clip-path="url(#pba8c9c2a69)" style="fill: none; stroke-dasharray: 2.96,1.28; stroke-dashoffset: 0; stroke: #334155; stroke-opacity: 0.4; stroke-width: 0.8"/>
     </g>
     <g id="line2d_6">
      <g>
       <use xlink:href="#ma8fe6101c0" x="259.780511" y="378.1975" style="fill: #94a3b8; stroke: #94a3b8; stroke-width: 0.8"/>
      </g>
     </g>
     <g id="text_3">
      <!-- 0.4 -->
      <g style="fill: #94a3b8" transform="translate(251.828949 392.795937) scale(0.1 -0.1)">
       <defs>
        <path id="DejaVuSans-34" d="M 2419 4116 
L 825 1625 
L 2419 1625 
L 2419 4116 
z
M 2253 4666 
L 3047 4666 
L 3047 1625 
L 3713 1625 
L 3713 1100 
L 3047 1100 
L 3047 0 
L 2419 0 
L 2419 1100 
L 313 1100 
L 313 1709 
L 2253 4666 
z
" transform="scale(0.015625)"/>
       </defs>
       <use xlink:href="#DejaVuSans-30"/>
       <use xlink:href="#DejaVuSans-2e" x="63.623047"/>
       <use xlink:href="#DejaVuSans-34" x="95.410156"/>
      </g>
     </g>
    </g>
    <g id="xtick_4">
     <g id="line2d_7">
      <path d="M 352.253239 378.1975 
L 352.253239 39.3575 
" clip-path="url(#pba8c9c2a69)" style="fill: none; stroke-dasharray: 2.96,1.28; stroke-dashoffset: 0; stroke: #334155; stroke-opacity: 0.4; stroke-width: 0.8"/>
     </g>
     <g id="line2d_8">
      <g>
       <use xlink:href="#ma8fe6101c0" x="352.253239" y="378.1975" style="fill: #94a3b8; stroke: #94a3b8; stroke-width: 0.8"/>
      </g>
     </g>
     <g id="text_4">
      <!-- 0.6 -->
      <g style="fill: #94a3b8" transform="translate(344.301676 392.795937) scale(0.1 -0.1)">
       <defs>
        <path id="DejaVuSans-36" d="M 2113 2584 
Q 1688 2584 1439 2293 
Q 1191 2003 1191 1497 
Q 1191 994 1439 701 
Q 1688 409 2113 409 
Q 2538 409 2786 701 
Q 3034 994 3034 1497 
Q 3034 2003 2786 2293 
Q 2538 2584 2113 2584 
z
M 3366 4563 
L 3366 3988 
Q 3128 4100 2886 4159 
Q 2644 4219 2406 4219 
Q 1781 4219 1451 3797 
Q 1122 3375 1075 2522 
Q 1259 2794 1537 2939 
Q 1816 3084 2150 3084 
Q 2853 3084 3261 2657 
Q 3669 2231 3669 1497 
Q 3669 778 3244 343 
Q 2819 -91 2113 -91 
Q 1303 -91 875 529 
Q 447 1150 447 2328 
Q 447 3434 972 4092 
Q 1497 4750 2381 4750 
Q 2619 4750 2861 4703 
Q 3103 4656 3366 4563 
z
" transform="scale(0.015625)"/>
       </defs>
       <use xlink:href="#DejaVuSans-30"/>
       <use xlink:href="#DejaVuSans-2e" x="63.623047"/>
       <use xlink:href="#DejaVuSans-36" x="95.410156"/>
      </g>
     </g>
    </g>
    <g id="xtick_5">
     <g id="line2d_9">
      <path d="M 444.725966 378.1975 
L 444.725966 39.3575 
" clip-path="url(#pba8c9c2a69)" style="fill: none; stroke-dasharray: 2.96,1.28; stroke-dashoffset: 0; stroke: #334155; stroke-opacity: 0.4; stroke-width: 0.8"/>
     </g>
     <g id="line2d_10">
      <g>
       <use xlink:href="#ma8fe6101c0" x="444.725966" y="378.1975" style="fill: #94a3b8; stroke: #94a3b8; stroke-width: 0.8"/>
      </g>
     </g>
     <g id="text_5">
      <!-- 0.8 -->
      <g style="fill: #94a3b8" transform="translate(436.774403 392.795937) scale(0.1 -0.1)">
       <defs>
        <path id="DejaVuSans-38" d="M 2034 2216 
Q 1584 2216 1326 1975 
Q 1069 1734 1069 1313 
Q 1069 891 1326 650 
Q 1584 409 2034 409 
Q 2484 409 2743 651 
Q 3003 894 3003 1313 
Q 3003 1734 2745 1975 
Q 2488 2216 2034 2216 
z
M 1403 2484 
Q 997 2584 770 2862 
Q 544 3141 544 3541 
Q 544 4100 942 4425 
Q 1341 4750 2034 4750 
Q 2731 4750 3128 4425 
Q 3525 4100 3525 3541 
Q 3525 3141 3298 2862 
Q 3072 2584 2669 2484 
Q 3125 2378 3379 2068 
Q 3634 1759 3634 1313 
Q 3634 634 3220 271 
Q 2806 -91 2034 -91 
Q 1263 -91 848 271 
Q 434 634 434 1313 
Q 434 1759 690 2068 
Q 947 2378 1403 2484 
z
M 1172 3481 
Q 1172 3119 1398 2916 
Q 1625 2713 2034 2713 
Q 2441 2713 2670 2916 
Q 2900 3119 2900 3481 
Q 2900 3844 2670 4047 
Q 2441 4250 2034 4250 
Q 1625 4250 1398 4047 
Q 1172 3844 1172 3481 
z
" transform="scale(0.015625)"/>
       </defs>
       <use xlink:href="#DejaVuSans-30"/>
       <use xlink:href="#DejaVuSans-2e" x="63.623047"/>
       <use xlink:href="#DejaVuSans-38" x="95.410156"/>
      </g>
     </g>
    </g>
    <g id="xtick_6">
     <g id="line2d_11">
      <path d="M 537.198693 378.1975 
L 537.198693 39.3575 
" clip-path="url(#pba8c9c2a69)" style="fill: none; stroke-dasharray: 2.96,1.28; stroke-dashoffset: 0; stroke: #334155; stroke-opacity: 0.4; stroke-width: 0.8"/>
     </g>
     <g id="line2d_12">
      <g>
       <use xlink:href="#ma8fe6101c0" x="537.198693" y="378.1975" style="fill: #94a3b8; stroke: #94a3b8; stroke-width: 0.8"/>
      </g>
     </g>
     <g id="text_6">
      <!-- 1.0 -->
      <g style="fill: #94a3b8" transform="translate(529.247131 392.795937) scale(0.1 -0.1)">
       <defs>
        <path id="DejaVuSans-31" d="M 794 531 
L 1825 531 
L 1825 4091 
L 703 3866 
L 703 4441 
L 1819 4666 
L 2450 4666 
L 2450 531 
L 3481 531 
L 3481 0 
L 794 0 
L 794 531 
z
" transform="scale(0.015625)"/>
       </defs>
       <use xlink:href="#DejaVuSans-31"/>
       <use xlink:href="#DejaVuSans-2e" x="63.623047"/>
       <use xlink:href="#DejaVuSans-30" x="95.410156"/>
      </g>
     </g>
    </g>
    <g id="text_7">
     <!-- Recall -->
     <g style="fill: #cbd5e1" transform="translate(285.6075 413.99375) scale(0.12 -0.12)">
      <defs>
       <path id="DejaVuSans-Bold-52" d="M 2297 2597 
Q 2675 2597 2839 2737 
Q 3003 2878 3003 3200 
Q 3003 3519 2839 3656 
Q 2675 3794 2297 3794 
L 1791 3794 
L 1791 2597 
L 2297 2597 
z
M 1791 1766 
L 1791 0 
L 588 0 
L 588 4666 
L 2425 4666 
Q 3347 4666 3776 4356 
Q 4206 4047 4206 3378 
Q 4206 2916 3982 2619 
Q 3759 2322 3309 2181 
Q 3556 2125 3751 1926 
Q 3947 1728 4147 1325 
L 4800 0 
L 3519 0 
L 2950 1159 
Q 2778 1509 2601 1637 
Q 2425 1766 2131 1766 
L 1791 1766 
z
" transform="scale(0.015625)"/>
       <path id="DejaVuSans-Bold-65" d="M 4031 1759 
L 4031 1441 
L 1416 1441 
Q 1456 1047 1700 850 
Q 1944 653 2381 653 
Q 2734 653 3104 758 
Q 3475 863 3866 1075 
L 3866 213 
Q 3469 63 3072 -14 
Q 2675 -91 2278 -91 
Q 1328 -91 801 392 
Q 275 875 275 1747 
Q 275 2603 792 3093 
Q 1309 3584 2216 3584 
Q 3041 3584 3536 3087 
Q 4031 2591 4031 1759 
z
M 2881 2131 
Q 2881 2450 2695 2645 
Q 2509 2841 2209 2841 
Q 1884 2841 1681 2658 
Q 1478 2475 1428 2131 
L 2881 2131 
z
" transform="scale(0.015625)"/>
       <path id="DejaVuSans-Bold-63" d="M 3366 3391 
L 3366 2478 
Q 3138 2634 2908 2709 
Q 2678 2784 2431 2784 
Q 1963 2784 1702 2511 
Q 1441 2238 1441 1747 
Q 1441 1256 1702 982 
Q 1963 709 2431 709 
Q 2694 709 2930 787 
Q 3166 866 3366 1019 
L 3366 103 
Q 3103 6 2833 -42 
Q 2563 -91 2291 -91 
Q 1344 -91 809 395 
Q 275 881 275 1747 
Q 275 2613 809 3098 
Q 1344 3584 2291 3584 
Q 2566 3584 2833 3536 
Q 3100 3488 3366 3391 
z
" transform="scale(0.015625)"/>
       <path id="DejaVuSans-Bold-61" d="M 2106 1575 
Q 1756 1575 1579 1456 
Q 1403 1338 1403 1106 
Q 1403 894 1545 773 
Q 1688 653 1941 653 
Q 2256 653 2472 879 
Q 2688 1106 2688 1447 
L 2688 1575 
L 2106 1575 
z
M 3816 1997 
L 3816 0 
L 2688 0 
L 2688 519 
Q 2463 200 2181 54 
Q 1900 -91 1497 -91 
Q 953 -91 614 226 
Q 275 544 275 1050 
Q 275 1666 698 1953 
Q 1122 2241 2028 2241 
L 2688 2241 
L 2688 2328 
Q 2688 2594 2478 2717 
Q 2269 2841 1825 2841 
Q 1466 2841 1156 2769 
Q 847 2697 581 2553 
L 581 3406 
Q 941 3494 1303 3539 
Q 1666 3584 2028 3584 
Q 2975 3584 3395 3211 
Q 3816 2838 3816 1997 
z
" transform="scale(0.015625)"/>
       <path id="DejaVuSans-Bold-6c" d="M 538 4863 
L 1656 4863 
L 1656 0 
L 538 0 
L 538 4863 
z
" transform="scale(0.015625)"/>
      </defs>
      <use xlink:href="#DejaVuSans-Bold-52"/>
      <use xlink:href="#DejaVuSans-Bold-65" x="77.001953"/>
      <use xlink:href="#DejaVuSans-Bold-63" x="144.824219"/>
      <use xlink:href="#DejaVuSans-Bold-61" x="204.101562"/>
      <use xlink:href="#DejaVuSans-Bold-6c" x="271.582031"/>
      <use xlink:href="#DejaVuSans-Bold-6c" x="305.859375"/>
     </g>
    </g>
   </g>
   <g id="matplotlib.axis_2">
    <g id="ytick_1">
     <g id="line2d_13">
      <path d="M 51.716875 362.795682 
L 560.316875 362.795682 
" clip-path="url(#pba8c9c2a69)" style="fill: none; stroke-dasharray: 2.96,1.28; stroke-dashoffset: 0; stroke: #334155; stroke-opacity: 0.4; stroke-width: 0.8"/>
     </g>
     <g id="line2d_14">
      <defs>
       <path id="md4804696e5" d="M 0 0 
L -3.5 0 
" style="stroke: #94a3b8; stroke-width: 0.8"/>
      </defs>
      <g>
       <use xlink:href="#md4804696e5" x="51.716875" y="362.795682" style="fill: #94a3b8; stroke: #94a3b8; stroke-width: 0.8"/>
      </g>
     </g>
     <g id="text_8">
      <!-- 0.0 -->
      <g style="fill: #94a3b8" transform="translate(28.81375 366.594901) scale(0.1 -0.1)">
       <use xlink:href="#DejaVuSans-30"/>
       <use xlink:href="#DejaVuSans-2e" x="63.623047"/>
       <use xlink:href="#DejaVuSans-30" x="95.410156"/>
      </g>
     </g>
    </g>
    <g id="ytick_2">
     <g id="line2d_15">
      <path d="M 51.716875 301.188409 
L 560.316875 301.188409 
" clip-path="url(#pba8c9c2a69)" style="fill: none; stroke-dasharray: 2.96,1.28; stroke-dashoffset: 0; stroke: #334155; stroke-opacity: 0.4; stroke-width: 0.8"/>
     </g>
     <g id="line2d_16">
      <g>
       <use xlink:href="#md4804696e5" x="51.716875" y="301.188409" style="fill: #94a3b8; stroke: #94a3b8; stroke-width: 0.8"/>
      </g>
     </g>
     <g id="text_9">
      <!-- 0.2 -->
      <g style="fill: #94a3b8" transform="translate(28.81375 304.987628) scale(0.1 -0.1)">
       <use xlink:href="#DejaVuSans-30"/>
       <use xlink:href="#DejaVuSans-2e" x="63.623047"/>
       <use xlink:href="#DejaVuSans-32" x="95.410156"/>
      </g>
     </g>
    </g>
    <g id="ytick_3">
     <g id="line2d_17">
      <path d="M 51.716875 239.581136 
L 560.316875 239.581136 
" clip-path="url(#pba8c9c2a69)" style="fill: none; stroke-dasharray: 2.96,1.28; stroke-dashoffset: 0; stroke: #334155; stroke-opacity: 0.4; stroke-width: 0.8"/>
     </g>
     <g id="line2d_18">
      <g>
       <use xlink:href="#md4804696e5" x="51.716875" y="239.581136" style="fill: #94a3b8; stroke: #94a3b8; stroke-width: 0.8"/>
      </g>
     </g>
     <g id="text_10">
      <!-- 0.4 -->
      <g style="fill: #94a3b8" transform="translate(28.81375 243.380355) scale(0.1 -0.1)">
       <use xlink:href="#DejaVuSans-30"/>
       <use xlink:href="#DejaVuSans-2e" x="63.623047"/>
       <use xlink:href="#DejaVuSans-34" x="95.410156"/>
      </g>
     </g>
    </g>
    <g id="ytick_4">
     <g id="line2d_19">
      <path d="M 51.716875 177.973864 
L 560.316875 177.973864 
" clip-path="url(#pba8c9c2a69)" style="fill: none; stroke-dasharray: 2.96,1.28; stroke-dashoffset: 0; stroke: #334155; stroke-opacity: 0.4; stroke-width: 0.8"/>
     </g>
     <g id="line2d_20">
      <g>
       <use xlink:href="#md4804696e5" x="51.716875" y="177.973864" style="fill: #94a3b8; stroke: #94a3b8; stroke-width: 0.8"/>
      </g>
     </g>
     <g id="text_11">
      <!-- 0.6 -->
      <g style="fill: #94a3b8" transform="translate(28.81375 181.773082) scale(0.1 -0.1)">
       <use xlink:href="#DejaVuSans-30"/>
       <use xlink:href="#DejaVuSans-2e" x="63.623047"/>
       <use xlink:href="#DejaVuSans-36" x="95.410156"/>
      </g>
     </g>
    </g>
    <g id="ytick_5">
     <g id="line2d_21">
      <path d="M 51.716875 116.366591 
L 560.316875 116.366591 
" clip-path="url(#pba8c9c2a69)" style="fill: none; stroke-dasharray: 2.96,1.28; stroke-dashoffset: 0; stroke: #334155; stroke-opacity: 0.4; stroke-width: 0.8"/>
     </g>
     <g id="line2d_22">
      <g>
       <use xlink:href="#md4804696e5" x="51.716875" y="116.366591" style="fill: #94a3b8; stroke: #94a3b8; stroke-width: 0.8"/>
      </g>
     </g>
     <g id="text_12">
      <!-- 0.8 -->
      <g style="fill: #94a3b8" transform="translate(28.81375 120.16581) scale(0.1 -0.1)">
       <use xlink:href="#DejaVuSans-30"/>
       <use xlink:href="#DejaVuSans-2e" x="63.623047"/>
       <use xlink:href="#DejaVuSans-38" x="95.410156"/>
      </g>
     </g>
    </g>
    <g id="ytick_6">
     <g id="line2d_23">
      <path d="M 51.716875 54.759318 
L 560.316875 54.759318 
" clip-path="url(#pba8c9c2a69)" style="fill: none; stroke-dasharray: 2.96,1.28; stroke-dashoffset: 0; stroke: #334155; stroke-opacity: 0.4; stroke-width: 0.8"/>
     </g>
     <g id="line2d_24">
      <g>
       <use xlink:href="#md4804696e5" x="51.716875" y="54.759318" style="fill: #94a3b8; stroke: #94a3b8; stroke-width: 0.8"/>
      </g>
     </g>
     <g id="text_13">
      <!-- 1.0 -->
      <g style="fill: #94a3b8" transform="translate(28.81375 58.558537) scale(0.1 -0.1)">
       <use xlink:href="#DejaVuSans-31"/>
       <use xlink:href="#DejaVuSans-2e" x="63.623047"/>
       <use xlink:href="#DejaVuSans-30" x="95.410156"/>
      </g>
     </g>
    </g>
    <g id="text_14">
     <!-- Precision -->
     <g style="fill: #cbd5e1" transform="translate(16.318125 239.83875) rotate(-90) scale(0.12 -0.12)">
      <defs>
       <path id="DejaVuSans-Bold-50" d="M 588 4666 
L 2584 4666 
Q 3475 4666 3951 4270 
Q 4428 3875 4428 3144 
Q 4428 2409 3951 2014 
Q 3475 1619 2584 1619 
L 1791 1619 
L 1791 0 
L 588 0 
L 588 4666 
z
M 1791 3794 
L 1791 2491 
L 2456 2491 
Q 2806 2491 2997 2661 
Q 3188 2831 3188 3144 
Q 3188 3456 2997 3625 
Q 2806 3794 2456 3794 
L 1791 3794 
z
" transform="scale(0.015625)"/>
       <path id="DejaVuSans-Bold-72" d="M 3138 2547 
Q 2991 2616 2845 2648 
Q 2700 2681 2553 2681 
Q 2122 2681 1889 2404 
Q 1656 2128 1656 1613 
L 1656 0 
L 538 0 
L 538 3500 
L 1656 3500 
L 1656 2925 
Q 1872 3269 2151 3426 
Q 2431 3584 2822 3584 
Q 2878 3584 2943 3579 
Q 3009 3575 3134 3559 
L 3138 2547 
z
" transform="scale(0.015625)"/>
       <path id="DejaVuSans-Bold-69" d="M 538 3500 
L 1656 3500 
L 1656 0 
L 538 0 
L 538 3500 
z
M 538 4863 
L 1656 4863 
L 1656 3950 
L 538 3950 
L 538 4863 
z
" transform="scale(0.015625)"/>
       <path id="DejaVuSans-Bold-73" d="M 3272 3391 
L 3272 2541 
Q 2913 2691 2578 2766 
Q 2244 2841 1947 2841 
Q 1628 2841 1473 2761 
Q 1319 2681 1319 2516 
Q 1319 2381 1436 2309 
Q 1553 2238 1856 2203 
L 2053 2175 
Q 2913 2066 3209 1816 
Q 3506 1566 3506 1031 
Q 3506 472 3093 190 
Q 2681 -91 1863 -91 
Q 1516 -91 1145 -36 
Q 775 19 384 128 
L 384 978 
Q 719 816 1070 734 
Q 1422 653 1784 653 
Q 2113 653 2278 743 
Q 2444 834 2444 1013 
Q 2444 1163 2330 1236 
Q 2216 1309 1875 1350 
L 1678 1375 
Q 931 1469 631 1722 
Q 331 1975 331 2491 
Q 331 3047 712 3315 
Q 1094 3584 1881 3584 
Q 2191 3584 2531 3537 
Q 2872 3491 3272 3391 
z
" transform="scale(0.015625)"/>
       <path id="DejaVuSans-Bold-6f" d="M 2203 2784 
Q 1831 2784 1636 2517 
Q 1441 2250 1441 1747 
Q 1441 1244 1636 976 
Q 1831 709 2203 709 
Q 2569 709 2762 976 
Q 2956 1244 2956 1747 
Q 2956 2250 2762 2517 
Q 2569 2784 2203 2784 
z
M 2203 3584 
Q 3106 3584 3614 3096 
Q 4122 2609 4122 1747 
Q 4122 884 3614 396 
Q 3106 -91 2203 -91 
Q 1297 -91 786 396 
Q 275 884 275 1747 
Q 275 2609 786 3096 
Q 1297 3584 2203 3584 
z
" transform="scale(0.015625)"/>
       <path id="DejaVuSans-Bold-6e" d="M 4056 2131 
L 4056 0 
L 2931 0 
L 2931 347 
L 2931 1631 
Q 2931 2084 2911 2256 
Q 2891 2428 2841 2509 
Q 2775 2619 2662 2680 
Q 2550 2741 2406 2741 
Q 2056 2741 1856 2470 
Q 1656 2200 1656 1722 
L 1656 0 
L 538 0 
L 538 3500 
L 1656 3500 
L 1656 2988 
Q 1909 3294 2193 3439 
Q 2478 3584 2822 3584 
Q 3428 3584 3742 3212 
Q 4056 2841 4056 2131 
z
" transform="scale(0.015625)"/>
      </defs>
      <use xlink:href="#DejaVuSans-Bold-50"/>
      <use xlink:href="#DejaVuSans-Bold-72" x="73.291016"/>
      <use xlink:href="#DejaVuSans-Bold-65" x="122.607422"/>
      <use xlink:href="#DejaVuSans-Bold-63" x="190.429688"/>
      <use xlink:href="#DejaVuSans-Bold-69" x="249.707031"/>
      <use xlink:href="#DejaVuSans-Bold-73" x="283.984375"/>
      <use xlink:href="#DejaVuSans-Bold-69" x="343.505859"/>
      <use xlink:href="#DejaVuSans-Bold-6f" x="377.783203"/>
      <use xlink:href="#DejaVuSans-Bold-6e" x="446.484375"/>
     </g>
    </g>
   </g>
   <g id="patch_3">
    <path d="M 51.716875 378.1975 
L 51.716875 39.3575 
" style="fill: none; stroke: #334155; stroke-width: 0.8; stroke-linejoin: miter; stroke-linecap: square"/>
   </g>
   <g id="patch_4">
    <path d="M 51.716875 378.1975 
L 560.316875 378.1975 
" style="fill: none; stroke: #334155; stroke-width: 0.8; stroke-linejoin: miter; stroke-linecap: square"/>
   </g>
   <g id="text_15">
    <!-- Precision-Recall Curve -->
    <g style="fill: #f8fafc" transform="translate(205.131875 19.3575) scale(0.16 -0.16)">
     <defs>
      <path id="DejaVuSans-Bold-2d" d="M 347 2297 
L 2309 2297 
L 2309 1388 
L 347 1388 
L 347 2297 
z
" transform="scale(0.015625)"/>
      <path id="DejaVuSans-Bold-20" transform="scale(0.015625)"/>
      <path id="DejaVuSans-Bold-43" d="M 4288 256 
Q 3956 84 3597 -3 
Q 3238 -91 2847 -91 
Q 1681 -91 1000 561 
Q 319 1213 319 2328 
Q 319 3447 1000 4098 
Q 1681 4750 2847 4750 
Q 3238 4750 3597 4662 
Q 3956 4575 4288 4403 
L 4288 3438 
Q 3953 3666 3628 3772 
Q 3303 3878 2944 3878 
Q 2300 3878 1931 3465 
Q 1563 3053 1563 2328 
Q 1563 1606 1931 1193 
Q 2300 781 2944 781 
Q 3303 781 3628 887 
Q 3953 994 4288 1222 
L 4288 256 
z
" transform="scale(0.015625)"/>
      <path id="DejaVuSans-Bold-75" d="M 500 1363 
L 500 3500 
L 1625 3500 
L 1625 3150 
Q 1625 2866 1622 2436 
Q 1619 2006 1619 1863 
Q 1619 1441 1641 1255 
Q 1663 1069 1716 984 
Q 1784 875 1895 815 
Q 2006 756 2150 756 
Q 2500 756 2700 1025 
Q 2900 1294 2900 1772 
L 2900 3500 
L 4019 3500 
L 4019 0 
L 2900 0 
L 2900 506 
Q 2647 200 2364 54 
Q 2081 -91 1741 -91 
Q 1134 -91 817 281 
Q 500 653 500 1363 
z
" transform="scale(0.015625)"/>
      <path id="DejaVuSans-Bold-76" d="M 97 3500 
L 1216 3500 
L 2088 1081 
L 2956 3500 
L 4078 3500 
L 2700 0 
L 1472 0 
L 97 3500 
z
" transform="scale(0.015625)"/>
     </defs>
     <use xlink:href="#DejaVuSans-Bold-50"/>
     <use xlink:href="#DejaVuSans-Bold-72" x="73.291016"/>
     <use xlink:href="#DejaVuSans-Bold-65" x="122.607422"/>
     <use xlink:href="#DejaVuSans-Bold-63" x="190.429688"/>
     <use xlink:href="#DejaVuSans-Bold-69" x="249.707031"/>
     <use xlink:href="#DejaVuSans-Bold-73" x="283.984375"/>
     <use xlink:href="#DejaVuSans-Bold-69" x="343.505859"/>
     <use xlink:href="#DejaVuSans-Bold-6f" x="377.783203"/>
     <use xlink:href="#DejaVuSans-Bold-6e" x="446.484375"/>
     <use xlink:href="#DejaVuSans-Bold-2d" x="517.675781"/>
     <use xlink:href="#DejaVuSans-Bold-52" x="559.179688"/>
     <use xlink:href="#DejaVuSans-Bold-65" x="636.181641"/>
     <use xlink:href="#DejaVuSans-Bold-63" x="704.003906"/>
     <use xlink:href="#DejaVuSans-Bold-61" x="763.28125"/>
     <use xlink:href="#DejaVuSans-Bold-6c" x="830.761719"/>
     <use xlink:href="#DejaVuSans-Bold-6c" x="865.039062"/>
     <use xlink:href="#DejaVuSans-Bold-20" x="899.316406"/>
     <use xlink:href="#DejaVuSans-Bold-43" x="934.130859"/>
     <use xlink:href="#DejaVuSans-Bold-75" x="1007.519531"/>
     <use xlink:href="#DejaVuSans-Bold-72" x="1078.710938"/>
     <use xlink:href="#DejaVuSans-Bold-76" x="1128.027344"/>
     <use xlink:href="#DejaVuSans-Bold-65" x="1193.212891"/>
    </g>
   </g>
   <g id="line2d_25">
    <path d="M 537.198693 347.393864 
L 537.198693 347.252563 
L 516.182164 347.924961 
L 516.182164 347.821692 
L 516.182164 347.716979 
L 495.165635 348.401459 
L 495.165635 348.299853 
L 495.165635 347.84246 
L 474.149106 348.555558 
L 474.149106 348.450851 
L 474.149106 348.163955 
L 369.066462 351.794383 
L 369.066462 351.737966 
L 369.066462 351.70954 
L 348.049933 352.474876 
L 348.049933 352.367367 
L 348.049933 351.794383 
L 327.033404 352.612662 
L 327.033404 352.527803 
L 327.033404 351.208107 
L 306.016875 352.140336 
L 306.016875 352.038856 
L 306.016875 352.004599 
L 285.000346 352.954264 
L 285.000346 352.890976 
L 285.000346 352.062707 
L 263.983817 353.10223 
L 263.983817 352.999472 
L 263.983817 352.091716 
L 242.967288 353.244167 
L 242.967288 353.169545 
L 242.967288 353.131796 
L 200.93423 355.490472 
L 200.93423 355.373119 
L 200.93423 355.221017 
L 95.851586 361.426631 
L 95.851586 361.293065 
L 95.851586 360.928795 
L 74.835057 362.795682 
L 74.835057 362.795682 
L 74.835057 54.759318 
L 74.835057 54.759318 
" clip-path="url(#pba8c9c2a69)" style="fill: none; stroke: #00f0ff; stroke-opacity: 0.1; stroke-width: 5; stroke-linecap: square"/>
   </g>
   <g id="line2d_26">
    <path d="M 537.198693 347.393864 
L 537.198693 347.252563 
L 516.182164 347.924961 
L 516.182164 347.821692 
L 516.182164 347.716979 
L 495.165635 348.401459 
L 495.165635 348.299853 
L 495.165635 347.84246 
L 474.149106 348.555558 
L 474.149106 348.450851 
L 474.149106 348.163955 
L 369.066462 351.794383 
L 369.066462 351.737966 
L 369.066462 351.70954 
L 348.049933 352.474876 
L 348.049933 352.367367 
L 348.049933 351.794383 
L 327.033404 352.612662 
L 327.033404 352.527803 
L 327.033404 351.208107 
L 306.016875 352.140336 
L 306.016875 352.038856 
L 306.016875 352.004599 
L 285.000346 352.954264 
L 285.000346 352.890976 
L 285.000346 352.062707 
L 263.983817 353.10223 
L 263.983817 352.999472 
L 263.983817 352.091716 
L 242.967288 353.244167 
L 242.967288 353.169545 
L 242.967288 353.131796 
L 200.93423 355.490472 
L 200.93423 355.373119 
L 200.93423 355.221017 
L 95.851586 361.426631 
L 95.851586 361.293065 
L 95.851586 360.928795 
L 74.835057 362.795682 
L 74.835057 362.795682 
L 74.835057 54.759318 
L 74.835057 54.759318 
" clip-path="url(#pba8c9c2a69)" style="fill: none; stroke: #00f0ff; stroke-opacity: 0.1; stroke-width: 8; stroke-linecap: square"/>
   </g>
   <g id="line2d_27">
    <path d="M 537.198693 347.393864 
L 537.198693 347.252563 
L 516.182164 347.924961 
L 516.182164 347.821692 
L 516.182164 347.716979 
L 495.165635 348.401459 
L 495.165635 348.299853 
L 495.165635 347.84246 
L 474.149106 348.555558 
L 474.149106 348.450851 
L 474.149106 348.163955 
L 369.066462 351.794383 
L 369.066462 351.737966 
L 369.066462 351.70954 
L 348.049933 352.474876 
L 348.049933 352.367367 
L 348.049933 351.794383 
L 327.033404 352.612662 
L 327.033404 352.527803 
L 327.033404 351.208107 
L 306.016875 352.140336 
L 306.016875 352.038856 
L 306.016875 352.004599 
L 285.000346 352.954264 
L 285.000346 352.890976 
L 285.000346 352.062707 
L 263.983817 353.10223 
L 263.983817 352.999472 
L 263.983817 352.091716 
L 242.967288 353.244167 
L 242.967288 353.169545 
L 242.967288 353.131796 
L 200.93423 355.490472 
L 200.93423 355.373119 
L 200.93423 355.221017 
L 95.851586 361.426631 
L 95.851586 361.293065 
L 95.851586 360.928795 
L 74.835057 362.795682 
L 74.835057 362.795682 
L 74.835057 54.759318 
L 74.835057 54.759318 
" clip-path="url(#pba8c9c2a69)" style="fill: none; stroke: #00f0ff; stroke-opacity: 0.1; stroke-width: 11; stroke-linecap: square"/>
   </g>
   <g id="line2d_28">
    <path d="M 537.198693 347.393864 
L 537.198693 347.252563 
L 516.182164 347.924961 
L 516.182164 347.821692 
L 516.182164 347.716979 
L 495.165635 348.401459 
L 495.165635 348.299853 
L 495.165635 347.84246 
L 474.149106 348.555558 
L 474.149106 348.450851 
L 474.149106 348.163955 
L 369.066462 351.794383 
L 369.066462 351.737966 
L 369.066462 351.70954 
L 348.049933 352.474876 
L 348.049933 352.367367 
L 348.049933 351.794383 
L 327.033404 352.612662 
L 327.033404 352.527803 
L 327.033404 351.208107 
L 306.016875 352.140336 
L 306.016875 352.038856 
L 306.016875 352.004599 
L 285.000346 352.954264 
L 285.000346 352.890976 
L 285.000346 352.062707 
L 263.983817 353.10223 
L 263.983817 352.999472 
L 263.983817 352.091716 
L 242.967288 353.244167 
L 242.967288 353.169545 
L 242.967288 353.131796 
L 200.93423 355.490472 
L 200.93423 355.373119 
L 200.93423 355.221017 
L 95.851586 361.426631 
L 95.851586 361.293065 
L 95.851586 360.928795 
L 74.835057 362.795682 
L 74.835057 362.795682 
L 74.835057 54.759318 
L 74.835057 54.759318 
" clip-path="url(#pba8c9c2a69)" style="fill: none; stroke: #00f0ff; stroke-width: 2; stroke-linecap: square"/>
   </g>
   <g id="legend_1">
    <g id="patch_5">
     <path d="M 60.116875 372.1975 
L 175.924375 372.1975 
Q 178.324375 372.1975 178.324375 369.7975 
L 178.324375 353.38375 
Q 178.324375 350.98375 175.924375 350.98375 
L 60.116875 350.98375 
Q 57.716875 350.98375 57.716875 353.38375 
L 57.716875 369.7975 
Q 57.716875 372.1975 60.116875 372.1975 
z
" style="fill: #1e293b; opacity: 0.8; stroke: #334155; stroke-linejoin: miter"/>
    </g>
    <g id="line2d_29">
     <path d="M 62.516875 360.701875 
L 74.516875 360.701875 
L 86.516875 360.701875 
" style="fill: none; stroke: #00f0ff; stroke-width: 2; stroke-linecap: square"/>
    </g>
    <g id="text_16">
     <!-- AUC = 0.031 -->
     <g style="fill: #ffffff" transform="translate(96.116875 364.901875) scale(0.12 -0.12)">
      <defs>
       <path id="DejaVuSans-41" d="M 2188 4044 
L 1331 1722 
L 3047 1722 
L 2188 4044 
z
M 1831 4666 
L 2547 4666 
L 4325 0 
L 3669 0 
L 3244 1197 
L 1141 1197 
L 716 0 
L 50 0 
L 1831 4666 
z
" transform="scale(0.015625)"/>
       <path id="DejaVuSans-55" d="M 556 4666 
L 1191 4666 
L 1191 1831 
Q 1191 1081 1462 751 
Q 1734 422 2344 422 
Q 2950 422 3222 751 
Q 3494 1081 3494 1831 
L 3494 4666 
L 4128 4666 
L 4128 1753 
Q 4128 841 3676 375 
Q 3225 -91 2344 -91 
Q 1459 -91 1007 375 
Q 556 841 556 1753 
L 556 4666 
z
" transform="scale(0.015625)"/>
       <path id="DejaVuSans-43" d="M 4122 4306 
L 4122 3641 
Q 3803 3938 3442 4084 
Q 3081 4231 2675 4231 
Q 1875 4231 1450 3742 
Q 1025 3253 1025 2328 
Q 1025 1406 1450 917 
Q 1875 428 2675 428 
Q 3081 428 3442 575 
Q 3803 722 4122 1019 
L 4122 359 
Q 3791 134 3420 21 
Q 3050 -91 2638 -91 
Q 1578 -91 968 557 
Q 359 1206 359 2328 
Q 359 3453 968 4101 
Q 1578 4750 2638 4750 
Q 3056 4750 3426 4639 
Q 3797 4528 4122 4306 
z
" transform="scale(0.015625)"/>
       <path id="DejaVuSans-20" transform="scale(0.015625)"/>
       <path id="DejaVuSans-3d" d="M 678 2906 
L 4684 2906 
L 4684 2381 
L 678 2381 
L 678 2906 
z
M 678 1631 
L 4684 1631 
L 4684 1100 
L 678 1100 
L 678 1631 
z
" transform="scale(0.015625)"/>
       <path id="DejaVuSans-33" d="M 2597 2516 
Q 3050 2419 3304 2112 
Q 3559 1806 3559 1356 
Q 3559 666 3084 287 
Q 2609 -91 1734 -91 
Q 1441 -91 1130 -33 
Q 819 25 488 141 
L 488 750 
Q 750 597 1062 519 
Q 1375 441 1716 441 
Q 2309 441 2620 675 
Q 2931 909 2931 1356 
Q 2931 1769 2642 2001 
Q 2353 2234 1838 2234 
L 1294 2234 
L 1294 2753 
L 1863 2753 
Q 2328 2753 2575 2939 
Q 2822 3125 2822 3475 
Q 2822 3834 2567 4026 
Q 2313 4219 1838 4219 
Q 1578 4219 1281 4162 
Q 984 4106 628 3988 
L 628 4550 
Q 988 4650 1302 4700 
Q 1616 4750 1894 4750 
Q 2613 4750 3031 4423 
Q 3450 4097 3450 3541 
Q 3450 3153 3228 2886 
Q 3006 2619 2597 2516 
z
" transform="scale(0.015625)"/>
      </defs>
      <use xlink:href="#DejaVuSans-41"/>
      <use xlink:href="#DejaVuSans-55" x="68.408203"/>
      <use xlink:href="#DejaVuSans-43" x="141.601562"/>
      <use xlink:href="#DejaVuSans-20" x="211.425781"/>
      <use xlink:href="#DejaVuSans-3d" x="243.212891"/>
      <use xlink:href="#DejaVuSans-20" x="327.001953"/>
      <use xlink:href="#DejaVuSans-30" x="358.789062"/>
      <use xlink:href="#DejaVuSans-2e" x="422.412109"/>
      <use xlink:href="#DejaVuSans-30" x="454.199219"/>
      <use xlink:href="#DejaVuSans-33" x="517.822266"/>
      <use xlink:href="#DejaVuSans-31" x="581.445312"/>
     </g>
    </g>
   </g>
  </g>
 </g>
 <defs>
  <clipPath id="pba8c9c2a69">
   <rect x="51.716875" y="39.3575" width="508.6" height="338.84"/>
  </clipPath>
 </defs>
</svg>
