<?xml version="1.0" encoding="utf-8" standalone="no"?>
<!DOCTYPE svg PUBLIC "-//W3C//DTD SVG 1.1//EN"
  "http://www.w3.org/Graphics/SVG/1.1/DTD/svg11.dtd">
<svg xmlns:xlink="http://www.w3.org/1999/xlink" width="567.548437pt" height="423.689375pt" viewBox="0 0 567.548437 423.689375" xmlns="http://www.w3.org/2000/svg" version="1.1">
 <metadata>
  <rdf:RDF xmlns:dc="http://purl.org/dc/elements/1.1/" xmlns:cc="http://creativecommons.org/ns#" xmlns:rdf="http://www.w3.org/1999/02/22-rdf-syntax-ns#">
   <cc:Work>
    <dc:type rdf:resource="http://purl.org/dc/dcmitype/StillImage"/>
    <dc:date>2026-06-10T21:25:56.826428</dc:date>
    <dc:format>image/svg+xml</dc:format>
    <dc:creator>
     <cc:Agent>
      <dc:title>Matplotlib v3.8.3, https://matplotlib.org/</dc:title>
     </cc:Agent>
    </dc:creator>
   </cc:Work>
  </rdf:RDF>
 </metadata>
 <defs>
  <style type="text/css">*{stroke-linejoin: round; stroke-linecap: butt}</style>
 </defs>
 <g id="figure_1">
  <g id="patch_1">
   <path d="M 0 423.689375 
L 567.548437 423.689375 
L 567.548437 0 
L 0 0 
L 0 423.689375 
z
" style="fill: none"/>
  </g>
  <g id="axes_1">
   <g id="patch_2">
    <path d="M 51.716875 378.1975 
L 552.396875 378.1975 
L 552.396875 39.3575 
L 51.716875 39.3575 
L 51.716875 378.1975 
z
" style="fill: none"/>
   </g>
   <g id="PolyCollection_1">
    <defs>
     <path id="mc0560cf2ac" d="M 61.53413 -45.491875 
L 61.53413 -45.491875 
L 62.708443 -45.491875 
L 254.121427 -45.491875 
L 254.121427 -60.160273 
L 308.139815 -60.160273 
L 310.488441 -60.160273 
L 324.580194 -60.160273 
L 324.580194 -74.828672 
L 335.149009 -74.828672 
L 335.149009 -89.49707 
L 336.323322 -89.49707 
L 336.323322 -104.165468 
L 337.497635 -104.165468 
L 337.497635 -118.833866 
L 341.020573 -118.833866 
L 341.020573 -133.502265 
L 351.589388 -133.502265 
L 351.589388 -162.839061 
L 355.112327 -162.839061 
L 355.112327 -177.507459 
L 375.075644 -177.507459 
L 377.42427 -177.507459 
L 386.818772 -177.507459 
L 386.818772 -192.175858 
L 411.479341 -192.175858 
L 415.002279 -192.175858 
L 417.350904 -192.175858 
L 417.350904 -206.844256 
L 422.048156 -206.844256 
L 422.048156 -221.512654 
L 452.580288 -221.512654 
L 454.928914 -221.512654 
L 464.323416 -221.512654 
L 466.672042 -221.512654 
L 473.717918 -221.512654 
L 473.717918 -236.181052 
L 501.901425 -236.181052 
L 501.901425 -250.849451 
L 505.424364 -250.849451 
L 505.424364 -265.517849 
L 506.598676 -265.517849 
L 506.598676 -294.854646 
L 507.772989 -294.854646 
L 507.772989 -309.523044 
L 508.947302 -309.523044 
L 508.947302 -324.191442 
L 521.864743 -324.191442 
L 521.864743 -338.85984 
L 540.653747 -338.85984 
L 540.653747 -353.528239 
L 547.699624 -353.528239 
L 547.699624 -368.196637 
L 552.396875 -368.196637 
L 552.396875 -45.491875 
L 552.396875 -45.491875 
L 547.699624 -45.491875 
L 547.699624 -45.491875 
L 540.653747 -45.491875 
L 540.653747 -45.491875 
L 521.864743 -45.491875 
L 521.864743 -45.491875 
L 508.947302 -45.491875 
L 508.947302 -45.491875 
L 507.772989 -45.491875 
L 507.772989 -45.491875 
L 506.598676 -45.491875 
L 506.598676 -45.491875 
L 505.424364 -45.491875 
L 505.424364 -45.491875 
L 501.901425 -45.491875 
L 501.901425 -45.491875 
L 473.717918 -45.491875 
L 473.717918 -45.491875 
L 466.672042 -45.491875 
L 464.323416 -45.491875 
L 454.928914 -45.491875 
L 452.580288 -45.491875 
L 422.048156 -45.491875 
L 422.048156 -45.491875 
L 417.350904 -45.491875 
L 417.350904 -45.491875 
L 415.002279 -45.491875 
L 411.479341 -45.491875 
L 386.818772 -45.491875 
L 386.818772 -45.491875 
L 377.42427 -45.491875 
L 375.075644 -45.491875 
L 355.112327 -45.491875 
L 355.112327 -45.491875 
L 351.589388 -45.491875 
L 351.589388 -45.491875 
L 341.020573 -45.491875 
L 341.020573 -45.491875 
L 337.497635 -45.491875 
L 337.497635 -45.491875 
L 336.323322 -45.491875 
L 336.323322 -45.491875 
L 335.149009 -45.491875 
L 335.149009 -45.491875 
L 324.580194 -45.491875 
L 324.580194 -45.491875 
L 310.488441 -45.491875 
L 308.139815 -45.491875 
L 254.121427 -45.491875 
L 254.121427 -45.491875 
L 62.708443 -45.491875 
L 61.53413 -45.491875 
z
" style="stroke: #00f0ff; stroke-opacity: 0.1"/>
    </defs>
    <g clip-path="url(#p390d91ba56)">
     <use xlink:href="#mc0560cf2ac" x="0" y="423.689375" style="fill: #00f0ff; fill-opacity: 0.1; stroke: #00f0ff; stroke-opacity: 0.1"/>
    </g>
   </g>
   <g id="matplotlib.axis_1">
    <g id="xtick_1">
     <g id="line2d_1">
      <path d="M 61.53413 378.1975 
L 61.53413 39.3575 
" clip-path="url(#p390d91ba56)" style="fill: none; stroke-dasharray: 2.96,1.28; stroke-dashoffset: 0; stroke: #334155; stroke-opacity: 0.4; stroke-width: 0.8"/>
     </g>
     <g id="line2d_2">
      <defs>
       <path id="mcbbabfb6a2" d="M 0 0 
L 0 3.5 
" style="stroke: #94a3b8; stroke-width: 0.8"/>
      </defs>
      <g>
       <use xlink:href="#mcbbabfb6a2" x="61.53413" y="378.1975" style="fill: #94a3b8; stroke: #94a3b8; stroke-width: 0.8"/>
      </g>
     </g>
     <g id="text_1">
      <!-- 0.0 -->
      <g style="fill: #94a3b8" transform="translate(53.582567 392.795937) scale(0.1 -0.1)">
       <defs>
        <path id="DejaVuSans-30" d="M 2034 4250 
Q 1547 4250 1301 3770 
Q 1056 3291 1056 2328 
Q 1056 1369 1301 889 
Q 1547 409 2034 409 
Q 2525 409 2770 889 
Q 3016 1369 3016 2328 
Q 3016 3291 2770 3770 
Q 2525 4250 2034 4250 
z
M 2034 4750 
Q 2819 4750 3233 4129 
Q 3647 3509 3647 2328 
Q 3647 1150 3233 529 
Q 2819 -91 2034 -91 
Q 1250 -91 836 529 
Q 422 1150 422 2328 
Q 422 3509 836 4129 
Q 1250 4750 2034 4750 
z
" transform="scale(0.015625)"/>
        <path id="DejaVuSans-2e" d="M 684 794 
L 1344 794 
L 1344 0 
L 684 0 
L 684 794 
z
" transform="scale(0.015625)"/>
       </defs>
       <use xlink:href="#DejaVuSans-30"/>
       <use xlink:href="#DejaVuSans-2e" x="63.623047"/>
       <use xlink:href="#DejaVuSans-30" x="95.410156"/>
      </g>
     </g>
    </g>
    <g id="xtick_2">
     <g id="line2d_3">
      <path d="M 159.706679 378.1975 
L 159.706679 39.3575 
" clip-path="url(#p390d91ba56)" style="fill: none; stroke-dasharray: 2.96,1.28; stroke-dashoffset: 0; stroke: #334155; stroke-opacity: 0.4; stroke-width: 0.8"/>
     </g>
     <g id="line2d_4">
      <g>
       <use xlink:href="#mcbbabfb6a2" x="159.706679" y="378.1975" style="fill: #94a3b8; stroke: #94a3b8; stroke-width: 0.8"/>
      </g>
     </g>
     <g id="text_2">
      <!-- 0.2 -->
      <g style="fill: #94a3b8" transform="translate(151.755116 392.795937) scale(0.1 -0.1)">
       <defs>
        <path id="DejaVuSans-32" d="M 1228 531 
L 3431 531 
L 3431 0 
L 469 0 
L 469 531 
Q 828 903 1448 1529 
Q 2069 2156 2228 2338 
Q 2531 2678 2651 2914 
Q 2772 3150 2772 3378 
Q 2772 3750 2511 3984 
Q 2250 4219 1831 4219 
Q 1534 4219 1204 4116 
Q 875 4013 500 3803 
L 500 4441 
Q 881 4594 1212 4672 
Q 1544 4750 1819 4750 
Q 2544 4750 2975 4387 
Q 3406 4025 3406 3419 
Q 3406 3131 3298 2873 
Q 3191 2616 2906 2266 
Q 2828 2175 2409 1742 
Q 1991 1309 1228 531 
z
" transform="scale(0.015625)"/>
       </defs>
       <use xlink:href="#DejaVuSans-30"/>
       <use xlink:href="#DejaVuSans-2e" x="63.623047"/>
       <use xlink:href="#DejaVuSans-32" x="95.410156"/>
      </g>
     </g>
    </g>
    <g id="xtick_3">
     <g id="line2d_5">
      <path d="M 257.879228 378.1975 
L 257.879228 39.3575 
" clip-path="url(#p390d91ba56)" style="fill: none; stroke-dasharray: 2.96,1.28; stroke-dashoffset: 0; stroke: #334155; stroke-opacity: 0.4; stroke-width: 0.8"/>
     </g>
     <g id="line2d_6">
      <g>
       <use xlink:href="#mcbbabfb6a2" x="257.879228" y="378.1975" style="fill: #94a3b8; stroke: #94a3b8; stroke-width: 0.8"/>
      </g>
     </g>
     <g id="text_3">
      <!-- 0.4 -->
      <g style="fill: #94a3b8" transform="translate(249.927665 392.795937) scale(0.1 -0.1)">
       <defs>
        <path id="DejaVuSans-34" d="M 2419 4116 
L 825 1625 
L 2419 1625 
L 2419 4116 
z
M 2253 4666 
L 3047 4666 
L 3047 1625 
L 3713 1625 
L 3713 1100 
L 3047 1100 
L 3047 0 
L 2419 0 
L 2419 1100 
L 313 1100 
L 313 1709 
L 2253 4666 
z
" transform="scale(0.015625)"/>
       </defs>
       <use xlink:href="#DejaVuSans-30"/>
       <use xlink:href="#DejaVuSans-2e" x="63.623047"/>
       <use xlink:href="#DejaVuSans-34" x="95.410156"/>
      </g>
     </g>
    </g>
    <g id="xtick_4">
     <g id="line2d_7">
      <path d="M 356.051777 378.1975 
L 356.051777 39.3575 
" clip-path="url(#p390d91ba56)" style="fill: none; stroke-dasharray: 2.96,1.28; stroke-dashoffset: 0; stroke: #334155; stroke-opacity: 0.4; stroke-width: 0.8"/>
     </g>
     <g id="line2d_8">
      <g>
       <use xlink:href="#mcbbabfb6a2" x="356.051777" y="378.1975" style="fill: #94a3b8; stroke: #94a3b8; stroke-width: 0.8"/>
      </g>
     </g>
     <g id="text_4">
      <!-- 0.6 -->
      <g style="fill: #94a3b8" transform="translate(348.100214 392.795937) scale(0.1 -0.1)">
       <defs>
        <path id="DejaVuSans-36" d="M 2113 2584 
Q 1688 2584 1439 2293 
Q 1191 2003 1191 1497 
Q 1191 994 1439 701 
Q 1688 409 2113 409 
Q 2538 409 2786 701 
Q 3034 994 3034 1497 
Q 3034 2003 2786 2293 
Q 2538 2584 2113 2584 
z
M 3366 4563 
L 3366 3988 
Q 3128 4100 2886 4159 
Q 2644 4219 2406 4219 
Q 1781 4219 1451 3797 
Q 1122 3375 1075 2522 
Q 1259 2794 1537 2939 
Q 1816 3084 2150 3084 
Q 2853 3084 3261 2657 
Q 3669 2231 3669 1497 
Q 3669 778 3244 343 
Q 2819 -91 2113 -91 
Q 1303 -91 875 529 
Q 447 1150 447 2328 
Q 447 3434 972 4092 
Q 1497 4750 2381 4750 
Q 2619 4750 2861 4703 
Q 3103 4656 3366 4563 
z
" transform="scale(0.015625)"/>
       </defs>
       <use xlink:href="#DejaVuSans-30"/>
       <use xlink:href="#DejaVuSans-2e" x="63.623047"/>
       <use xlink:href="#DejaVuSans-36" x="95.410156"/>
      </g>
     </g>
    </g>
    <g id="xtick_5">
     <g id="line2d_9">
      <path d="M 454.224326 378.1975 
L 454.224326 39.3575 
" clip-path="url(#p390d91ba56)" style="fill: none; stroke-dasharray: 2.96,1.28; stroke-dashoffset: 0; stroke: #334155; stroke-opacity: 0.4; stroke-width: 0.8"/>
     </g>
     <g id="line2d_10">
      <g>
       <use xlink:href="#mcbbabfb6a2" x="454.224326" y="378.1975" style="fill: #94a3b8; stroke: #94a3b8; stroke-width: 0.8"/>
      </g>
     </g>
     <g id="text_5">
      <!-- 0.8 -->
      <g style="fill: #94a3b8" transform="translate(446.272763 392.795937) scale(0.1 -0.1)">
       <defs>
        <path id="DejaVuSans-38" d="M 2034 2216 
Q 1584 2216 1326 1975 
Q 1069 1734 1069 1313 
Q 1069 891 1326 650 
Q 1584 409 2034 409 
Q 2484 409 2743 651 
Q 3003 894 3003 1313 
Q 3003 1734 2745 1975 
Q 2488 2216 2034 2216 
z
M 1403 2484 
Q 997 2584 770 2862 
Q 544 3141 544 3541 
Q 544 4100 942 4425 
Q 1341 4750 2034 4750 
Q 2731 4750 3128 4425 
Q 3525 4100 3525 3541 
Q 3525 3141 3298 2862 
Q 3072 2584 2669 2484 
Q 3125 2378 3379 2068 
Q 3634 1759 3634 1313 
Q 3634 634 3220 271 
Q 2806 -91 2034 -91 
Q 1263 -91 848 271 
Q 434 634 434 1313 
Q 434 1759 690 2068 
Q 947 2378 1403 2484 
z
M 1172 3481 
Q 1172 3119 1398 2916 
Q 1625 2713 2034 2713 
Q 2441 2713 2670 2916 
Q 2900 3119 2900 3481 
Q 2900 3844 2670 4047 
Q 2441 4250 2034 4250 
Q 1625 4250 1398 4047 
Q 1172 3844 1172 3481 
z
" transform="scale(0.015625)"/>
       </defs>
       <use xlink:href="#DejaVuSans-30"/>
       <use xlink:href="#DejaVuSans-2e" x="63.623047"/>
       <use xlink:href="#DejaVuSans-38" x="95.410156"/>
      </g>
     </g>
    </g>
    <g id="xtick_6">
     <g id="line2d_11">
      <path d="M 552.396875 378.1975 
L 552.396875 39.3575 
" clip-path="url(#p390d91ba56)" style="fill: none; stroke-dasharray: 2.96,1.28; stroke-dashoffset: 0; stroke: #334155; stroke-opacity: 0.4; stroke-width: 0.8"/>
     </g>
     <g id="line2d_12">
      <g>
       <use xlink:href="#mcbbabfb6a2" x="552.396875" y="378.1975" style="fill: #94a3b8; stroke: #94a3b8; stroke-width: 0.8"/>
      </g>
     </g>
     <g id="text_6">
      <!-- 1.0 -->
      <g style="fill: #94a3b8" transform="translate(544.445312 392.795937) scale(0.1 -0.1)">
       <defs>
        <path id="DejaVuSans-31" d="M 794 531 
L 1825 531 
L 1825 4091 
L 703 3866 
L 703 4441 
L 1819 4666 
L 2450 4666 
L 2450 531 
L 3481 531 
L 3481 0 
L 794 0 
L 794 531 
z
" transform="scale(0.015625)"/>
       </defs>
       <use xlink:href="#DejaVuSans-31"/>
       <use xlink:href="#DejaVuSans-2e" x="63.623047"/>
       <use xlink:href="#DejaVuSans-30" x="95.410156"/>
      </g>
     </g>
    </g>
    <g id="text_7">
     <!-- False Positive Rate -->
     <g style="fill: #cbd5e1" transform="translate(237.726562 413.99375) scale(0.12 -0.12)">
      <defs>
       <path id="DejaVuSans-Bold-46" d="M 588 4666 
L 3834 4666 
L 3834 3756 
L 1791 3756 
L 1791 2888 
L 3713 2888 
L 3713 1978 
L 1791 1978 
L 1791 0 
L 588 0 
L 588 4666 
z
" transform="scale(0.015625)"/>
       <path id="DejaVuSans-Bold-61" d="M 2106 1575 
Q 1756 1575 1579 1456 
Q 1403 1338 1403 1106 
Q 1403 894 1545 773 
Q 1688 653 1941 653 
Q 2256 653 2472 879 
Q 2688 1106 2688 1447 
L 2688 1575 
L 2106 1575 
z
M 3816 1997 
L 3816 0 
L 2688 0 
L 2688 519 
Q 2463 200 2181 54 
Q 1900 -91 1497 -91 
Q 953 -91 614 226 
Q 275 544 275 1050 
Q 275 1666 698 1953 
Q 1122 2241 2028 2241 
L 2688 2241 
L 2688 2328 
Q 2688 2594 2478 2717 
Q 2269 2841 1825 2841 
Q 1466 2841 1156 2769 
Q 847 2697 581 2553 
L 581 3406 
Q 941 3494 1303 3539 
Q 1666 3584 2028 3584 
Q 2975 3584 3395 3211 
Q 3816 2838 3816 1997 
z
" transform="scale(0.015625)"/>
       <path id="DejaVuSans-Bold-6c" d="M 538 4863 
L 1656 4863 
L 1656 0 
L 538 0 
L 538 4863 
z
" transform="scale(0.015625)"/>
       <path id="DejaVuSans-Bold-73" d="M 3272 3391 
L 3272 2541 
Q 2913 2691 2578 2766 
Q 2244 2841 1947 2841 
Q 1628 2841 1473 2761 
Q 1319 2681 1319 2516 
Q 1319 2381 1436 2309 
Q 1553 2238 1856 2203 
L 2053 2175 
Q 2913 2066 3209 1816 
Q 3506 1566 3506 1031 
Q 3506 472 3093 190 
Q 2681 -91 1863 -91 
Q 1516 -91 1145 -36 
Q 775 19 384 128 
L 384 978 
Q 719 816 1070 734 
Q 1422 653 1784 653 
Q 2113 653 2278 743 
Q 2444 834 2444 1013 
Q 2444 1163 2330 1236 
Q 2216 1309 1875 1350 
L 1678 1375 
Q 931 1469 631 1722 
Q 331 1975 331 2491 
Q 331 3047 712 3315 
Q 1094 3584 1881 3584 
Q 2191 3584 2531 3537 
Q 2872 3491 3272 3391 
z
" transform="scale(0.015625)"/>
       <path id="DejaVuSans-Bold-65" d="M 4031 1759 
L 4031 1441 
L 1416 1441 
Q 1456 1047 1700 850 
Q 1944 653 2381 653 
Q 2734 653 3104 758 
Q 3475 863 3866 1075 
L 3866 213 
Q 3469 63 3072 -14 
Q 2675 -91 2278 -91 
Q 1328 -91 801 392 
Q 275 875 275 1747 
Q 275 2603 792 3093 
Q 1309 3584 2216 3584 
Q 3041 3584 3536 3087 
Q 4031 2591 4031 1759 
z
M 2881 2131 
Q 2881 2450 2695 2645 
Q 2509 2841 2209 2841 
Q 1884 2841 1681 2658 
Q 1478 2475 1428 2131 
L 2881 2131 
z
" transform="scale(0.015625)"/>
       <path id="DejaVuSans-Bold-20" transform="scale(0.015625)"/>
       <path id="DejaVuSans-Bold-50" d="M 588 4666 
L 2584 4666 
Q 3475 4666 3951 4270 
Q 4428 3875 4428 3144 
Q 4428 2409 3951 2014 
Q 3475 1619 2584 1619 
L 1791 1619 
L 1791 0 
L 588 0 
L 588 4666 
z
M 1791 3794 
L 1791 2491 
L 2456 2491 
Q 2806 2491 2997 2661 
Q 3188 2831 3188 3144 
Q 3188 3456 2997 3625 
Q 2806 3794 2456 3794 
L 1791 3794 
z
" transform="scale(0.015625)"/>
       <path id="DejaVuSans-Bold-6f" d="M 2203 2784 
Q 1831 2784 1636 2517 
Q 1441 2250 1441 1747 
Q 1441 1244 1636 976 
Q 1831 709 2203 709 
Q 2569 709 2762 976 
Q 2956 1244 2956 1747 
Q 2956 2250 2762 2517 
Q 2569 2784 2203 2784 
z
M 2203 3584 
Q 3106 3584 3614 3096 
Q 4122 2609 4122 1747 
Q 4122 884 3614 396 
Q 3106 -91 2203 -91 
Q 1297 -91 786 396 
Q 275 884 275 1747 
Q 275 2609 786 3096 
Q 1297 3584 2203 3584 
z
" transform="scale(0.015625)"/>
       <path id="DejaVuSans-Bold-69" d="M 538 3500 
L 1656 3500 
L 1656 0 
L 538 0 
L 538 3500 
z
M 538 4863 
L 1656 4863 
L 1656 3950 
L 538 3950 
L 538 4863 
z
" transform="scale(0.015625)"/>
       <path id="DejaVuSans-Bold-74" d="M 1759 4494 
L 1759 3500 
L 2913 3500 
L 2913 2700 
L 1759 2700 
L 1759 1216 
Q 1759 972 1856 886 
Q 1953 800 2241 800 
L 2816 800 
L 2816 0 
L 1856 0 
Q 1194 0 917 276 
Q 641 553 641 1216 
L 641 2700 
L 84 2700 
L 84 3500 
L 641 3500 
L 641 4494 
L 1759 4494 
z
" transform="scale(0.015625)"/>
       <path id="DejaVuSans-Bold-76" d="M 97 3500 
L 1216 3500 
L 2088 1081 
L 2956 3500 
L 4078 3500 
L 2700 0 
L 1472 0 
L 97 3500 
z
" transform="scale(0.015625)"/>
       <path id="DejaVuSans-Bold-52" d="M 2297 2597 
Q 2675 2597 2839 2737 
Q 3003 2878 3003 3200 
Q 3003 3519 2839 3656 
Q 2675 3794 2297 3794 
L 1791 3794 
L 1791 2597 
L 2297 2597 
z
M 1791 1766 
L 1791 0 
L 588 0 
L 588 4666 
L 2425 4666 
Q 3347 4666 3776 4356 
Q 4206 4047 4206 3378 
Q 4206 2916 3982 2619 
Q 3759 2322 3309 2181 
Q 3556 2125 3751 1926 
Q 3947 1728 4147 1325 
L 4800 0 
L 3519 0 
L 2950 1159 
Q 2778 1509 2601 1637 
Q 2425 1766 2131 1766 
L 1791 1766 
z
" transform="scale(0.015625)"/>
      </defs>
      <use xlink:href="#DejaVuSans-Bold-46"/>
      <use xlink:href="#DejaVuSans-Bold-61" x="62.435547"/>
      <use xlink:href="#DejaVuSans-Bold-6c" x="129.916016"/>
      <use xlink:href="#DejaVuSans-Bold-73" x="164.193359"/>
      <use xlink:href="#DejaVuSans-Bold-65" x="223.714844"/>
      <use xlink:href="#DejaVuSans-Bold-20" x="291.537109"/>
      <use xlink:href="#DejaVuSans-Bold-50" x="326.351562"/>
      <use xlink:href="#DejaVuSans-Bold-6f" x="399.642578"/>
      <use xlink:href="#DejaVuSans-Bold-73" x="468.34375"/>
      <use xlink:href="#DejaVuSans-Bold-69" x="527.865234"/>
      <use xlink:href="#DejaVuSans-Bold-74" x="562.142578"/>
      <use xlink:href="#DejaVuSans-Bold-69" x="609.945312"/>
      <use xlink:href="#DejaVuSans-Bold-76" x="644.222656"/>
      <use xlink:href="#DejaVuSans-Bold-65" x="709.408203"/>
      <use xlink:href="#DejaVuSans-Bold-20" x="777.230469"/>
      <use xlink:href="#DejaVuSans-Bold-52" x="812.044922"/>
      <use xlink:href="#DejaVuSans-Bold-61" x="889.046875"/>
      <use xlink:href="#DejaVuSans-Bold-74" x="956.527344"/>
      <use xlink:href="#DejaVuSans-Bold-65" x="1004.330078"/>
     </g>
    </g>
   </g>
   <g id="matplotlib.axis_2">
    <g id="ytick_1">
     <g id="line2d_13">
      <path d="M 51.716875 378.1975 
L 552.396875 378.1975 
" clip-path="url(#p390d91ba56)" style="fill: none; stroke-dasharray: 2.96,1.28; stroke-dashoffset: 0; stroke: #334155; stroke-opacity: 0.4; stroke-width: 0.8"/>
     </g>
     <g id="line2d_14">
      <defs>
       <path id="m77109dfb59" d="M 0 0 
L -3.5 0 
" style="stroke: #94a3b8; stroke-width: 0.8"/>
      </defs>
      <g>
       <use xlink:href="#m77109dfb59" x="51.716875" y="378.1975" style="fill: #94a3b8; stroke: #94a3b8; stroke-width: 0.8"/>
      </g>
     </g>
     <g id="text_8">
      <!-- 0.0 -->
      <g style="fill: #94a3b8" transform="translate(28.81375 381.996719) scale(0.1 -0.1)">
       <use xlink:href="#DejaVuSans-30"/>
       <use xlink:href="#DejaVuSans-2e" x="63.623047"/>
       <use xlink:href="#DejaVuSans-30" x="95.410156"/>
      </g>
     </g>
    </g>
    <g id="ytick_2">
     <g id="line2d_15">
      <path d="M 51.716875 313.656548 
L 552.396875 313.656548 
" clip-path="url(#p390d91ba56)" style="fill: none; stroke-dasharray: 2.96,1.28; stroke-dashoffset: 0; stroke: #334155; stroke-opacity: 0.4; stroke-width: 0.8"/>
     </g>
     <g id="line2d_16">
      <g>
       <use xlink:href="#m77109dfb59" x="51.716875" y="313.656548" style="fill: #94a3b8; stroke: #94a3b8; stroke-width: 0.8"/>
      </g>
     </g>
     <g id="text_9">
      <!-- 0.2 -->
      <g style="fill: #94a3b8" transform="translate(28.81375 317.455766) scale(0.1 -0.1)">
       <use xlink:href="#DejaVuSans-30"/>
       <use xlink:href="#DejaVuSans-2e" x="63.623047"/>
       <use xlink:href="#DejaVuSans-32" x="95.410156"/>
      </g>
     </g>
    </g>
    <g id="ytick_3">
     <g id="line2d_17">
      <path d="M 51.716875 249.115595 
L 552.396875 249.115595 
" clip-path="url(#p390d91ba56)" style="fill: none; stroke-dasharray: 2.96,1.28; stroke-dashoffset: 0; stroke: #334155; stroke-opacity: 0.4; stroke-width: 0.8"/>
     </g>
     <g id="line2d_18">
      <g>
       <use xlink:href="#m77109dfb59" x="51.716875" y="249.115595" style="fill: #94a3b8; stroke: #94a3b8; stroke-width: 0.8"/>
      </g>
     </g>
     <g id="text_10">
      <!-- 0.4 -->
      <g style="fill: #94a3b8" transform="translate(28.81375 252.914814) scale(0.1 -0.1)">
       <use xlink:href="#DejaVuSans-30"/>
       <use xlink:href="#DejaVuSans-2e" x="63.623047"/>
       <use xlink:href="#DejaVuSans-34" x="95.410156"/>
      </g>
     </g>
    </g>
    <g id="ytick_4">
     <g id="line2d_19">
      <path d="M 51.716875 184.574643 
L 552.396875 184.574643 
" clip-path="url(#p390d91ba56)" style="fill: none; stroke-dasharray: 2.96,1.28; stroke-dashoffset: 0; stroke: #334155; stroke-opacity: 0.4; stroke-width: 0.8"/>
     </g>
     <g id="line2d_20">
      <g>
       <use xlink:href="#m77109dfb59" x="51.716875" y="184.574643" style="fill: #94a3b8; stroke: #94a3b8; stroke-width: 0.8"/>
      </g>
     </g>
     <g id="text_11">
      <!-- 0.6 -->
      <g style="fill: #94a3b8" transform="translate(28.81375 188.373862) scale(0.1 -0.1)">
       <use xlink:href="#DejaVuSans-30"/>
       <use xlink:href="#DejaVuSans-2e" x="63.623047"/>
       <use xlink:href="#DejaVuSans-36" x="95.410156"/>
      </g>
     </g>
    </g>
    <g id="ytick_5">
     <g id="line2d_21">
      <path d="M 51.716875 120.03369 
L 552.396875 120.03369 
" clip-path="url(#p390d91ba56)" style="fill: none; stroke-dasharray: 2.96,1.28; stroke-dashoffset: 0; stroke: #334155; stroke-opacity: 0.4; stroke-width: 0.8"/>
     </g>
     <g id="line2d_22">
      <g>
       <use xlink:href="#m77109dfb59" x="51.716875" y="120.03369" style="fill: #94a3b8; stroke: #94a3b8; stroke-width: 0.8"/>
      </g>
     </g>
     <g id="text_12">
      <!-- 0.8 -->
      <g style="fill: #94a3b8" transform="translate(28.81375 123.832909) scale(0.1 -0.1)">
       <use xlink:href="#DejaVuSans-30"/>
       <use xlink:href="#DejaVuSans-2e" x="63.623047"/>
       <use xlink:href="#DejaVuSans-38" x="95.410156"/>
      </g>
     </g>
    </g>
    <g id="ytick_6">
     <g id="line2d_23">
      <path d="M 51.716875 55.492738 
L 552.396875 55.492738 
" clip-path="url(#p390d91ba56)" style="fill: none; stroke-dasharray: 2.96,1.28; stroke-dashoffset: 0; stroke: #334155; stroke-opacity: 0.4; stroke-width: 0.8"/>
     </g>
     <g id="line2d_24">
      <g>
       <use xlink:href="#m77109dfb59" x="51.716875" y="55.492738" style="fill: #94a3b8; stroke: #94a3b8; stroke-width: 0.8"/>
      </g>
     </g>
     <g id="text_13">
      <!-- 1.0 -->
      <g style="fill: #94a3b8" transform="translate(28.81375 59.291957) scale(0.1 -0.1)">
       <use xlink:href="#DejaVuSans-31"/>
       <use xlink:href="#DejaVuSans-2e" x="63.623047"/>
       <use xlink:href="#DejaVuSans-30" x="95.410156"/>
      </g>
     </g>
    </g>
    <g id="text_14">
     <!-- True Positive Rate -->
     <g style="fill: #cbd5e1" transform="translate(16.318125 270.347812) rotate(-90) scale(0.12 -0.12)">
      <defs>
       <path id="DejaVuSans-Bold-54" d="M 31 4666 
L 4331 4666 
L 4331 3756 
L 2784 3756 
L 2784 0 
L 1581 0 
L 1581 3756 
L 31 3756 
L 31 4666 
z
" transform="scale(0.015625)"/>
       <path id="DejaVuSans-Bold-72" d="M 3138 2547 
Q 2991 2616 2845 2648 
Q 2700 2681 2553 2681 
Q 2122 2681 1889 2404 
Q 1656 2128 1656 1613 
L 1656 0 
L 538 0 
L 538 3500 
L 1656 3500 
L 1656 2925 
Q 1872 3269 2151 3426 
Q 2431 3584 2822 3584 
Q 2878 3584 2943 3579 
Q 3009 3575 3134 3559 
L 3138 2547 
z
" transform="scale(0.015625)"/>
       <path id="DejaVuSans-Bold-75" d="M 500 1363 
L 500 3500 
L 1625 3500 
L 1625 3150 
Q 1625 2866 1622 2436 
Q 1619 2006 1619 1863 
Q 1619 1441 1641 1255 
Q 1663 1069 1716 984 
Q 1784 875 1895 815 
Q 2006 756 2150 756 
Q 2500 756 2700 1025 
Q 2900 1294 2900 1772 
L 2900 3500 
L 4019 3500 
L 4019 0 
L 2900 0 
L 2900 506 
Q 2647 200 2364 54 
Q 2081 -91 1741 -91 
Q 1134 -91 817 281 
Q 500 653 500 1363 
z
" transform="scale(0.015625)"/>
      </defs>
      <use xlink:href="#DejaVuSans-Bold-54"/>
      <use xlink:href="#DejaVuSans-Bold-72" x="57.212891"/>
      <use xlink:href="#DejaVuSans-Bold-75" x="106.529297"/>
      <use xlink:href="#DejaVuSans-Bold-65" x="177.720703"/>
      <use xlink:href="#DejaVuSans-Bold-20" x="245.542969"/>
      <use xlink:href="#DejaVuSans-Bold-50" x="280.357422"/>
      <use xlink:href="#DejaVuSans-Bold-6f" x="353.648438"/>
      <use xlink:href="#DejaVuSans-Bold-73" x="422.349609"/>
      <use xlink:href="#DejaVuSans-Bold-69" x="481.871094"/>
      <use xlink:href="#DejaVuSans-Bold-74" x="516.148438"/>
      <use xlink:href="#DejaVuSans-Bold-69" x="563.951172"/>
      <use xlink:href="#DejaVuSans-Bold-76" x="598.228516"/>
      <use xlink:href="#DejaVuSans-Bold-65" x="663.414062"/>
      <use xlink:href="#DejaVuSans-Bold-20" x="731.236328"/>
      <use xlink:href="#DejaVuSans-Bold-52" x="766.050781"/>
      <use xlink:href="#DejaVuSans-Bold-61" x="843.052734"/>
      <use xlink:href="#DejaVuSans-Bold-74" x="910.533203"/>
      <use xlink:href="#DejaVuSans-Bold-65" x="958.335938"/>
     </g>
    </g>
   </g>
   <g id="line2d_25">
    <path d="M 61.53413 378.1975 
L 552.396875 55.492738 
" clip-path="url(#p390d91ba56)" style="fill: none; stroke-dasharray: 7.4,3.2; stroke-dashoffset: 0; stroke: #475569; stroke-width: 2"/>
   </g>
   <g id="patch_3">
    <path d="M 51.716875 378.1975 
L 51.716875 39.3575 
" style="fill: none; stroke: #334155; stroke-width: 0.8; stroke-linejoin: miter; stroke-linecap: square"/>
   </g>
   <g id="patch_4">
    <path d="M 51.716875 378.1975 
L 552.396875 378.1975 
" style="fill: none; stroke: #334155; stroke-width: 0.8; stroke-linejoin: miter; stroke-linecap: square"/>
   </g>
   <g id="text_15">
    <!-- Receiver Operating Characteristic (ROC) -->
    <g style="fill: #f8fafc" transform="translate(120.129375 19.3575) scale(0.16 -0.16)">
     <defs>
      <path id="DejaVuSans-Bold-63" d="M 3366 3391 
L 3366 2478 
Q 3138 2634 2908 2709 
Q 2678 2784 2431 2784 
Q 1963 2784 1702 2511 
Q 1441 2238 1441 1747 
Q 1441 1256 1702 982 
Q 1963 709 2431 709 
Q 2694 709 2930 787 
Q 3166 866 3366 1019 
L 3366 103 
Q 3103 6 2833 -42 
Q 2563 -91 2291 -91 
Q 1344 -91 809 395 
Q 275 881 275 1747 
Q 275 2613 809 3098 
Q 1344 3584 2291 3584 
Q 2566 3584 2833 3536 
Q 3100 3488 3366 3391 
z
" transform="scale(0.015625)"/>
      <path id="DejaVuSans-Bold-4f" d="M 2719 3878 
Q 2169 3878 1866 3472 
Q 1563 3066 1563 2328 
Q 1563 1594 1866 1187 
Q 2169 781 2719 781 
Q 3272 781 3575 1187 
Q 3878 1594 3878 2328 
Q 3878 3066 3575 3472 
Q 3272 3878 2719 3878 
z
M 2719 4750 
Q 3844 4750 4481 4106 
Q 5119 3463 5119 2328 
Q 5119 1197 4481 553 
Q 3844 -91 2719 -91 
Q 1597 -91 958 553 
Q 319 1197 319 2328 
Q 319 3463 958 4106 
Q 1597 4750 2719 4750 
z
" transform="scale(0.015625)"/>
      <path id="DejaVuSans-Bold-70" d="M 1656 506 
L 1656 -1331 
L 538 -1331 
L 538 3500 
L 1656 3500 
L 1656 2988 
Q 1888 3294 2169 3439 
Q 2450 3584 2816 3584 
Q 3463 3584 3878 3070 
Q 4294 2556 4294 1747 
Q 4294 938 3878 423 
Q 3463 -91 2816 -91 
Q 2450 -91 2169 54 
Q 1888 200 1656 506 
z
M 2400 2772 
Q 2041 2772 1848 2508 
Q 1656 2244 1656 1747 
Q 1656 1250 1848 986 
Q 2041 722 2400 722 
Q 2759 722 2948 984 
Q 3138 1247 3138 1747 
Q 3138 2247 2948 2509 
Q 2759 2772 2400 2772 
z
" transform="scale(0.015625)"/>
      <path id="DejaVuSans-Bold-6e" d="M 4056 2131 
L 4056 0 
L 2931 0 
L 2931 347 
L 2931 1631 
Q 2931 2084 2911 2256 
Q 2891 2428 2841 2509 
Q 2775 2619 2662 2680 
Q 2550 2741 2406 2741 
Q 2056 2741 1856 2470 
Q 1656 2200 1656 1722 
L 1656 0 
L 538 0 
L 538 3500 
L 1656 3500 
L 1656 2988 
Q 1909 3294 2193 3439 
Q 2478 3584 2822 3584 
Q 3428 3584 3742 3212 
Q 4056 2841 4056 2131 
z
" transform="scale(0.015625)"/>
      <path id="DejaVuSans-Bold-67" d="M 2919 594 
Q 2688 288 2409 144 
Q 2131 0 1766 0 
Q 1125 0 706 504 
Q 288 1009 288 1791 
Q 288 2575 706 3076 
Q 1125 3578 1766 3578 
Q 2131 3578 2409 3434 
Q 2688 3291 2919 2981 
L 2919 3500 
L 4044 3500 
L 4044 353 
Q 4044 -491 3511 -936 
Q 2978 -1381 1966 -1381 
Q 1638 -1381 1331 -1331 
Q 1025 -1281 716 -1178 
L 716 -306 
Q 1009 -475 1290 -558 
Q 1572 -641 1856 -641 
Q 2406 -641 2662 -400 
Q 2919 -159 2919 353 
L 2919 594 
z
M 2181 2772 
Q 1834 2772 1640 2515 
Q 1447 2259 1447 1791 
Q 1447 1309 1634 1061 
Q 1822 813 2181 813 
Q 2531 813 2725 1069 
Q 2919 1325 2919 1791 
Q 2919 2259 2725 2515 
Q 2531 2772 2181 2772 
z
" transform="scale(0.015625)"/>
      <path id="DejaVuSans-Bold-43" d="M 4288 256 
Q 3956 84 3597 -3 
Q 3238 -91 2847 -91 
Q 1681 -91 1000 561 
Q 319 1213 319 2328 
Q 319 3447 1000 4098 
Q 1681 4750 2847 4750 
Q 3238 4750 3597 4662 
Q 3956 4575 4288 4403 
L 4288 3438 
Q 3953 3666 3628 3772 
Q 3303 3878 2944 3878 
Q 2300 3878 1931 3465 
Q 1563 3053 1563 2328 
Q 1563 1606 1931 1193 
Q 2300 781 2944 781 
Q 3303 781 3628 887 
Q 3953 994 4288 1222 
L 4288 256 
z
" transform="scale(0.015625)"/>
      <path id="DejaVuSans-Bold-68" d="M 4056 2131 
L 4056 0 
L 2931 0 
L 2931 347 
L 2931 1625 
Q 2931 2084 2911 2256 
Q 2891 2428 2841 2509 
Q 2775 2619 2662 2680 
Q 2550 2741 2406 2741 
Q 2056 2741 1856 2470 
Q 1656 2200 1656 1722 
L 1656 0 
L 538 0 
L 538 4863 
L 1656 4863 
L 1656 2988 
Q 1909 3294 2193 3439 
Q 2478 3584 2822 3584 
Q 3428 3584 3742 3212 
Q 4056 2841 4056 2131 
z
" transform="scale(0.015625)"/>
      <path id="DejaVuSans-Bold-28" d="M 2413 -844 
L 1484 -844 
Q 1006 -72 778 623 
Q 550 1319 550 2003 
Q 550 2688 779 3389 
Q 1009 4091 1484 4856 
L 2413 4856 
Q 2013 4116 1813 3408 
Q 1613 2700 1613 2009 
Q 1613 1319 1811 609 
Q 2009 -100 2413 -844 
z
" transform="scale(0.015625)"/>
      <path id="DejaVuSans-Bold-29" d="M 513 -844 
Q 913 -100 1113 609 
Q 1313 1319 1313 2009 
Q 1313 2700 1113 3408 
Q 913 4116 513 4856 
L 1441 4856 
Q 1916 4091 2145 3389 
Q 2375 2688 2375 2003 
Q 2375 1319 2147 623 
Q 1919 -72 1441 -844 
L 513 -844 
z
" transform="scale(0.015625)"/>
     </defs>
     <use xlink:href="#DejaVuSans-Bold-52"/>
     <use xlink:href="#DejaVuSans-Bold-65" x="77.001953"/>
     <use xlink:href="#DejaVuSans-Bold-63" x="144.824219"/>
     <use xlink:href="#DejaVuSans-Bold-65" x="204.101562"/>
     <use xlink:href="#DejaVuSans-Bold-69" x="271.923828"/>
     <use xlink:href="#DejaVuSans-Bold-76" x="306.201172"/>
     <use xlink:href="#DejaVuSans-Bold-65" x="371.386719"/>
     <use xlink:href="#DejaVuSans-Bold-72" x="439.208984"/>
     <use xlink:href="#DejaVuSans-Bold-20" x="488.525391"/>
     <use xlink:href="#DejaVuSans-Bold-4f" x="523.339844"/>
     <use xlink:href="#DejaVuSans-Bold-70" x="608.349609"/>
     <use xlink:href="#DejaVuSans-Bold-65" x="679.931641"/>
     <use xlink:href="#DejaVuSans-Bold-72" x="747.753906"/>
     <use xlink:href="#DejaVuSans-Bold-61" x="797.070312"/>
     <use xlink:href="#DejaVuSans-Bold-74" x="864.550781"/>
     <use xlink:href="#DejaVuSans-Bold-69" x="912.353516"/>
     <use xlink:href="#DejaVuSans-Bold-6e" x="946.630859"/>
     <use xlink:href="#DejaVuSans-Bold-67" x="1017.822266"/>
     <use xlink:href="#DejaVuSans-Bold-20" x="1089.404297"/>
     <use xlink:href="#DejaVuSans-Bold-43" x="1124.21875"/>
     <use xlink:href="#DejaVuSans-Bold-68" x="1197.607422"/>
     <use xlink:href="#DejaVuSans-Bold-61" x="1268.798828"/>
     <use xlink:href="#DejaVuSans-Bold-72" x="1336.279297"/>
     <use xlink:href="#DejaVuSans-Bold-61" x="1385.595703"/>
     <use xlink:href="#DejaVuSans-Bold-63" x="1453.076172"/>
     <use xlink:href="#DejaVuSans-Bold-74" x="1512.353516"/>
     <use xlink:href="#DejaVuSans-Bold-65" x="1560.15625"/>
     <use xlink:href="#DejaVuSans-Bold-72" x="1627.978516"/>
     <use xlink:href="#DejaVuSans-Bold-69" x="1677.294922"/>
     <use xlink:href="#DejaVuSans-Bold-73" x="1711.572266"/>
     <use xlink:href="#DejaVuSans-Bold-74" x="1771.09375"/>
     <use xlink:href="#DejaVuSans-Bold-69" x="1818.896484"/>
     <use xlink:href="#DejaVuSans-Bold-63" x="1853.173828"/>
     <use xlink:href="#DejaVuSans-Bold-20" x="1912.451172"/>
     <use xlink:href="#DejaVuSans-Bold-28" x="1947.265625"/>
     <use xlink:href="#DejaVuSans-Bold-52" x="1992.96875"/>
     <use xlink:href="#DejaVuSans-Bold-4f" x="2069.970703"/>
     <use xlink:href="#DejaVuSans-Bold-43" x="2154.980469"/>
     <use xlink:href="#DejaVuSans-Bold-29" x="2228.369141"/>
    </g>
   </g>
   <g id="line2d_26">
    <path d="M 61.53413 378.1975 
L 62.708443 378.1975 
L 254.121427 378.1975 
L 254.121427 363.529102 
L 308.139815 363.529102 
L 310.488441 363.529102 
L 324.580194 363.529102 
L 324.580194 348.860703 
L 335.149009 348.860703 
L 335.149009 334.192305 
L 336.323322 334.192305 
L 336.323322 319.523907 
L 337.497635 319.523907 
L 337.497635 304.855509 
L 341.020573 304.855509 
L 341.020573 290.18711 
L 351.589388 290.18711 
L 351.589388 260.850314 
L 355.112327 260.850314 
L 355.112327 246.181916 
L 375.075644 246.181916 
L 377.42427 246.181916 
L 386.818772 246.181916 
L 386.818772 231.513517 
L 411.479341 231.513517 
L 415.002279 231.513517 
L 417.350904 231.513517 
L 417.350904 216.845119 
L 422.048156 216.845119 
L 422.048156 202.176721 
L 452.580288 202.176721 
L 454.928914 202.176721 
L 464.323416 202.176721 
L 466.672042 202.176721 
L 473.717918 202.176721 
L 473.717918 187.508323 
L 501.901425 187.508323 
L 501.901425 172.839924 
L 505.424364 172.839924 
L 505.424364 158.171526 
L 506.598676 158.171526 
L 506.598676 128.834729 
L 507.772989 128.834729 
L 507.772989 114.166331 
L 508.947302 114.166331 
L 508.947302 99.497933 
L 521.864743 99.497933 
L 521.864743 84.829535 
L 540.653747 84.829535 
L 540.653747 70.161136 
L 547.699624 70.161136 
L 547.699624 55.492738 
L 552.396875 55.492738 
" clip-path="url(#p390d91ba56)" style="fill: none; stroke: #00f0ff; stroke-opacity: 0.1; stroke-width: 5; stroke-linecap: square"/>
   </g>
   <g id="line2d_27">
    <path d="M 61.53413 378.1975 
L 62.708443 378.1975 
L 254.121427 378.1975 
L 254.121427 363.529102 
L 308.139815 363.529102 
L 310.488441 363.529102 
L 324.580194 363.529102 
L 324.580194 348.860703 
L 335.149009 348.860703 
L 335.149009 334.192305 
L 336.323322 334.192305 
L 336.323322 319.523907 
L 337.497635 319.523907 
L 337.497635 304.855509 
L 341.020573 304.855509 
L 341.020573 290.18711 
L 351.589388 290.18711 
L 351.589388 260.850314 
L 355.112327 260.850314 
L 355.112327 246.181916 
L 375.075644 246.181916 
L 377.42427 246.181916 
L 386.818772 246.181916 
L 386.818772 231.513517 
L 411.479341 231.513517 
L 415.002279 231.513517 
L 417.350904 231.513517 
L 417.350904 216.845119 
L 422.048156 216.845119 
L 422.048156 202.176721 
L 452.580288 202.176721 
L 454.928914 202.176721 
L 464.323416 202.176721 
L 466.672042 202.176721 
L 473.717918 202.176721 
L 473.717918 187.508323 
L 501.901425 187.508323 
L 501.901425 172.839924 
L 505.424364 172.839924 
L 505.424364 158.171526 
L 506.598676 158.171526 
L 506.598676 128.834729 
L 507.772989 128.834729 
L 507.772989 114.166331 
L 508.947302 114.166331 
L 508.947302 99.497933 
L 521.864743 99.497933 
L 521.864743 84.829535 
L 540.653747 84.829535 
L 540.653747 70.161136 
L 547.699624 70.161136 
L 547.699624 55.492738 
L 552.396875 55.492738 
" clip-path="url(#p390d91ba56)" style="fill: none; stroke: #00f0ff; stroke-opacity: 0.1; stroke-width: 8; stroke-linecap: square"/>
   </g>
   <g id="line2d_28">
    <path d="M 61.53413 378.1975 
L 62.708443 378.1975 
L 254.121427 378.1975 
L 254.121427 363.529102 
L 308.139815 363.529102 
L 310.488441 363.529102 
L 324.580194 363.529102 
L 324.580194 348.860703 
L 335.149009 348.860703 
L 335.149009 334.192305 
L 336.323322 334.192305 
L 336.323322 319.523907 
L 337.497635 319.523907 
L 337.497635 304.855509 
L 341.020573 304.855509 
L 341.020573 290.18711 
L 351.589388 290.18711 
L 351.589388 260.850314 
L 355.112327 260.850314 
L 355.112327 246.181916 
L 375.075644 246.181916 
L 377.42427 246.181916 
L 386.818772 246.181916 
L 386.818772 231.513517 
L 411.479341 231.513517 
L 415.002279 231.513517 
L 417.350904 231.513517 
L 417.350904 216.845119 
L 422.048156 216.845119 
L 422.048156 202.176721 
L 452.580288 202.176721 
L 454.928914 202.176721 
L 464.323416 202.176721 
L 466.672042 202.176721 
L 473.717918 202.176721 
L 473.717918 187.508323 
L 501.901425 187.508323 
L 501.901425 172.839924 
L 505.424364 172.839924 
L 505.424364 158.171526 
L 506.598676 158.171526 
L 506.598676 128.834729 
L 507.772989 128.834729 
L 507.772989 114.166331 
L 508.947302 114.166331 
L 508.947302 99.497933 
L 521.864743 99.497933 
L 521.864743 84.829535 
L 540.653747 84.829535 
L 540.653747 70.161136 
L 547.699624 70.161136 
L 547.699624 55.492738 
L 552.396875 55.492738 
" clip-path="url(#p390d91ba56)" style="fill: none; stroke: #00f0ff; stroke-opacity: 0.1; stroke-width: 11; stroke-linecap: square"/>
   </g>
   <g id="line2d_29">
    <path d="M 61.53413 378.1975 
L 62.708443 378.1975 
L 254.121427 378.1975 
L 254.121427 363.529102 
L 308.139815 363.529102 
L 310.488441 363.529102 
L 324.580194 363.529102 
L 324.580194 348.860703 
L 335.149009 348.860703 
L 335.149009 334.192305 
L 336.323322 334.192305 
L 336.323322 319.523907 
L 337.497635 319.523907 
L 337.497635 304.855509 
L 341.020573 304.855509 
L 341.020573 290.18711 
L 351.589388 290.18711 
L 351.589388 260.850314 
L 355.112327 260.850314 
L 355.112327 246.181916 
L 375.075644 246.181916 
L 377.42427 246.181916 
L 386.818772 246.181916 
L 386.818772 231.513517 
L 411.479341 231.513517 
L 415.002279 231.513517 
L 417.350904 231.513517 
L 417.350904 216.845119 
L 422.048156 216.845119 
L 422.048156 202.176721 
L 452.580288 202.176721 
L 454.928914 202.176721 
L 464.323416 202.176721 
L 466.672042 202.176721 
L 473.717918 202.176721 
L 473.717918 187.508323 
L 501.901425 187.508323 
L 501.901425 172.839924 
L 505.424364 172.839924 
L 505.424364 158.171526 
L 506.598676 158.171526 
L 506.598676 128.834729 
L 507.772989 128.834729 
L 507.772989 114.166331 
L 508.947302 114.166331 
L 508.947302 99.497933 
L 521.864743 99.497933 
L 521.864743 84.829535 
L 540.653747 84.829535 
L 540.653747 70.161136 
L 547.699624 70.161136 
L 547.699624 55.492738 
L 552.396875 55.492738 
" clip-path="url(#p390d91ba56)" style="fill: none; stroke: #00f0ff; stroke-width: 2; stroke-linecap: square"/>
   </g>
   <g id="legend_1">
    <g id="patch_5">
     <path d="M 428.189375 372.1975 
L 543.996875 372.1975 
Q 546.396875 372.1975 546.396875 369.7975 
L 546.396875 353.38375 
Q 546.396875 350.98375 543.996875 350.98375 
L 428.189375 350.98375 
Q 425.789375 350.98375 425.789375 353.38375 
L 425.789375 369.7975 
Q 425.789375 372.1975 428.189375 372.1975 
z
" style="fill: #1e293b; opacity: 0.8; stroke: #334155; stroke-linejoin: miter"/>
    </g>
    <g id="line2d_30">
     <path d="M 430.589375 360.701875 
L 442.589375 360.701875 
L 454.589375 360.701875 
" style="fill: none; stroke: #00f0ff; stroke-width: 2; stroke-linecap: square"/>
    </g>
    <g id="text_16">
     <!-- AUC = 0.261 -->
     <g style="fill: #ffffff" transform="translate(464.189375 364.901875) scale(0.12 -0.12)">
      <defs>
       <path id="DejaVuSans-41" d="M 2188 4044 
L 1331 1722 
L 3047 1722 
L 2188 4044 
z
M 1831 4666 
L 2547 4666 
L 4325 0 
L 3669 0 
L 3244 1197 
L 1141 1197 
L 716 0 
L 50 0 
L 1831 4666 
z
" transform="scale(0.015625)"/>
       <path id="DejaVuSans-55" d="M 556 4666 
L 1191 4666 
L 1191 1831 
Q 1191 1081 1462 751 
Q 1734 422 2344 422 
Q 2950 422 3222 751 
Q 3494 1081 3494 1831 
L 3494 4666 
L 4128 4666 
L 4128 1753 
Q 4128 841 3676 375 
Q 3225 -91 2344 -91 
Q 1459 -91 1007 375 
Q 556 841 556 1753 
L 556 4666 
z
" transform="scale(0.015625)"/>
       <path id="DejaVuSans-43" d="M 4122 4306 
L 4122 3641 
Q 3803 3938 3442 4084 
Q 3081 4231 2675 4231 
Q 1875 4231 1450 3742 
Q 1025 3253 1025 2328 
Q 1025 1406 1450 917 
Q 1875 428 2675 428 
Q 3081 428 3442 575 
Q 3803 722 4122 1019 
L 4122 359 
Q 3791 134 3420 21 
Q 3050 -91 2638 -91 
Q 1578 -91 968 557 
Q 359 1206 359 2328 
Q 359 3453 968 4101 
Q 1578 4750 2638 4750 
Q 3056 4750 3426 4639 
Q 3797 4528 4122 4306 
z
" transform="scale(0.015625)"/>
       <path id="DejaVuSans-20" transform="scale(0.015625)"/>
       <path id="DejaVuSans-3d" d="M 678 2906 
L 4684 2906 
L 4684 2381 
L 678 2381 
L 678 2906 
z
M 678 1631 
L 4684 1631 
L 4684 1100 
L 678 1100 
L 678 1631 
z
" transform="scale(0.015625)"/>
      </defs>
      <use xlink:href="#DejaVuSans-41"/>
      <use xlink:href="#DejaVuSans-55" x="68.408203"/>
      <use xlink:href="#DejaVuSans-43" x="141.601562"/>
      <use xlink:href="#DejaVuSans-20" x="211.425781"/>
      <use xlink:href="#DejaVuSans-3d" x="243.212891"/>
      <use xlink:href="#DejaVuSans-20" x="327.001953"/>
      <use xlink:href="#DejaVuSans-30" x="358.789062"/>
      <use xlink:href="#DejaVuSans-2e" x="422.412109"/>
      <use xlink:href="#DejaVuSans-32" x="454.199219"/>
      <use xlink:href="#DejaVuSans-36" x="517.822266"/>
      <use xlink:href="#DejaVuSans-31" x="581.445312"/>
     </g>
    </g>
   </g>
  </g>
 </g>
 <defs>
  <clipPath id="p390d91ba56">
   <rect x="51.716875" y="39.3575" width="500.68" height="338.84"/>
  </clipPath>
 </defs>
</svg>
